<?xml version="1.0" encoding="utf-8"?>
<!-- Generator: Adobe Illustrator 17.1.0, SVG Export Plug-In . SVG Version: 6.00 Build 0)  -->
<!DOCTYPE svg PUBLIC "-//W3C//DTD SVG 1.1//EN" "http://www.w3.org/Graphics/SVG/1.1/DTD/svg11.dtd">
<svg version="1.1" id="Layer_1" xmlns="http://www.w3.org/2000/svg" xmlns:xlink="http://www.w3.org/1999/xlink" x="0px" y="0px"
	 viewBox="0 0 100 100" enable-background="new 0 0 100 100" xml:space="preserve">
<g>
	<path fill="#FFFFFF" d="M50.5,100h-1C22.2,100,0,77.8,0,50.5v-1C0,22.2,22.2,0,49.5,0h1C77.8,0,100,22.2,100,49.5v1
		C100,77.8,77.8,100,50.5,100z"/>
	<g>
		<path fill="#00243A" d="M58,30.9V77c0,3.4-0.7,6-3.4,7.9C52,86.8,49,87.7,44,87.7V41.6c0-3.3,0.7-5.9,3.4-7.9
			C50,31.8,55,30.9,58,30.9z"/>
		<circle fill="#FF0000" cx="50.1" cy="19.9" r="7.9"/>
	</g>
</g>
</svg>
