<?xml version="1.0" encoding="utf-8"?>
<!-- Generator: Adobe Illustrator 17.1.0, SVG Export Plug-In . SVG Version: 6.00 Build 0)  -->
<!DOCTYPE svg PUBLIC "-//W3C//DTD SVG 1.1//EN" "http://www.w3.org/Graphics/SVG/1.1/DTD/svg11.dtd">
<svg version="1.1" id="Layer_1" xmlns="http://www.w3.org/2000/svg" xmlns:xlink="http://www.w3.org/1999/xlink" x="0px" y="0px"
	 viewBox="0 0 200 30" enable-background="new 0 0 200 30" xml:space="preserve">
<g>
	<g>
		<path fill="#FFFFFF" d="M5.5,27.5c-1.5-0.5-2.7-1.3-3.5-2.2c-0.8-0.9-1.2-2-1.2-3.3c0-1.9,1.2-2.9,3.6-2.9c0,1.9,0.6,3.3,1.8,4.3
			c1.2,1,2.8,1.5,4.9,1.5c1.8,0,3.2-0.3,4.2-0.9c1-0.6,1.5-1.5,1.5-2.7c0-0.7-0.2-1.3-0.6-1.8c-0.4-0.5-1-0.9-1.9-1.2
			c-0.9-0.4-2.2-0.7-3.9-1.1C8,16.5,6.2,16,4.9,15.3c-1.3-0.7-2.3-1.5-2.9-2.4C1.5,12,1.2,10.8,1.2,9.5c0-1.3,0.4-2.5,1.2-3.5
			c0.8-1,1.9-1.8,3.3-2.4C7.1,3,8.7,2.7,10.6,2.7c1.8,0,3.4,0.2,4.8,0.7c1.4,0.5,2.5,1.2,3.3,2c0.8,0.9,1.2,1.9,1.2,3
			c0,1.6-1.2,2.5-3.5,2.6c-0.2-1.7-0.8-3-1.7-3.7c-0.9-0.8-2.3-1.2-4.2-1.2c-1.7,0-2.9,0.3-3.8,0.9C5.8,7.6,5.4,8.4,5.4,9.5
			c0,0.7,0.2,1.3,0.5,1.8c0.3,0.5,0.9,0.9,1.7,1.2c0.8,0.3,2,0.7,3.5,1c2.4,0.5,4.3,1.2,5.8,1.8c1.4,0.7,2.4,1.5,3.1,2.4
			c0.6,0.9,0.9,2.1,0.9,3.5c0,1.4-0.4,2.7-1.2,3.8c-0.8,1.1-2,1.9-3.5,2.5c-1.5,0.6-3.3,0.9-5.3,0.9C8.8,28.3,7,28,5.5,27.5z"/>
		<path fill="#FFFFFF" d="M28.6,27.1c-1.6-0.8-2.9-1.8-3.8-3.2c-0.9-1.3-1.4-2.8-1.4-4.4v-8.1c0-1.6,0.5-3,1.4-4.4
			c0.9-1.3,2.2-2.4,3.8-3.1C30.2,3.1,32,2.7,34,2.7c2,0,3.8,0.4,5.4,1.2c1.6,0.8,2.9,1.8,3.8,3.1c0.9,1.3,1.4,2.8,1.4,4.4v8.1
			c0,1.6-0.5,3-1.4,4.4c-0.9,1.3-2.2,2.4-3.8,3.2c-1.6,0.8-3.4,1.2-5.3,1.2C32,28.3,30.2,27.9,28.6,27.1z M38.5,23.2
			c1.1-0.9,1.7-2.1,1.7-3.7v-8c0-1.5-0.6-2.7-1.7-3.6c-1.1-0.9-2.6-1.4-4.5-1.4c-1.9,0-3.4,0.5-4.5,1.4c-1.1,0.9-1.7,2.1-1.7,3.6v8
			c0,1.5,0.6,2.7,1.7,3.7c1.1,0.9,2.6,1.4,4.5,1.4C35.9,24.6,37.4,24.1,38.5,23.2z"/>
		<path fill="#FFFFFF" d="M48.1,6c0-1,0.4-1.8,1.2-2.4C50,3,51.1,2.7,52.4,2.7l7.9,19.4l-0.8,2l0.3,0.1l8.4-21.6
			c1.3,0,2.4,0.3,3.1,0.9c0.8,0.6,1.2,1.4,1.2,2.4v22.2c-2.8,0-4.2-1.1-4.2-3.2V12.5l1.1-3L69,9.4l-7,17.8c-0.1,0.3-0.4,0.6-0.7,0.8
			c-0.3,0.2-0.7,0.3-1,0.3c-0.4,0-0.8-0.1-1.1-0.3s-0.6-0.5-0.7-0.9l-7-17.8l-0.4,0.1l1.1,3V25c0,2.2-1.4,3.2-4.2,3.2V6z"/>
		<path fill="#FFFFFF" d="M87.1,6.1c0-1.1,0.4-1.9,1.1-2.5C89,3,90,2.7,91.4,2.7v11.7l12.3-11.7c0.5,0.4,1,0.8,1.3,1.3
			c0.3,0.5,0.5,0.9,0.5,1.2c0,0.3-0.1,0.7-0.4,1c-0.2,0.4-0.6,0.7-1,1.1l-7.5,7.1L106.7,27c-0.7,0.9-1.5,1.3-2.5,1.3
			c-1.1,0-1.9-0.4-2.6-1.2l-7.9-9.8l-2.2,2.1v5.8c0,1.1-0.3,1.9-1,2.4c-0.7,0.5-1.8,0.8-3.2,0.8V6.1z"/>
		<path fill="#FFFFFF" d="M112.7,27.1c-1.6-0.8-2.9-1.8-3.8-3.2c-0.9-1.3-1.4-2.8-1.4-4.4v-8.1c0-1.6,0.5-3,1.4-4.4
			c0.9-1.3,2.2-2.4,3.8-3.1c1.6-0.8,3.4-1.2,5.4-1.2c2,0,3.8,0.4,5.4,1.2c1.6,0.8,2.9,1.8,3.8,3.1c0.9,1.3,1.4,2.8,1.4,4.4v8.1
			c0,1.6-0.5,3-1.4,4.4c-0.9,1.3-2.2,2.4-3.8,3.2c-1.6,0.8-3.4,1.2-5.3,1.2C116.1,28.3,114.3,27.9,112.7,27.1z M122.6,23.2
			c1.1-0.9,1.7-2.1,1.7-3.7v-8c0-1.5-0.6-2.7-1.7-3.6c-1.1-0.9-2.6-1.4-4.5-1.4c-1.9,0-3.4,0.5-4.5,1.4c-1.1,0.9-1.7,2.1-1.7,3.6v8
			c0,1.5,0.6,2.7,1.7,3.7c1.1,0.9,2.6,1.4,4.5,1.4C120,24.6,121.5,24.1,122.6,23.2z"/>
		<path fill="#FFFFFF" d="M132.2,5c0-0.5,0.2-1,0.6-1.4c0.4-0.4,0.9-0.6,1.5-0.6h9.6c2.5,0,4.4,0.7,5.8,2c1.4,1.4,2.1,3.2,2.1,5.6
			c0,1.4-0.3,2.6-0.9,3.5c-0.6,1-1.5,1.7-2.7,2.3v0.1c1,0.5,1.8,1.1,2.4,2c0.5,0.9,0.8,2,0.8,3.3V25c0,1.1-0.4,1.9-1.1,2.4
			c-0.7,0.6-1.8,0.8-3.2,0.8v-6.2c0-2.6-1.1-3.8-3.3-3.8h-7.5V25c0,1.1-0.4,1.9-1.1,2.4c-0.7,0.6-1.8,0.8-3.1,0.8V5z M143.8,14.6
			c1.2,0,2.1-0.3,2.8-1c0.7-0.7,1-1.7,1-2.9c0-2.6-1.3-3.9-3.8-3.9h-7.3v7.9H143.8z"/>
		<path fill="#FFFFFF" d="M160,27.1c-1.6-0.8-2.9-1.8-3.8-3.2c-0.9-1.3-1.4-2.8-1.4-4.4v-8.1c0-1.6,0.5-3,1.4-4.4
			c0.9-1.3,2.2-2.4,3.8-3.1c1.6-0.8,3.4-1.2,5.4-1.2c2,0,3.8,0.4,5.4,1.2c1.6,0.8,2.9,1.8,3.8,3.1c0.9,1.3,1.4,2.8,1.4,4.4v8.1
			c0,1.6-0.5,3-1.4,4.4c-0.9,1.3-2.2,2.4-3.8,3.2c-1.6,0.8-3.4,1.2-5.3,1.2C163.4,28.3,161.6,27.9,160,27.1z M169.9,23.2
			c1.1-0.9,1.7-2.1,1.7-3.7v-8c0-1.5-0.6-2.7-1.7-3.6c-1.1-0.9-2.6-1.4-4.5-1.4c-1.9,0-3.4,0.5-4.5,1.4c-1.1,0.9-1.7,2.1-1.7,3.6v8
			c0,1.5,0.6,2.7,1.7,3.7c1.1,0.9,2.6,1.4,4.5,1.4C167.3,24.6,168.8,24.1,169.9,23.2z"/>
		<path fill="#FFFFFF" d="M179.5,6.2c0-1.1,0.3-1.9,1-2.6c0.7-0.6,1.7-0.9,2.9-0.9l12.6,19.5l0.3-0.3l-1.3-2.2V2.7
			c1.4,0,2.5,0.3,3.2,0.8c0.7,0.5,1.1,1.4,1.1,2.5v19.2c0,0.8-0.3,1.5-1,2.2c-0.7,0.6-1.5,0.9-2.4,0.9L182.8,7.9l-0.3,0.2l1.3,2.2
			V25c0,1.1-0.4,1.9-1.1,2.4c-0.7,0.6-1.8,0.8-3.1,0.8V6.2z"/>
		<path fill="#FFFFFF" d="M78.8,10.4c-0.7,0.6-1.1,1.4-1.1,2.4v1.3v2.5v11.7c1.4,0,2.4-0.3,3.2-0.9c0.7-0.6,1.1-1.4,1.1-2.4v-8.4
			v-2.5V9.5C80.6,9.5,79.5,9.8,78.8,10.4z"/>
	</g>
	<circle fill="#FF0000" cx="79.8" cy="5.4" r="2.7"/>
</g>
</svg>
