<?xml version="1.0" encoding="utf-8"?>
<!-- Generator: Adobe Illustrator 17.1.0, SVG Export Plug-In . SVG Version: 6.00 Build 0)  -->
<!DOCTYPE svg PUBLIC "-//W3C//DTD SVG 1.1//EN" "http://www.w3.org/Graphics/SVG/1.1/DTD/svg11.dtd">
<svg version="1.1" xmlns="http://www.w3.org/2000/svg" xmlns:xlink="http://www.w3.org/1999/xlink" x="0px" y="0px"
	 viewBox="0 0 500 450" enable-background="new 0 0 500 450" xml:space="preserve">
<g id="Background_Complete">
	<path fill="#FAFAFA" d="M491.3,253.2c-13.1-37.6-65.2-66.9-140-39.8c-74.7,27.1-106.2,10.5-161-20.9
		C117.9,150.8,23.5,169,6.8,242.8C-11.5,324,65.9,388.2,108.5,412.5c42.6,24.3,185.2,72.4,318.2-13.7
		C480.8,363.8,507.7,300.2,491.3,253.2z"/>
	<g>
		<rect x="1" y="332.5" fill="#EBEBEB" width="500" height="0.3"/>
		<rect x="417.8" y="348.6" fill="#EBEBEB" width="33.1" height="0.3"/>
		<rect x="323.5" y="351.3" fill="#EBEBEB" width="8.7" height="0.3"/>
		<rect x="397.6" y="339.3" fill="#EBEBEB" width="19.2" height="0.3"/>
		<rect x="53.5" y="341" fill="#EBEBEB" width="43.2" height="0.3"/>
		<rect x="105.6" y="341" fill="#EBEBEB" width="6.3" height="0.3"/>
		<rect x="132.5" y="345.2" fill="#EBEBEB" width="93.7" height="0.3"/>
		<path fill="#EBEBEB" d="M238,287.9H44.9c-3.1,0-5.7-2.6-5.7-5.7V10.8c0-3.1,2.6-5.7,5.7-5.7H238c3.1,0,5.7,2.6,5.7,5.7v271.4
			C243.7,285.4,241.2,287.9,238,287.9z M44.9,5.3c-3,0-5.5,2.4-5.5,5.5v271.4c0,3,2.4,5.5,5.5,5.5H238c3,0,5.5-2.4,5.5-5.5V10.8
			c0-3-2.4-5.5-5.5-5.5H44.9z"/>
		<path fill="#EBEBEB" d="M454.3,287.9H261.2c-3.1,0-5.7-2.6-5.7-5.7V10.8c0-3.1,2.6-5.7,5.7-5.7h193.1c3.1,0,5.7,2.6,5.7,5.7v271.4
			C460,285.4,457.5,287.9,454.3,287.9z M261.2,5.3c-3,0-5.5,2.4-5.5,5.5v271.4c0,3,2.4,5.5,5.5,5.5h193.1c3,0,5.5-2.4,5.5-5.5V10.8
			c0-3-2.4-5.5-5.5-5.5H261.2z"/>
	</g>
	<g>
		<rect x="246.8" y="70.9" fill="#EBEBEB" width="169.5" height="189.9"/>
		<rect x="246.8" y="73.9" fill="#FAFAFA" width="166.2" height="183.5"/>
		<g>
			<polygon fill="#F0F0F0" points="406.9,171.3 406.9,158.4 403.2,158.4 403.2,149.8 398.3,149.8 398.3,136.9 397,136.9 397,149.8 
				392.1,149.8 392.1,158.4 388.4,158.4 388.4,171.3 381.7,171.3 381.7,175 378.6,175 378.6,189.1 378,189.1 378,168.8 376.2,168.8 
				376.2,181.7 374.3,181.7 374.3,151 373.1,151 373.1,163.9 368.2,163.9 368.2,159.6 366.3,159.6 366.3,141.8 362.7,141.8 
				362.7,124 361.4,124 361.4,126.5 336.3,126.5 336.3,119.1 332,119.1 332,90.9 330.1,90.9 330.1,119.1 324,119.1 324,126.5 
				321.5,126.5 321.5,163.3 308.6,163.3 308.6,152.3 312.9,152.3 312.9,150.4 308.6,150.4 308.6,147.4 296.4,147.4 296.4,119.1 
				293.3,119.1 293.3,114.8 278.6,114.8 278.6,119.1 276.7,119.1 276.7,158.4 270,158.4 270,176.2 266.3,176.2 266.3,162.1 
				263.2,162.1 263.2,158.4 256.5,158.4 256.5,145.5 252.8,145.5 252.8,136.9 248.5,136.9 248.5,124 246.8,124 246.8,257.4 
				413,257.4 413,171.3 			"/>
			<g>
				<rect x="345.7" y="128.4" fill="#FAFAFA" width="1.7" height="1.7"/>
				<rect x="345.7" y="131.3" fill="#FAFAFA" width="1.7" height="1.7"/>
				<rect x="345.7" y="143" fill="#FAFAFA" width="1.7" height="1.7"/>
				<rect x="345.7" y="145.9" fill="#FAFAFA" width="1.7" height="1.7"/>
				<rect x="345.7" y="148.8" fill="#FAFAFA" width="1.7" height="1.7"/>
				<rect x="345.7" y="157.6" fill="#FAFAFA" width="1.7" height="1.7"/>
				<rect x="345.7" y="160.5" fill="#FAFAFA" width="1.7" height="1.7"/>
				<rect x="342.9" y="140.1" fill="#FAFAFA" width="1.7" height="1.7"/>
				<rect x="342.9" y="143" fill="#FAFAFA" width="1.7" height="1.7"/>
				<rect x="342.9" y="145.9" fill="#FAFAFA" width="1.7" height="1.7"/>
				<rect x="342.9" y="148.8" fill="#FAFAFA" width="1.7" height="1.7"/>
				<rect x="342.9" y="151.7" fill="#FAFAFA" width="1.7" height="1.7"/>
				<rect x="342.9" y="157.6" fill="#FAFAFA" width="1.7" height="1.7"/>
				<rect x="342.9" y="160.5" fill="#FAFAFA" width="1.7" height="1.7"/>
				<rect x="340.1" y="128.4" fill="#FAFAFA" width="1.7" height="1.7"/>
				<rect x="340.1" y="131.3" fill="#FAFAFA" width="1.7" height="1.7"/>
				<rect x="340.1" y="134.2" fill="#FAFAFA" width="1.7" height="1.7"/>
				<rect x="340.1" y="137.2" fill="#FAFAFA" width="1.7" height="1.7"/>
				<rect x="340.1" y="140.1" fill="#FAFAFA" width="1.7" height="1.7"/>
				<rect x="340.1" y="143" fill="#FAFAFA" width="1.7" height="1.7"/>
				<rect x="340.1" y="145.9" fill="#FAFAFA" width="1.7" height="1.7"/>
				<rect x="340.1" y="148.8" fill="#FAFAFA" width="1.7" height="1.7"/>
				<rect x="340.1" y="151.7" fill="#FAFAFA" width="1.7" height="1.7"/>
				<rect x="340.1" y="154.7" fill="#FAFAFA" width="1.7" height="1.7"/>
				<rect x="340.1" y="160.5" fill="#FAFAFA" width="1.7" height="1.7"/>
				<rect x="337.4" y="128.4" fill="#FAFAFA" width="1.7" height="1.7"/>
				<rect x="337.4" y="131.3" fill="#FAFAFA" width="1.7" height="1.7"/>
				<rect x="337.4" y="134.2" fill="#FAFAFA" width="1.7" height="1.7"/>
				<rect x="337.4" y="137.2" fill="#FAFAFA" width="1.7" height="1.7"/>
				<rect x="337.4" y="140.1" fill="#FAFAFA" width="1.7" height="1.7"/>
				<rect x="337.4" y="143" fill="#FAFAFA" width="1.7" height="1.7"/>
				<rect x="337.4" y="145.9" fill="#FAFAFA" width="1.7" height="1.7"/>
				<rect x="337.4" y="172.2" fill="#FAFAFA" width="1.7" height="1.7"/>
				<rect x="334.6" y="128.4" fill="#FAFAFA" width="1.7" height="1.7"/>
				<rect x="334.6" y="131.3" fill="#FAFAFA" width="1.7" height="1.7"/>
				<rect x="334.6" y="134.2" fill="#FAFAFA" width="1.7" height="1.7"/>
				<rect x="334.6" y="137.2" fill="#FAFAFA" width="1.7" height="1.7"/>
				<rect x="334.6" y="140.1" fill="#FAFAFA" width="1.7" height="1.7"/>
				<rect x="334.6" y="143" fill="#FAFAFA" width="1.7" height="1.7"/>
				<rect x="334.6" y="145.9" fill="#FAFAFA" width="1.7" height="1.7"/>
				<rect x="334.6" y="148.8" fill="#FAFAFA" width="1.7" height="1.7"/>
				<rect x="334.6" y="166.3" fill="#FAFAFA" width="1.7" height="1.7"/>
				<rect x="334.6" y="169.2" fill="#FAFAFA" width="1.7" height="1.7"/>
				<rect x="334.6" y="172.2" fill="#FAFAFA" width="1.7" height="1.7"/>
				<rect x="334.6" y="175.1" fill="#FAFAFA" width="1.7" height="1.7"/>
				<rect x="334.6" y="186.7" fill="#FAFAFA" width="1.7" height="1.7"/>
				<rect x="331.9" y="128.4" fill="#FAFAFA" width="1.7" height="1.7"/>
				<rect x="331.9" y="131.3" fill="#FAFAFA" width="1.7" height="1.7"/>
				<rect x="331.9" y="134.2" fill="#FAFAFA" width="1.7" height="1.7"/>
				<rect x="331.9" y="137.2" fill="#FAFAFA" width="1.7" height="1.7"/>
				<rect x="331.9" y="140.1" fill="#FAFAFA" width="1.7" height="1.7"/>
				<rect x="331.9" y="143" fill="#FAFAFA" width="1.7" height="1.7"/>
				<rect x="331.9" y="145.9" fill="#FAFAFA" width="1.7" height="1.7"/>
				<rect x="331.9" y="148.8" fill="#FAFAFA" width="1.7" height="1.7"/>
				<rect x="331.9" y="151.7" fill="#FAFAFA" width="1.7" height="1.7"/>
				<rect x="331.9" y="154.7" fill="#FAFAFA" width="1.7" height="1.7"/>
				<rect x="331.9" y="163.4" fill="#FAFAFA" width="1.7" height="1.7"/>
				<rect x="331.9" y="166.3" fill="#FAFAFA" width="1.7" height="1.7"/>
				<rect x="331.9" y="169.2" fill="#FAFAFA" width="1.7" height="1.7"/>
				<rect x="331.9" y="172.2" fill="#FAFAFA" width="1.7" height="1.7"/>
				<rect x="331.9" y="175.1" fill="#FAFAFA" width="1.7" height="1.7"/>
				<rect x="331.9" y="186.7" fill="#FAFAFA" width="1.7" height="1.7"/>
				<rect x="329.1" y="128.4" fill="#FAFAFA" width="1.7" height="1.7"/>
				<rect x="329.1" y="131.3" fill="#FAFAFA" width="1.7" height="1.7"/>
				<rect x="329.1" y="134.2" fill="#FAFAFA" width="1.7" height="1.7"/>
				<rect x="329.1" y="137.2" fill="#FAFAFA" width="1.7" height="1.7"/>
				<rect x="329.1" y="140.1" fill="#FAFAFA" width="1.7" height="1.7"/>
				<rect x="329.1" y="143" fill="#FAFAFA" width="1.7" height="1.7"/>
				<rect x="329.1" y="145.9" fill="#FAFAFA" width="1.7" height="1.7"/>
				<rect x="329.1" y="148.8" fill="#FAFAFA" width="1.7" height="1.7"/>
				<rect x="329.1" y="151.7" fill="#FAFAFA" width="1.7" height="1.7"/>
				<rect x="329.1" y="154.7" fill="#FAFAFA" width="1.7" height="1.7"/>
				<rect x="329.1" y="157.6" fill="#FAFAFA" width="1.7" height="1.7"/>
				<rect x="329.1" y="160.5" fill="#FAFAFA" width="1.7" height="1.7"/>
				<rect x="329.1" y="163.4" fill="#FAFAFA" width="1.7" height="1.7"/>
				<rect x="329.1" y="166.3" fill="#FAFAFA" width="1.7" height="1.7"/>
				<rect x="329.1" y="169.2" fill="#FAFAFA" width="1.7" height="1.7"/>
				<rect x="329.1" y="172.2" fill="#FAFAFA" width="1.7" height="1.7"/>
				<rect x="329.1" y="175.1" fill="#FAFAFA" width="1.7" height="1.7"/>
				<rect x="329.1" y="178" fill="#FAFAFA" width="1.7" height="1.7"/>
				<rect x="326.3" y="128.4" fill="#FAFAFA" width="1.7" height="1.7"/>
				<rect x="326.3" y="131.3" fill="#FAFAFA" width="1.7" height="1.7"/>
				<rect x="326.3" y="134.2" fill="#FAFAFA" width="1.7" height="1.7"/>
				<rect x="326.3" y="137.2" fill="#FAFAFA" width="1.7" height="1.7"/>
				<rect x="326.3" y="140.1" fill="#FAFAFA" width="1.7" height="1.7"/>
				<rect x="326.3" y="143" fill="#FAFAFA" width="1.7" height="1.7"/>
				<rect x="326.3" y="145.9" fill="#FAFAFA" width="1.7" height="1.7"/>
				<rect x="326.3" y="148.8" fill="#FAFAFA" width="1.7" height="1.7"/>
				<rect x="326.3" y="151.7" fill="#FAFAFA" width="1.7" height="1.7"/>
				<rect x="326.3" y="154.7" fill="#FAFAFA" width="1.7" height="1.7"/>
				<rect x="326.3" y="163.4" fill="#FAFAFA" width="1.7" height="1.7"/>
				<rect x="326.3" y="166.3" fill="#FAFAFA" width="1.7" height="1.7"/>
				<rect x="326.3" y="169.2" fill="#FAFAFA" width="1.7" height="1.7"/>
				<rect x="326.3" y="172.2" fill="#FAFAFA" width="1.7" height="1.7"/>
				<rect x="323.6" y="128.4" fill="#FAFAFA" width="1.7" height="1.7"/>
				<rect x="323.6" y="131.3" fill="#FAFAFA" width="1.7" height="1.7"/>
				<rect x="323.6" y="134.2" fill="#FAFAFA" width="1.7" height="1.7"/>
				<rect x="323.6" y="137.2" fill="#FAFAFA" width="1.7" height="1.7"/>
				<rect x="323.6" y="140.1" fill="#FAFAFA" width="1.7" height="1.7"/>
				<rect x="323.6" y="143" fill="#FAFAFA" width="1.7" height="1.7"/>
				<rect x="323.6" y="145.9" fill="#FAFAFA" width="1.7" height="1.7"/>
				<rect x="323.6" y="148.8" fill="#FAFAFA" width="1.7" height="1.7"/>
				<rect x="323.6" y="151.7" fill="#FAFAFA" width="1.7" height="1.7"/>
				<rect x="323.6" y="154.7" fill="#FAFAFA" width="1.7" height="1.7"/>
				<rect x="323.6" y="163.4" fill="#FAFAFA" width="1.7" height="1.7"/>
				<rect x="323.6" y="166.3" fill="#FAFAFA" width="1.7" height="1.7"/>
				<rect x="323.6" y="169.2" fill="#FAFAFA" width="1.7" height="1.7"/>
				<rect x="292.5" y="120.8" fill="#FAFAFA" width="1.7" height="1.7"/>
				<rect x="292.5" y="123.8" fill="#FAFAFA" width="1.7" height="1.7"/>
				<rect x="292.5" y="126.7" fill="#FAFAFA" width="1.7" height="1.7"/>
				<rect x="292.5" y="129.6" fill="#FAFAFA" width="1.7" height="1.7"/>
				<rect x="292.5" y="132.5" fill="#FAFAFA" width="1.7" height="1.7"/>
				<rect x="292.5" y="135.4" fill="#FAFAFA" width="1.7" height="1.7"/>
				<rect x="292.5" y="138.3" fill="#FAFAFA" width="1.7" height="1.7"/>
				<rect x="292.5" y="141.3" fill="#FAFAFA" width="1.7" height="1.7"/>
				<rect x="292.5" y="150" fill="#FAFAFA" width="1.7" height="1.7"/>
				<rect x="292.5" y="152.9" fill="#FAFAFA" width="1.7" height="1.7"/>
				<rect x="289.7" y="120.8" fill="#FAFAFA" width="1.7" height="1.7"/>
				<rect x="289.7" y="123.8" fill="#FAFAFA" width="1.7" height="1.7"/>
				<rect x="289.7" y="126.7" fill="#FAFAFA" width="1.7" height="1.7"/>
				<rect x="289.7" y="129.6" fill="#FAFAFA" width="1.7" height="1.7"/>
				<rect x="289.7" y="132.5" fill="#FAFAFA" width="1.7" height="1.7"/>
				<rect x="289.7" y="135.4" fill="#FAFAFA" width="1.7" height="1.7"/>
				<rect x="289.7" y="138.3" fill="#FAFAFA" width="1.7" height="1.7"/>
				<rect x="289.7" y="141.3" fill="#FAFAFA" width="1.7" height="1.7"/>
				<rect x="289.7" y="152.9" fill="#FAFAFA" width="1.7" height="1.7"/>
				<rect x="286.9" y="120.8" fill="#FAFAFA" width="1.7" height="1.7"/>
				<rect x="286.9" y="123.8" fill="#FAFAFA" width="1.7" height="1.7"/>
				<rect x="286.9" y="126.7" fill="#FAFAFA" width="1.7" height="1.7"/>
				<rect x="286.9" y="129.6" fill="#FAFAFA" width="1.7" height="1.7"/>
				<rect x="286.9" y="132.5" fill="#FAFAFA" width="1.7" height="1.7"/>
				<rect x="286.9" y="135.4" fill="#FAFAFA" width="1.7" height="1.7"/>
				<rect x="286.9" y="138.3" fill="#FAFAFA" width="1.7" height="1.7"/>
				<rect x="286.9" y="141.3" fill="#FAFAFA" width="1.7" height="1.7"/>
				<rect x="284.2" y="120.8" fill="#FAFAFA" width="1.7" height="1.7"/>
				<rect x="284.2" y="123.8" fill="#FAFAFA" width="1.7" height="1.7"/>
				<rect x="284.2" y="126.7" fill="#FAFAFA" width="1.7" height="1.7"/>
				<rect x="284.2" y="129.6" fill="#FAFAFA" width="1.7" height="1.7"/>
				<rect x="284.2" y="132.5" fill="#FAFAFA" width="1.7" height="1.7"/>
				<rect x="284.2" y="135.4" fill="#FAFAFA" width="1.7" height="1.7"/>
				<rect x="284.2" y="141.3" fill="#FAFAFA" width="1.7" height="1.7"/>
				<rect x="284.2" y="144.2" fill="#FAFAFA" width="1.7" height="1.7"/>
				<rect x="284.2" y="152.9" fill="#FAFAFA" width="1.7" height="1.7"/>
				<rect x="284.2" y="155.8" fill="#FAFAFA" width="1.7" height="1.7"/>
				<rect x="284.2" y="158.8" fill="#FAFAFA" width="1.7" height="1.7"/>
				<rect x="284.2" y="161.7" fill="#FAFAFA" width="1.7" height="1.7"/>
				<rect x="284.2" y="164.6" fill="#FAFAFA" width="1.7" height="1.7"/>
				<rect x="284.2" y="167.5" fill="#FAFAFA" width="1.7" height="1.7"/>
				<rect x="284.2" y="170.4" fill="#FAFAFA" width="1.7" height="1.7"/>
				<rect x="281.4" y="120.8" fill="#FAFAFA" width="1.7" height="1.7"/>
				<rect x="281.4" y="123.8" fill="#FAFAFA" width="1.7" height="1.7"/>
				<rect x="281.4" y="126.7" fill="#FAFAFA" width="1.7" height="1.7"/>
				<rect x="281.4" y="129.6" fill="#FAFAFA" width="1.7" height="1.7"/>
				<rect x="281.4" y="132.5" fill="#FAFAFA" width="1.7" height="1.7"/>
				<rect x="281.4" y="135.4" fill="#FAFAFA" width="1.7" height="1.7"/>
				<rect x="281.4" y="144.2" fill="#FAFAFA" width="1.7" height="1.7"/>
				<rect x="281.4" y="147.1" fill="#FAFAFA" width="1.7" height="1.7"/>
				<rect x="281.4" y="150" fill="#FAFAFA" width="1.7" height="1.7"/>
				<rect x="281.4" y="152.9" fill="#FAFAFA" width="1.7" height="1.7"/>
				<rect x="281.4" y="155.8" fill="#FAFAFA" width="1.7" height="1.7"/>
				<rect x="281.4" y="158.8" fill="#FAFAFA" width="1.7" height="1.7"/>
				<rect x="281.4" y="161.7" fill="#FAFAFA" width="1.7" height="1.7"/>
				<rect x="281.4" y="164.6" fill="#FAFAFA" width="1.7" height="1.7"/>
				<rect x="281.4" y="167.5" fill="#FAFAFA" width="1.7" height="1.7"/>
				<rect x="281.4" y="170.4" fill="#FAFAFA" width="1.7" height="1.7"/>
				<rect x="281.4" y="173.3" fill="#FAFAFA" width="1.7" height="1.7"/>
				<rect x="281.4" y="179.2" fill="#FAFAFA" width="1.7" height="1.7"/>
				<rect x="278.6" y="120.8" fill="#FAFAFA" width="1.7" height="1.7"/>
				<rect x="278.6" y="123.8" fill="#FAFAFA" width="1.7" height="1.7"/>
				<rect x="278.6" y="126.7" fill="#FAFAFA" width="1.7" height="1.7"/>
				<rect x="278.6" y="129.6" fill="#FAFAFA" width="1.7" height="1.7"/>
				<rect x="278.6" y="132.5" fill="#FAFAFA" width="1.7" height="1.7"/>
				<rect x="278.6" y="135.4" fill="#FAFAFA" width="1.7" height="1.7"/>
				<rect x="278.6" y="144.2" fill="#FAFAFA" width="1.7" height="1.7"/>
				<rect x="278.6" y="147.1" fill="#FAFAFA" width="1.7" height="1.7"/>
				<rect x="278.6" y="150" fill="#FAFAFA" width="1.7" height="1.7"/>
				<rect x="278.6" y="152.9" fill="#FAFAFA" width="1.7" height="1.7"/>
				<rect x="278.6" y="161.7" fill="#FAFAFA" width="1.7" height="1.7"/>
				<rect x="278.6" y="164.6" fill="#FAFAFA" width="1.7" height="1.7"/>
				<rect x="278.6" y="167.5" fill="#FAFAFA" width="1.7" height="1.7"/>
				<rect x="278.6" y="170.4" fill="#FAFAFA" width="1.7" height="1.7"/>
				<rect x="278.6" y="173.3" fill="#FAFAFA" width="1.7" height="1.7"/>
				<rect x="278.6" y="179.2" fill="#FAFAFA" width="1.7" height="1.7"/>
				<rect x="278.6" y="182.1" fill="#FAFAFA" width="1.7" height="1.7"/>
				<rect x="253.6" y="148" fill="#FAFAFA" width="1.7" height="1.7"/>
				<rect x="253.6" y="150.9" fill="#FAFAFA" width="1.7" height="1.7"/>
				<rect x="253.6" y="153.8" fill="#FAFAFA" width="1.7" height="1.7"/>
				<rect x="253.6" y="156.7" fill="#FAFAFA" width="1.7" height="1.7"/>
				<rect x="253.6" y="159.6" fill="#FAFAFA" width="1.7" height="1.7"/>
				<rect x="253.6" y="162.5" fill="#FAFAFA" width="1.7" height="1.7"/>
				<rect x="253.6" y="165.5" fill="#FAFAFA" width="1.7" height="1.7"/>
				<rect x="253.6" y="174.2" fill="#FAFAFA" width="1.7" height="1.7"/>
				<rect x="253.6" y="177.1" fill="#FAFAFA" width="1.7" height="1.7"/>
				<rect x="253.6" y="180" fill="#FAFAFA" width="1.7" height="1.7"/>
				<rect x="250.8" y="148" fill="#FAFAFA" width="1.7" height="1.7"/>
				<rect x="250.8" y="150.9" fill="#FAFAFA" width="1.7" height="1.7"/>
				<rect x="250.8" y="153.8" fill="#FAFAFA" width="1.7" height="1.7"/>
				<rect x="250.8" y="156.7" fill="#FAFAFA" width="1.7" height="1.7"/>
				<rect x="250.8" y="159.6" fill="#FAFAFA" width="1.7" height="1.7"/>
				<rect x="250.8" y="162.5" fill="#FAFAFA" width="1.7" height="1.7"/>
				<rect x="250.8" y="165.5" fill="#FAFAFA" width="1.7" height="1.7"/>
				<rect x="247.3" y="148" fill="#FAFAFA" width="2.5" height="1.7"/>
				<rect x="247.3" y="150.9" fill="#FAFAFA" width="2.5" height="1.7"/>
				<rect x="247.3" y="153.8" fill="#FAFAFA" width="2.5" height="1.7"/>
				<rect x="247.3" y="156.7" fill="#FAFAFA" width="2.5" height="1.7"/>
				<rect x="247.3" y="159.6" fill="#FAFAFA" width="2.5" height="1.7"/>
				<rect x="247.3" y="162.5" fill="#FAFAFA" width="2.5" height="1.7"/>
				<rect x="247.3" y="165.5" fill="#FAFAFA" width="2.5" height="1.7"/>
				<rect x="400" y="151.7" fill="#FAFAFA" width="1.7" height="1.7"/>
				<rect x="400" y="154.7" fill="#FAFAFA" width="1.7" height="1.7"/>
				<rect x="400" y="157.6" fill="#FAFAFA" width="1.7" height="1.7"/>
				<rect x="400" y="160.5" fill="#FAFAFA" width="1.7" height="1.7"/>
				<rect x="400" y="163.4" fill="#FAFAFA" width="1.7" height="1.7"/>
				<rect x="400" y="166.3" fill="#FAFAFA" width="1.7" height="1.7"/>
				<rect x="400" y="169.2" fill="#FAFAFA" width="1.7" height="1.7"/>
				<rect x="400" y="172.2" fill="#FAFAFA" width="1.7" height="1.7"/>
				<rect x="400" y="175.1" fill="#FAFAFA" width="1.7" height="1.7"/>
				<rect x="400" y="178" fill="#FAFAFA" width="1.7" height="1.7"/>
				<rect x="400" y="180.9" fill="#FAFAFA" width="1.7" height="1.7"/>
				<rect x="400" y="183.8" fill="#FAFAFA" width="1.7" height="1.7"/>
				<rect x="400" y="186.7" fill="#FAFAFA" width="1.7" height="1.7"/>
				<rect x="400" y="189.7" fill="#FAFAFA" width="1.7" height="1.7"/>
				<rect x="400" y="192.6" fill="#FAFAFA" width="1.7" height="1.7"/>
				<rect x="400" y="195.5" fill="#FAFAFA" width="1.7" height="1.7"/>
				<rect x="400" y="198.4" fill="#FAFAFA" width="1.7" height="1.7"/>
				<rect x="400" y="201.3" fill="#FAFAFA" width="1.7" height="1.7"/>
				<rect x="400" y="204.2" fill="#FAFAFA" width="1.7" height="1.7"/>
				<rect x="400" y="207.1" fill="#FAFAFA" width="1.7" height="1.7"/>
				<rect x="397.2" y="151.7" fill="#FAFAFA" width="1.7" height="1.7"/>
				<rect x="397.2" y="154.7" fill="#FAFAFA" width="1.7" height="1.7"/>
				<rect x="397.2" y="157.6" fill="#FAFAFA" width="1.7" height="1.7"/>
				<rect x="397.2" y="160.5" fill="#FAFAFA" width="1.7" height="1.7"/>
				<rect x="397.2" y="163.4" fill="#FAFAFA" width="1.7" height="1.7"/>
				<rect x="397.2" y="166.3" fill="#FAFAFA" width="1.7" height="1.7"/>
				<rect x="397.2" y="169.2" fill="#FAFAFA" width="1.7" height="1.7"/>
				<rect x="397.2" y="172.2" fill="#FAFAFA" width="1.7" height="1.7"/>
				<rect x="397.2" y="175.1" fill="#FAFAFA" width="1.7" height="1.7"/>
				<rect x="397.2" y="178" fill="#FAFAFA" width="1.7" height="1.7"/>
				<rect x="397.2" y="180.9" fill="#FAFAFA" width="1.7" height="1.7"/>
				<rect x="397.2" y="183.8" fill="#FAFAFA" width="1.7" height="1.7"/>
				<rect x="397.2" y="186.7" fill="#FAFAFA" width="1.7" height="1.7"/>
				<rect x="397.2" y="189.7" fill="#FAFAFA" width="1.7" height="1.7"/>
				<rect x="397.2" y="192.6" fill="#FAFAFA" width="1.7" height="1.7"/>
				<rect x="397.2" y="195.5" fill="#FAFAFA" width="1.7" height="1.7"/>
				<rect x="397.2" y="198.4" fill="#FAFAFA" width="1.7" height="1.7"/>
				<rect x="397.2" y="201.3" fill="#FAFAFA" width="1.7" height="1.7"/>
				<rect x="394.5" y="151.7" fill="#FAFAFA" width="1.7" height="1.7"/>
				<rect x="394.5" y="154.7" fill="#FAFAFA" width="1.7" height="1.7"/>
				<rect x="394.5" y="157.6" fill="#FAFAFA" width="1.7" height="1.7"/>
				<rect x="394.5" y="160.5" fill="#FAFAFA" width="1.7" height="1.7"/>
				<rect x="394.5" y="163.4" fill="#FAFAFA" width="1.7" height="1.7"/>
				<rect x="394.5" y="166.3" fill="#FAFAFA" width="1.7" height="1.7"/>
				<rect x="394.5" y="169.2" fill="#FAFAFA" width="1.7" height="1.7"/>
				<rect x="394.5" y="172.2" fill="#FAFAFA" width="1.7" height="1.7"/>
				<rect x="394.5" y="175.1" fill="#FAFAFA" width="1.7" height="1.7"/>
				<rect x="394.5" y="178" fill="#FAFAFA" width="1.7" height="1.7"/>
				<rect x="394.5" y="180.9" fill="#FAFAFA" width="1.7" height="1.7"/>
				<rect x="394.5" y="183.8" fill="#FAFAFA" width="1.7" height="1.7"/>
				<rect x="394.5" y="186.7" fill="#FAFAFA" width="1.7" height="1.7"/>
				<rect x="394.5" y="189.7" fill="#FAFAFA" width="1.7" height="1.7"/>
				<rect x="394.5" y="192.6" fill="#FAFAFA" width="1.7" height="1.7"/>
				<rect x="394.5" y="195.5" fill="#FAFAFA" width="1.7" height="1.7"/>
				<rect x="394.5" y="198.4" fill="#FAFAFA" width="1.7" height="1.7"/>
				<rect x="394.5" y="201.3" fill="#FAFAFA" width="1.7" height="1.7"/>
				<rect x="410.3" y="173" fill="#FAFAFA" width="1.7" height="1.7"/>
				<rect x="410.3" y="175.9" fill="#FAFAFA" width="1.7" height="1.7"/>
				<rect x="410.3" y="178.9" fill="#FAFAFA" width="1.7" height="1.7"/>
				<rect x="410.3" y="181.8" fill="#FAFAFA" width="1.7" height="1.7"/>
				<rect x="410.3" y="184.7" fill="#FAFAFA" width="1.7" height="1.7"/>
				<rect x="410.3" y="187.6" fill="#FAFAFA" width="1.7" height="1.7"/>
				<rect x="410.3" y="190.5" fill="#FAFAFA" width="1.7" height="1.7"/>
				<rect x="410.3" y="193.4" fill="#FAFAFA" width="1.7" height="1.7"/>
				<rect x="410.3" y="196.4" fill="#FAFAFA" width="1.7" height="1.7"/>
				<rect x="410.3" y="199.3" fill="#FAFAFA" width="1.7" height="1.7"/>
				<rect x="410.3" y="202.2" fill="#FAFAFA" width="1.7" height="1.7"/>
				<rect x="410.3" y="205.1" fill="#FAFAFA" width="1.7" height="1.7"/>
				<rect x="410.3" y="208" fill="#FAFAFA" width="1.7" height="1.7"/>
				<rect x="407.6" y="173" fill="#FAFAFA" width="1.7" height="1.7"/>
				<rect x="407.6" y="175.9" fill="#FAFAFA" width="1.7" height="1.7"/>
				<rect x="407.6" y="178.9" fill="#FAFAFA" width="1.7" height="1.7"/>
				<rect x="407.6" y="181.8" fill="#FAFAFA" width="1.7" height="1.7"/>
				<rect x="407.6" y="184.7" fill="#FAFAFA" width="1.7" height="1.7"/>
				<rect x="407.6" y="187.6" fill="#FAFAFA" width="1.7" height="1.7"/>
				<rect x="407.6" y="190.5" fill="#FAFAFA" width="1.7" height="1.7"/>
				<rect x="407.6" y="193.4" fill="#FAFAFA" width="1.7" height="1.7"/>
				<rect x="407.6" y="196.4" fill="#FAFAFA" width="1.7" height="1.7"/>
				<rect x="407.6" y="199.3" fill="#FAFAFA" width="1.7" height="1.7"/>
				<rect x="407.6" y="202.2" fill="#FAFAFA" width="1.7" height="1.7"/>
				<rect x="407.6" y="205.1" fill="#FAFAFA" width="1.7" height="1.7"/>
				<rect x="407.6" y="208" fill="#FAFAFA" width="1.7" height="1.7"/>
				<rect x="404.8" y="173" fill="#FAFAFA" width="1.7" height="1.7"/>
				<rect x="404.8" y="175.9" fill="#FAFAFA" width="1.7" height="1.7"/>
				<rect x="404.8" y="178.9" fill="#FAFAFA" width="1.7" height="1.7"/>
				<rect x="404.8" y="181.8" fill="#FAFAFA" width="1.7" height="1.7"/>
				<rect x="404.8" y="184.7" fill="#FAFAFA" width="1.7" height="1.7"/>
				<rect x="404.8" y="187.6" fill="#FAFAFA" width="1.7" height="1.7"/>
				<rect x="404.8" y="190.5" fill="#FAFAFA" width="1.7" height="1.7"/>
				<rect x="404.8" y="193.4" fill="#FAFAFA" width="1.7" height="1.7"/>
				<rect x="404.8" y="196.4" fill="#FAFAFA" width="1.7" height="1.7"/>
				<rect x="404.8" y="199.3" fill="#FAFAFA" width="1.7" height="1.7"/>
				<rect x="404.8" y="202.2" fill="#FAFAFA" width="1.7" height="1.7"/>
				<rect x="404.8" y="205.1" fill="#FAFAFA" width="1.7" height="1.7"/>
				<rect x="404.8" y="208" fill="#FAFAFA" width="1.7" height="1.7"/>
				<rect x="404.8" y="210.9" fill="#FAFAFA" width="1.7" height="1.7"/>
				<rect x="389.5" y="173.9" fill="#FAFAFA" width="1.7" height="1.7"/>
				<rect x="389.5" y="176.8" fill="#FAFAFA" width="1.7" height="1.7"/>
				<rect x="389.5" y="179.7" fill="#FAFAFA" width="1.7" height="1.7"/>
				<rect x="389.5" y="182.6" fill="#FAFAFA" width="1.7" height="1.7"/>
				<rect x="389.5" y="185.6" fill="#FAFAFA" width="1.7" height="1.7"/>
				<rect x="389.5" y="188.5" fill="#FAFAFA" width="1.7" height="1.7"/>
				<rect x="389.5" y="191.4" fill="#FAFAFA" width="1.7" height="1.7"/>
				<rect x="389.5" y="194.3" fill="#FAFAFA" width="1.7" height="1.7"/>
				<rect x="389.5" y="197.2" fill="#FAFAFA" width="1.7" height="1.7"/>
				<rect x="389.5" y="200.1" fill="#FAFAFA" width="1.7" height="1.7"/>
				<rect x="389.5" y="208.9" fill="#FAFAFA" width="1.7" height="1.7"/>
				<rect x="386.7" y="173.9" fill="#FAFAFA" width="1.7" height="1.7"/>
				<rect x="386.7" y="176.8" fill="#FAFAFA" width="1.7" height="1.7"/>
				<rect x="386.7" y="179.7" fill="#FAFAFA" width="1.7" height="1.7"/>
				<rect x="386.7" y="182.6" fill="#FAFAFA" width="1.7" height="1.7"/>
				<rect x="386.7" y="185.6" fill="#FAFAFA" width="1.7" height="1.7"/>
				<rect x="386.7" y="188.5" fill="#FAFAFA" width="1.7" height="1.7"/>
				<rect x="386.7" y="191.4" fill="#FAFAFA" width="1.7" height="1.7"/>
				<rect x="386.7" y="194.3" fill="#FAFAFA" width="1.7" height="1.7"/>
				<rect x="386.7" y="197.2" fill="#FAFAFA" width="1.7" height="1.7"/>
				<rect x="386.7" y="206" fill="#FAFAFA" width="1.7" height="1.7"/>
				<rect x="386.7" y="208.9" fill="#FAFAFA" width="1.7" height="1.7"/>
				<rect x="383.9" y="173.9" fill="#FAFAFA" width="1.7" height="1.7"/>
				<rect x="383.9" y="176.8" fill="#FAFAFA" width="1.7" height="1.7"/>
				<rect x="383.9" y="179.7" fill="#FAFAFA" width="1.7" height="1.7"/>
				<rect x="383.9" y="182.6" fill="#FAFAFA" width="1.7" height="1.7"/>
				<rect x="383.9" y="185.6" fill="#FAFAFA" width="1.7" height="1.7"/>
				<rect x="383.9" y="188.5" fill="#FAFAFA" width="1.7" height="1.7"/>
				<rect x="383.9" y="191.4" fill="#FAFAFA" width="1.7" height="1.7"/>
				<rect x="383.9" y="194.3" fill="#FAFAFA" width="1.7" height="1.7"/>
				<rect x="383.9" y="203.1" fill="#FAFAFA" width="1.7" height="1.7"/>
				<rect x="383.9" y="206" fill="#FAFAFA" width="1.7" height="1.7"/>
				<rect x="383.9" y="208.9" fill="#FAFAFA" width="1.7" height="1.7"/>
				<rect x="358.2" y="129.6" fill="#FAFAFA" width="1.7" height="1.7"/>
				<rect x="358.2" y="132.5" fill="#FAFAFA" width="1.7" height="1.7"/>
				<rect x="358.2" y="135.4" fill="#FAFAFA" width="1.7" height="1.7"/>
				<rect x="358.2" y="138.3" fill="#FAFAFA" width="1.7" height="1.7"/>
				<rect x="358.2" y="141.3" fill="#FAFAFA" width="1.7" height="1.7"/>
				<rect x="358.2" y="144.2" fill="#FAFAFA" width="1.7" height="1.7"/>
				<rect x="358.2" y="147.1" fill="#FAFAFA" width="1.7" height="1.7"/>
				<rect x="358.2" y="150" fill="#FAFAFA" width="1.7" height="1.7"/>
				<rect x="358.2" y="152.9" fill="#FAFAFA" width="1.7" height="1.7"/>
				<rect x="358.2" y="155.8" fill="#FAFAFA" width="1.7" height="1.7"/>
				<rect x="358.2" y="158.8" fill="#FAFAFA" width="1.7" height="1.7"/>
				<rect x="358.2" y="161.7" fill="#FAFAFA" width="1.7" height="1.7"/>
				<rect x="358.2" y="164.6" fill="#FAFAFA" width="1.7" height="1.7"/>
				<rect x="358.2" y="167.5" fill="#FAFAFA" width="1.7" height="1.7"/>
				<rect x="358.2" y="170.4" fill="#FAFAFA" width="1.7" height="1.7"/>
				<rect x="358.2" y="173.3" fill="#FAFAFA" width="1.7" height="1.7"/>
				<rect x="358.2" y="176.2" fill="#FAFAFA" width="1.7" height="1.7"/>
				<rect x="358.2" y="182.1" fill="#FAFAFA" width="1.7" height="1.7"/>
				<rect x="358.2" y="185" fill="#FAFAFA" width="1.7" height="1.7"/>
				<rect x="358.2" y="187.9" fill="#FAFAFA" width="1.7" height="1.7"/>
				<rect x="358.2" y="190.8" fill="#FAFAFA" width="1.7" height="1.7"/>
				<rect x="358.2" y="193.7" fill="#FAFAFA" width="1.7" height="1.7"/>
				<rect x="355.5" y="129.6" fill="#FAFAFA" width="1.7" height="1.7"/>
				<rect x="355.5" y="132.5" fill="#FAFAFA" width="1.7" height="1.7"/>
				<rect x="355.5" y="135.4" fill="#FAFAFA" width="1.7" height="1.7"/>
				<rect x="355.5" y="138.3" fill="#FAFAFA" width="1.7" height="1.7"/>
				<rect x="355.5" y="141.3" fill="#FAFAFA" width="1.7" height="1.7"/>
				<rect x="355.5" y="144.2" fill="#FAFAFA" width="1.7" height="1.7"/>
				<rect x="355.5" y="147.1" fill="#FAFAFA" width="1.7" height="1.7"/>
				<rect x="355.5" y="150" fill="#FAFAFA" width="1.7" height="1.7"/>
				<rect x="355.5" y="152.9" fill="#FAFAFA" width="1.7" height="1.7"/>
				<rect x="355.5" y="155.8" fill="#FAFAFA" width="1.7" height="1.7"/>
				<rect x="355.5" y="158.8" fill="#FAFAFA" width="1.7" height="1.7"/>
				<rect x="355.5" y="161.7" fill="#FAFAFA" width="1.7" height="1.7"/>
				<rect x="355.5" y="164.6" fill="#FAFAFA" width="1.7" height="1.7"/>
				<rect x="355.5" y="167.5" fill="#FAFAFA" width="1.7" height="1.7"/>
				<rect x="355.5" y="170.4" fill="#FAFAFA" width="1.7" height="1.7"/>
				<rect x="355.5" y="173.3" fill="#FAFAFA" width="1.7" height="1.7"/>
				<rect x="355.5" y="190.8" fill="#FAFAFA" width="1.7" height="1.7"/>
				<rect x="355.5" y="193.7" fill="#FAFAFA" width="1.7" height="1.7"/>
				<rect x="352.7" y="129.6" fill="#FAFAFA" width="1.7" height="1.7"/>
				<rect x="352.7" y="132.5" fill="#FAFAFA" width="1.7" height="1.7"/>
				<rect x="352.7" y="135.4" fill="#FAFAFA" width="1.7" height="1.7"/>
				<rect x="352.7" y="138.3" fill="#FAFAFA" width="1.7" height="1.7"/>
				<rect x="352.7" y="141.3" fill="#FAFAFA" width="1.7" height="1.7"/>
				<rect x="352.7" y="144.2" fill="#FAFAFA" width="1.7" height="1.7"/>
				<rect x="352.7" y="147.1" fill="#FAFAFA" width="1.7" height="1.7"/>
				<rect x="352.7" y="150" fill="#FAFAFA" width="1.7" height="1.7"/>
				<rect x="352.7" y="152.9" fill="#FAFAFA" width="1.7" height="1.7"/>
				<rect x="352.7" y="155.8" fill="#FAFAFA" width="1.7" height="1.7"/>
				<rect x="352.7" y="158.8" fill="#FAFAFA" width="1.7" height="1.7"/>
				<rect x="352.7" y="161.7" fill="#FAFAFA" width="1.7" height="1.7"/>
				<rect x="352.7" y="164.6" fill="#FAFAFA" width="1.7" height="1.7"/>
				<rect x="352.7" y="167.5" fill="#FAFAFA" width="1.7" height="1.7"/>
				<rect x="352.7" y="170.4" fill="#FAFAFA" width="1.7" height="1.7"/>
				<rect x="352.7" y="173.3" fill="#FAFAFA" width="1.7" height="1.7"/>
				<rect x="352.7" y="179.2" fill="#FAFAFA" width="1.7" height="1.7"/>
				<rect x="352.7" y="182.1" fill="#FAFAFA" width="1.7" height="1.7"/>
				<rect x="352.7" y="185" fill="#FAFAFA" width="1.7" height="1.7"/>
				<rect x="352.7" y="187.9" fill="#FAFAFA" width="1.7" height="1.7"/>
				<rect x="352.7" y="193.7" fill="#FAFAFA" width="1.7" height="1.7"/>
				<rect x="368.3" y="166.3" fill="#FAFAFA" width="1.7" height="1.7"/>
				<rect x="368.3" y="169.2" fill="#FAFAFA" width="1.7" height="1.7"/>
				<rect x="368.3" y="172.2" fill="#FAFAFA" width="1.7" height="1.7"/>
				<rect x="368.3" y="175.1" fill="#FAFAFA" width="1.7" height="1.7"/>
				<rect x="368.3" y="178" fill="#FAFAFA" width="1.7" height="1.7"/>
				<rect x="368.3" y="180.9" fill="#FAFAFA" width="1.7" height="1.7"/>
				<rect x="368.3" y="183.8" fill="#FAFAFA" width="1.7" height="1.7"/>
				<rect x="368.3" y="189.7" fill="#FAFAFA" width="1.7" height="1.7"/>
				<rect x="368.3" y="192.6" fill="#FAFAFA" width="1.7" height="1.7"/>
				<rect x="368.3" y="195.5" fill="#FAFAFA" width="1.7" height="1.7"/>
				<rect x="368.3" y="198.4" fill="#FAFAFA" width="1.7" height="1.7"/>
				<rect x="368.3" y="201.3" fill="#FAFAFA" width="1.7" height="1.7"/>
				<rect x="368.3" y="204.2" fill="#FAFAFA" width="1.7" height="1.7"/>
				<rect x="368.3" y="207.1" fill="#FAFAFA" width="1.7" height="1.7"/>
				<rect x="368.3" y="210.1" fill="#FAFAFA" width="1.7" height="1.7"/>
				<rect x="365.5" y="166.3" fill="#FAFAFA" width="1.7" height="1.7"/>
				<rect x="365.5" y="169.2" fill="#FAFAFA" width="1.7" height="1.7"/>
				<rect x="365.5" y="172.2" fill="#FAFAFA" width="1.7" height="1.7"/>
				<rect x="365.5" y="175.1" fill="#FAFAFA" width="1.7" height="1.7"/>
				<rect x="365.5" y="178" fill="#FAFAFA" width="1.7" height="1.7"/>
				<rect x="365.5" y="180.9" fill="#FAFAFA" width="1.7" height="1.7"/>
				<rect x="365.5" y="189.7" fill="#FAFAFA" width="1.7" height="1.7"/>
				<rect x="365.5" y="192.6" fill="#FAFAFA" width="1.7" height="1.7"/>
				<rect x="365.5" y="195.5" fill="#FAFAFA" width="1.7" height="1.7"/>
				<rect x="365.5" y="198.4" fill="#FAFAFA" width="1.7" height="1.7"/>
				<rect x="365.5" y="201.3" fill="#FAFAFA" width="1.7" height="1.7"/>
				<rect x="365.5" y="204.2" fill="#FAFAFA" width="1.7" height="1.7"/>
				<rect x="365.5" y="207.1" fill="#FAFAFA" width="1.7" height="1.7"/>
				<rect x="365.5" y="210.1" fill="#FAFAFA" width="1.7" height="1.7"/>
				<rect x="362.8" y="166.3" fill="#FAFAFA" width="1.7" height="1.7"/>
				<rect x="362.8" y="169.2" fill="#FAFAFA" width="1.7" height="1.7"/>
				<rect x="362.8" y="172.2" fill="#FAFAFA" width="1.7" height="1.7"/>
				<rect x="362.8" y="175.1" fill="#FAFAFA" width="1.7" height="1.7"/>
				<rect x="362.8" y="178" fill="#FAFAFA" width="1.7" height="1.7"/>
				<rect x="362.8" y="180.9" fill="#FAFAFA" width="1.7" height="1.7"/>
				<rect x="362.8" y="186.7" fill="#FAFAFA" width="1.7" height="1.7"/>
				<rect x="362.8" y="189.7" fill="#FAFAFA" width="1.7" height="1.7"/>
				<rect x="362.8" y="192.6" fill="#FAFAFA" width="1.7" height="1.7"/>
				<rect x="362.8" y="195.5" fill="#FAFAFA" width="1.7" height="1.7"/>
				<rect x="362.8" y="198.4" fill="#FAFAFA" width="1.7" height="1.7"/>
				<rect x="362.8" y="201.3" fill="#FAFAFA" width="1.7" height="1.7"/>
				<rect x="362.8" y="204.2" fill="#FAFAFA" width="1.7" height="1.7"/>
				<rect x="362.8" y="207.1" fill="#FAFAFA" width="1.7" height="1.7"/>
				<rect x="362.8" y="210.1" fill="#FAFAFA" width="1.7" height="1.7"/>
				<rect x="304.5" y="150" fill="#FAFAFA" width="1.7" height="1.7"/>
				<rect x="304.5" y="152.9" fill="#FAFAFA" width="1.7" height="1.7"/>
				<rect x="304.5" y="155.8" fill="#FAFAFA" width="1.7" height="1.7"/>
				<rect x="304.5" y="158.8" fill="#FAFAFA" width="1.7" height="1.7"/>
				<rect x="304.5" y="161.7" fill="#FAFAFA" width="1.7" height="1.7"/>
				<rect x="304.5" y="164.6" fill="#FAFAFA" width="1.7" height="1.7"/>
				<rect x="304.5" y="167.5" fill="#FAFAFA" width="1.7" height="1.7"/>
				<rect x="304.5" y="170.4" fill="#FAFAFA" width="1.7" height="1.7"/>
				<rect x="304.5" y="173.3" fill="#FAFAFA" width="1.7" height="1.7"/>
				<rect x="304.5" y="176.2" fill="#FAFAFA" width="1.7" height="1.7"/>
				<rect x="304.5" y="179.2" fill="#FAFAFA" width="1.7" height="1.7"/>
				<rect x="304.5" y="182.1" fill="#FAFAFA" width="1.7" height="1.7"/>
				<rect x="304.5" y="185" fill="#FAFAFA" width="1.7" height="1.7"/>
				<rect x="304.5" y="190.8" fill="#FAFAFA" width="1.7" height="1.7"/>
				<rect x="304.5" y="193.7" fill="#FAFAFA" width="1.7" height="1.7"/>
				<rect x="304.5" y="196.7" fill="#FAFAFA" width="1.7" height="1.7"/>
				<rect x="304.5" y="199.6" fill="#FAFAFA" width="1.7" height="1.7"/>
				<rect x="304.5" y="205.4" fill="#FAFAFA" width="1.7" height="1.7"/>
				<rect x="304.5" y="208.3" fill="#FAFAFA" width="1.7" height="1.7"/>
				<rect x="304.5" y="211.2" fill="#FAFAFA" width="1.7" height="1.7"/>
				<rect x="301.8" y="150" fill="#FAFAFA" width="1.7" height="1.7"/>
				<rect x="301.8" y="152.9" fill="#FAFAFA" width="1.7" height="1.7"/>
				<rect x="301.8" y="155.8" fill="#FAFAFA" width="1.7" height="1.7"/>
				<rect x="301.8" y="158.8" fill="#FAFAFA" width="1.7" height="1.7"/>
				<rect x="301.8" y="161.7" fill="#FAFAFA" width="1.7" height="1.7"/>
				<rect x="301.8" y="164.6" fill="#FAFAFA" width="1.7" height="1.7"/>
				<rect x="301.8" y="167.5" fill="#FAFAFA" width="1.7" height="1.7"/>
				<rect x="301.8" y="170.4" fill="#FAFAFA" width="1.7" height="1.7"/>
				<rect x="301.8" y="173.3" fill="#FAFAFA" width="1.7" height="1.7"/>
				<rect x="301.8" y="176.2" fill="#FAFAFA" width="1.7" height="1.7"/>
				<rect x="301.8" y="179.2" fill="#FAFAFA" width="1.7" height="1.7"/>
				<rect x="301.8" y="182.1" fill="#FAFAFA" width="1.7" height="1.7"/>
				<rect x="301.8" y="185" fill="#FAFAFA" width="1.7" height="1.7"/>
				<rect x="301.8" y="193.7" fill="#FAFAFA" width="1.7" height="1.7"/>
				<rect x="301.8" y="196.7" fill="#FAFAFA" width="1.7" height="1.7"/>
				<rect x="301.8" y="202.5" fill="#FAFAFA" width="1.7" height="1.7"/>
				<rect x="301.8" y="205.4" fill="#FAFAFA" width="1.7" height="1.7"/>
				<rect x="301.8" y="208.3" fill="#FAFAFA" width="1.7" height="1.7"/>
				<rect x="301.8" y="211.2" fill="#FAFAFA" width="1.7" height="1.7"/>
				<rect x="299" y="150" fill="#FAFAFA" width="1.7" height="1.7"/>
				<rect x="299" y="152.9" fill="#FAFAFA" width="1.7" height="1.7"/>
				<rect x="299" y="155.8" fill="#FAFAFA" width="1.7" height="1.7"/>
				<rect x="299" y="158.8" fill="#FAFAFA" width="1.7" height="1.7"/>
				<rect x="299" y="161.7" fill="#FAFAFA" width="1.7" height="1.7"/>
				<rect x="299" y="164.6" fill="#FAFAFA" width="1.7" height="1.7"/>
				<rect x="299" y="167.5" fill="#FAFAFA" width="1.7" height="1.7"/>
				<rect x="299" y="170.4" fill="#FAFAFA" width="1.7" height="1.7"/>
				<rect x="299" y="173.3" fill="#FAFAFA" width="1.7" height="1.7"/>
				<rect x="299" y="176.2" fill="#FAFAFA" width="1.7" height="1.7"/>
				<rect x="299" y="179.2" fill="#FAFAFA" width="1.7" height="1.7"/>
				<rect x="299" y="182.1" fill="#FAFAFA" width="1.7" height="1.7"/>
				<rect x="299" y="185" fill="#FAFAFA" width="1.7" height="1.7"/>
				<rect x="299" y="187.9" fill="#FAFAFA" width="1.7" height="1.7"/>
				<rect x="299" y="193.7" fill="#FAFAFA" width="1.7" height="1.7"/>
				<rect x="299" y="199.6" fill="#FAFAFA" width="1.7" height="1.7"/>
				<rect x="299" y="202.5" fill="#FAFAFA" width="1.7" height="1.7"/>
				<rect x="299" y="205.4" fill="#FAFAFA" width="1.7" height="1.7"/>
				<rect x="299" y="208.3" fill="#FAFAFA" width="1.7" height="1.7"/>
				<rect x="299" y="211.2" fill="#FAFAFA" width="1.7" height="1.7"/>
				<rect x="315.8" y="166.6" fill="#FAFAFA" width="1.7" height="1.7"/>
				<rect x="315.8" y="169.5" fill="#FAFAFA" width="1.7" height="1.7"/>
				<rect x="315.8" y="172.5" fill="#FAFAFA" width="1.7" height="1.7"/>
				<rect x="315.8" y="175.4" fill="#FAFAFA" width="1.7" height="1.7"/>
				<rect x="315.8" y="178.3" fill="#FAFAFA" width="1.7" height="1.7"/>
				<rect x="315.8" y="181.2" fill="#FAFAFA" width="1.7" height="1.7"/>
				<rect x="315.8" y="190" fill="#FAFAFA" width="1.7" height="1.7"/>
				<rect x="315.8" y="192.9" fill="#FAFAFA" width="1.7" height="1.7"/>
				<rect x="315.8" y="195.8" fill="#FAFAFA" width="1.7" height="1.7"/>
				<rect x="315.8" y="198.7" fill="#FAFAFA" width="1.7" height="1.7"/>
				<rect x="315.8" y="201.6" fill="#FAFAFA" width="1.7" height="1.7"/>
				<rect x="315.8" y="204.5" fill="#FAFAFA" width="1.7" height="1.7"/>
				<rect x="315.8" y="207.5" fill="#FAFAFA" width="1.7" height="1.7"/>
				<rect x="313" y="166.6" fill="#FAFAFA" width="1.7" height="1.7"/>
				<rect x="313" y="169.5" fill="#FAFAFA" width="1.7" height="1.7"/>
				<rect x="313" y="172.5" fill="#FAFAFA" width="1.7" height="1.7"/>
				<rect x="313" y="175.4" fill="#FAFAFA" width="1.7" height="1.7"/>
				<rect x="313" y="178.3" fill="#FAFAFA" width="1.7" height="1.7"/>
				<rect x="313" y="181.2" fill="#FAFAFA" width="1.7" height="1.7"/>
				<rect x="313" y="190" fill="#FAFAFA" width="1.7" height="1.7"/>
				<rect x="313" y="192.9" fill="#FAFAFA" width="1.7" height="1.7"/>
				<rect x="313" y="195.8" fill="#FAFAFA" width="1.7" height="1.7"/>
				<rect x="313" y="198.7" fill="#FAFAFA" width="1.7" height="1.7"/>
				<rect x="313" y="201.6" fill="#FAFAFA" width="1.7" height="1.7"/>
				<rect x="313" y="204.5" fill="#FAFAFA" width="1.7" height="1.7"/>
				<rect x="313" y="210.4" fill="#FAFAFA" width="1.7" height="1.7"/>
			</g>
		</g>
		<g>
			<rect x="246.8" y="71.3" fill="#EBEBEB" width="3.5" height="189.5"/>
			<rect x="302.3" y="71.3" fill="#EBEBEB" width="2.9" height="189.5"/>
			<rect x="357.2" y="71.3" fill="#EBEBEB" width="2.9" height="189.5"/>
		</g>
	</g>
	<g>
		<circle fill="#E0E0E0" cx="142.7" cy="43.2" r="14.2"/>
		<circle fill="#F0F0F0" cx="142.7" cy="43.2" r="12"/>
		<g>
			<polyline fill="#F0F0F0" points="143.3,34.9 143.3,43.3 148.9,40.2 			"/>
			<path fill="#E0E0E0" d="M143.3,44.3c-0.2,0-0.3,0-0.5-0.1c-0.3-0.2-0.5-0.5-0.5-0.9v-8.4c0-0.6,0.4-1,1-1c0.6,0,1,0.4,1,1v6.7
				l4.1-2.3c0.5-0.3,1.1-0.1,1.4,0.4c0.3,0.5,0.1,1.1-0.4,1.4l-5.6,3.2C143.6,44.3,143.5,44.3,143.3,44.3z"/>
		</g>
	</g>
	<g>
		<rect x="79.5" y="144" fill="#E0E0E0" width="22.5" height="189"/>
		<rect x="99.5" y="144" fill="#EBEBEB" width="63.2" height="189"/>
		<rect x="106" y="150.4" fill="#FAFAFA" width="50.3" height="50.3"/>
		<path fill="#E0E0E0" d="M144.7,180h-27.2c-0.8,0-1.4-0.6-1.4-1.4l0,0c0-0.8,0.6-1.4,1.4-1.4h27.2c0.8,0,1.4,0.6,1.4,1.4l0,0
			C146.1,179.4,145.5,180,144.7,180z"/>
		<path fill="#E0E0E0" d="M144.7,185.5h-27.2c-0.8,0-1.4-0.6-1.4-1.4l0,0c0-0.8,0.6-1.4,1.4-1.4h27.2c0.8,0,1.4,0.6,1.4,1.4l0,0
			C146.1,184.9,145.5,185.5,144.7,185.5z"/>
		<path fill="#E0E0E0" d="M144.7,191.1h-27.2c-0.8,0-1.4-0.6-1.4-1.4l0,0c0-0.8,0.6-1.4,1.4-1.4h27.2c0.8,0,1.4,0.6,1.4,1.4l0,0
			C146.1,190.4,145.5,191.1,144.7,191.1z"/>
		<polygon fill="#EBEBEB" points="136.5,169.8 125.8,169.8 122.9,167 122.9,160.9 125.8,158.1 136.5,158.1 139.3,160.9 139.3,167 		
			"/>
		<rect x="106" y="205.5" fill="#FAFAFA" width="50.3" height="50.3"/>
		<path fill="#E0E0E0" d="M144.7,235.1h-27.2c-0.8,0-1.4-0.6-1.4-1.4l0,0c0-0.8,0.6-1.4,1.4-1.4h27.2c0.8,0,1.4,0.6,1.4,1.4l0,0
			C146.1,234.5,145.5,235.1,144.7,235.1z"/>
		<path fill="#E0E0E0" d="M144.7,240.6h-27.2c-0.8,0-1.4-0.6-1.4-1.4l0,0c0-0.8,0.6-1.4,1.4-1.4h27.2c0.8,0,1.4,0.6,1.4,1.4l0,0
			C146.1,240,145.5,240.6,144.7,240.6z"/>
		<path fill="#E0E0E0" d="M144.7,246.2h-27.2c-0.8,0-1.4-0.6-1.4-1.4l0,0c0-0.8,0.6-1.4,1.4-1.4h27.2c0.8,0,1.4,0.6,1.4,1.4l0,0
			C146.1,245.5,145.5,246.2,144.7,246.2z"/>
		<polygon fill="#EBEBEB" points="136.5,224.9 125.8,224.9 122.9,222.1 122.9,216 125.8,213.2 136.5,213.2 139.3,216 139.3,222.1 		
			"/>
		<rect x="106" y="260.6" fill="#FAFAFA" width="50.3" height="50.3"/>
		<path fill="#E0E0E0" d="M144.7,290.2h-27.2c-0.8,0-1.4-0.6-1.4-1.4l0,0c0-0.8,0.6-1.4,1.4-1.4h27.2c0.8,0,1.4,0.6,1.4,1.4l0,0
			C146.1,289.6,145.5,290.2,144.7,290.2z"/>
		<path fill="#E0E0E0" d="M144.7,295.7h-27.2c-0.8,0-1.4-0.6-1.4-1.4l0,0c0-0.8,0.6-1.4,1.4-1.4h27.2c0.8,0,1.4,0.6,1.4,1.4l0,0
			C146.1,295.1,145.5,295.7,144.7,295.7z"/>
		<path fill="#E0E0E0" d="M144.7,301.3h-27.2c-0.8,0-1.4-0.6-1.4-1.4l0,0c0-0.8,0.6-1.4,1.4-1.4h27.2c0.8,0,1.4,0.6,1.4,1.4l0,0
			C146.1,300.6,145.5,301.3,144.7,301.3z"/>
		<polygon fill="#EBEBEB" points="136.5,280 125.8,280 122.9,277.2 122.9,271.1 125.8,268.3 136.5,268.3 139.3,271.1 139.3,277.2 		
			"/>
	</g>
</g>
<g id="Background_Simple" display="none">
	<g display="inline">
		<path fill="#407BFF" d="M244.8,58.7c21.9,2.6,48.4,12.9,63.8,29.8c11.6,12.7,18.4,28.8,21,45.6c2.8,18.1-2.6,36.1-0.9,54.2
			c0.9,9.7,4.1,19.5,10.6,26.8c12.3,13.9,30.7,13,47.1,18c29.2,9.1,49.5,40.1,40.6,70.5c-6.8,23.4-27.4,35.6-50.2,40.2
			c-39.7,7.9-76.3-4.1-108.6-26.6c-7.6-5.3-16.2-10.1-25.5-10.3c-16.5-0.4-34.8,10.9-50.5,15.6c-18.5,5.6-38.1,9.1-57.4,4.9
			c-34.9-7.6-55.5-37-63.6-70.1c-8.2-33.4-9.6-69.3,2.2-102.1c11-30.6,31.6-56.4,58.9-73.6C165.1,60.9,206.6,54.2,244.8,58.7z"/>
		<path opacity="0.9" fill="#FFFFFF" d="M244.8,58.7c21.9,2.6,48.4,12.9,63.8,29.8c11.6,12.7,18.4,28.8,21,45.6
			c2.8,18.1-2.6,36.1-0.9,54.2c0.9,9.7,4.1,19.5,10.6,26.8c12.3,13.9,30.7,13,47.1,18c29.2,9.1,49.5,40.1,40.6,70.5
			c-6.8,23.4-27.4,35.6-50.2,40.2c-39.7,7.9-76.3-4.1-108.6-26.6c-7.6-5.3-16.2-10.1-25.5-10.3c-16.5-0.4-34.8,10.9-50.5,15.6
			c-18.5,5.6-38.1,9.1-57.4,4.9c-34.9-7.6-55.5-37-63.6-70.1c-8.2-33.4-9.6-69.3,2.2-102.1c11-30.6,31.6-56.4,58.9-73.6
			C165.1,60.9,206.6,54.2,244.8,58.7z"/>
	</g>
</g>
<g id="Shadow_1_">
	<ellipse id="_x3C_Path_x3E__2_" fill="#F5F5F5" cx="251" cy="366.4" rx="193.9" ry="11.3"/>
</g>
<g id="Plant">
	<g>
		<g>
			<path fill="#407BFF" d="M386.1,274.6c0.2,1.5-3.8,2.4-7,3c0.3,2.7,2,5.4,4.5,7.9c3.1-1.7,7.5-4,8.3-3.5c0.9,0.6-3.6,3.5-6.4,5.2
				c2,1.8,4.2,3.4,6.4,4.8c1.4-1.3,3-2.4,4-1.8c1,0.6,0.7,2.6,0.2,4.4c3.4,2,5.9,3.1,5.9,3.1s1.4-4.3,2.2-9.5
				c-0.2-0.3-0.3-0.7-0.5-1c-0.5-1.3,0-1.8,0.9-2c0.2-2.3,0.3-4.7,0.1-6.9c-3.8-0.8-8.4-2.3-6.7-4.6c1-1.4,3-1.5,4.9-1.2
				c-0.3-0.5-0.6-0.9-0.9-1.3c-6.9-7.6-11.7,0-11.7,0c-4-3.3-9.7-2.4-10.9,2.8C381.5,273.6,385.8,272.7,386.1,274.6z"/>
			<path opacity="0.3" fill="#FFFFFF" enable-background="new    " d="M386.1,274.6c0.2,1.5-3.8,2.4-7,3c0.3,2.7,2,5.4,4.5,7.9
				c3.1-1.7,7.5-4,8.3-3.5c0.9,0.6-3.6,3.5-6.4,5.2c2,1.8,4.2,3.4,6.4,4.8c1.4-1.3,3-2.4,4-1.8c1,0.6,0.7,2.6,0.2,4.4
				c3.4,2,5.9,3.1,5.9,3.1s1.4-4.3,2.2-9.5c-0.2-0.3-0.3-0.7-0.5-1c-0.5-1.3,0-1.8,0.9-2c0.2-2.3,0.3-4.7,0.1-6.9
				c-3.8-0.8-8.4-2.3-6.7-4.6c1-1.4,3-1.5,4.9-1.2c-0.3-0.5-0.6-0.9-0.9-1.3c-6.9-7.6-11.7,0-11.7,0c-4-3.3-9.7-2.4-10.9,2.8
				C381.5,273.6,385.8,272.7,386.1,274.6z"/>
		</g>
		<g>
			<g>
				<path fill="#407BFF" d="M394.7,330.6l-1-0.1c0-0.5,4.1-51.5-7.4-56.3c-1.2-0.5-2.4-0.5-3.5,0.1c-4.1,2.2-6.1,11.1-6.1,11.2
					l-1-0.2c0.1-0.4,2.1-9.5,6.7-11.8c1.4-0.7,2.8-0.8,4.3-0.1C398.9,278.3,394.9,328.4,394.7,330.6z"/>
			</g>
			<g>
				<path fill="#407BFF" d="M396.1,329.4c-0.2-2.3-4.9-56.3,3.9-62c2.1-1.4,4-1.7,5.5-0.9c4.1,2.1,4.7,10.9,4.7,11.3l-1,0.1
					c0-0.1-0.5-8.6-4.1-10.4c-1.2-0.6-2.8-0.4-4.5,0.8c-8.2,5.4-3.5,60.5-3.4,61.1L396.1,329.4z"/>
			</g>
			<g>
				<path fill="#407BFF" d="M397.5,333.8c-0.1-1.8-1.5-43.1,6.5-46.7c1.6-0.7,3.2-0.7,4.7,0c5.5,2.4,8.8,12.6,9,13l-1,0.3
					c0-0.1-3.4-10.2-8.4-12.4c-1.3-0.6-2.6-0.6-3.9,0c-6.1,2.8-6.3,34-5.9,45.7L397.5,333.8z"/>
			</g>
			<g>
				<path fill="#407BFF" d="M395.4,331.9l-1-0.1c1.4-12.3,4.1-45.1-0.3-49c-0.7-0.6-1.2-0.8-1.8-0.6c-2.9,1.1-4.7,11.8-5.2,15.8
					l-1-0.1c0.2-1.5,1.8-15.1,5.8-16.6c0.9-0.4,1.9-0.1,2.8,0.7C400.5,287.1,395.6,330.1,395.4,331.9z"/>
			</g>
		</g>
		<g>
			<polygon fill="#263238" points="378.7,308.6 414.7,308.6 411.7,348.9 381.7,348.9 			"/>
		</g>
		<g>
			<path fill="#407BFF" d="M383.6,293.8c-0.4,1-3.2,0.2-5.4-0.6c-0.8,1.7-0.6,4,0.1,6.4c2.5,0,6,0.1,6.3,0.7c0.3,0.7-3.4,0.9-5.8,1
				c0.6,1.8,1.4,3.5,2.3,5.2c1.3-0.3,2.7-0.5,3.1,0.2c0.4,0.7-0.5,1.9-1.4,2.8c1.4,2.4,2.5,4,2.5,4s2.3-2.2,4.7-5.1
				c0-0.3,0-0.5,0-0.8c0.1-1,0.6-1.1,1.2-0.9c0.9-1.3,1.8-2.8,2.4-4.2c-2.1-1.8-4.4-4.3-2.6-5.1c1.1-0.5,2.3,0.1,3.5,1
				c0-0.4-0.1-0.7-0.1-1.1c-1.7-7.1-7.2-4-7.2-4c-1.3-3.4-5.1-4.8-7.7-2C381.1,291.7,384.1,292.6,383.6,293.8z"/>
			<path opacity="0.3" fill="#FFFFFF" enable-background="new    " d="M383.6,293.8c-0.4,1-3.2,0.2-5.4-0.6c-0.8,1.7-0.6,4,0.1,6.4
				c2.5,0,6,0.1,6.3,0.7c0.3,0.7-3.4,0.9-5.8,1c0.6,1.8,1.4,3.5,2.3,5.2c1.3-0.3,2.7-0.5,3.1,0.2c0.4,0.7-0.5,1.9-1.4,2.8
				c1.4,2.4,2.5,4,2.5,4s2.3-2.2,4.7-5.1c0-0.3,0-0.5,0-0.8c0.1-1,0.6-1.1,1.2-0.9c0.9-1.3,1.8-2.8,2.4-4.2
				c-2.1-1.8-4.4-4.3-2.6-5.1c1.1-0.5,2.3,0.1,3.5,1c0-0.4-0.1-0.7-0.1-1.1c-1.7-7.1-7.2-4-7.2-4c-1.3-3.4-5.1-4.8-7.7-2
				C381.1,291.7,384.1,292.6,383.6,293.8z"/>
		</g>
		<g>
			<path fill="#407BFF" d="M410.3,298.6c-1.1,0.1-2.2,0.3-3.3,0.7c-0.3-0.8-0.5-1.5-0.5-2.4c-0.2-7.2,5-4.2,7.7-6.3
				c1.4-1.1,3-1.7,4.6-1.4c-0.2,0.4-0.4,0.8-0.6,1.2c-0.3,0.7,0.2,1.4,0.9,1.5c0.7,0.1,1.4,0.1,2-0.2c0.2-0.1,0.4-0.2,0.5-0.4
				c0.4,0.6,0.7,1.4,1,2.4c0.3,1,0.4,2.1,0.5,3.1c-0.4,0.1-0.8,0.2-1.2,0.3c-0.6,0.2-1,1.2-0.5,1.7c0.4,0.4,0.9,0.8,1.5,1
				c-0.2,1.2-0.5,2.3-0.9,3.4c-0.1,0-0.2,0-0.4,0.1c-0.3,0.1-0.5,0.1-0.8,0.2c-0.1,0-0.3,0.1-0.4,0.2c-0.4,0.2-0.6,0.5-0.7,0.9
				c-0.1,0.4,0.1,0.8,0.4,1c0.2,0.1,0.4,0.2,0.5,0.3c-0.8,1.3-1.8,2.3-2.9,2.9c0,0-1.3-0.6-3.1-1.6c0.2-0.3,0.4-0.6,0.6-0.9
				c0.2-0.4,0.3-0.7,0.3-1.1c0-0.4-0.3-0.8-0.6-1c-0.3-0.2-0.8-0.4-1.1-0.3c-0.4,0-0.8,0.3-1,0.6c-0.2,0.4-0.5,0.7-0.8,1
				c-1.3-1-2.6-2.2-3.7-3.6c0,0,0.1,0,0.1,0c0.7-0.2,1.4-0.3,2-0.3c0.9-0.1,1.4-0.9,1.3-1.7C412,299.1,411.1,298.6,410.3,298.6z"/>
			<path opacity="0.5" fill="#FFFFFF" enable-background="new    " d="M410.3,298.6c-1.1,0.1-2.2,0.3-3.3,0.7
				c-0.3-0.8-0.5-1.5-0.5-2.4c-0.2-7.2,5-4.2,7.7-6.3c1.4-1.1,3-1.7,4.6-1.4c-0.2,0.4-0.4,0.8-0.6,1.2c-0.3,0.7,0.2,1.4,0.9,1.5
				c0.7,0.1,1.4,0.1,2-0.2c0.2-0.1,0.4-0.2,0.5-0.4c0.4,0.6,0.7,1.4,1,2.4c0.3,1,0.4,2.1,0.5,3.1c-0.4,0.1-0.8,0.2-1.2,0.3
				c-0.6,0.2-1,1.2-0.5,1.7c0.4,0.4,0.9,0.8,1.5,1c-0.2,1.2-0.5,2.3-0.9,3.4c-0.1,0-0.2,0-0.4,0.1c-0.3,0.1-0.5,0.1-0.8,0.2
				c-0.1,0-0.3,0.1-0.4,0.2c-0.4,0.2-0.6,0.5-0.7,0.9c-0.1,0.4,0.1,0.8,0.4,1c0.2,0.1,0.4,0.2,0.5,0.3c-0.8,1.3-1.8,2.3-2.9,2.9
				c0,0-1.3-0.6-3.1-1.6c0.2-0.3,0.4-0.6,0.6-0.9c0.2-0.4,0.3-0.7,0.3-1.1c0-0.4-0.3-0.8-0.6-1c-0.3-0.2-0.8-0.4-1.1-0.3
				c-0.4,0-0.8,0.3-1,0.6c-0.2,0.4-0.5,0.7-0.8,1c-1.3-1-2.6-2.2-3.7-3.6c0,0,0.1,0,0.1,0c0.7-0.2,1.4-0.3,2-0.3
				c0.9-0.1,1.4-0.9,1.3-1.7C412,299.1,411.1,298.6,410.3,298.6z"/>
		</g>
		<g>
			<path fill="#407BFF" d="M412.4,273.6c0.6-0.5,1.3-0.8,2-1.1c-0.2-0.5-0.4-1-0.8-1.5c-3.1-3.9-4.4,0-6.8,0.1c-1.2,0-2.4,0.4-3,1.3
				c0.3,0.1,0.6,0.2,0.9,0.4c0.5,0.2,0.5,0.8,0.2,1.2c-0.3,0.4-0.7,0.7-1.2,0.8c-0.1,0-0.3,0-0.4,0c0.1,0.5,0.3,1.1,0.5,1.7
				c0.3,0.7,0.7,1.3,1.1,1.8c0.3-0.1,0.5-0.3,0.8-0.4c0.4-0.2,1,0.2,1,0.7c0,0.4-0.1,0.8-0.3,1.2c0.6,0.5,1.3,1,2,1.4
				c0.1,0,0.1-0.1,0.2-0.1c0.2-0.1,0.3-0.2,0.5-0.2c0.1,0,0.2-0.1,0.3-0.1c0.3-0.1,0.5,0,0.7,0.2c0.2,0.2,0.3,0.5,0.2,0.7
				c0,0.1-0.1,0.3-0.1,0.4c1,0.3,2,0.4,2.8,0.3c0,0,0.4-0.9,0.9-2.2c-0.2-0.1-0.5-0.1-0.7-0.2c-0.3-0.1-0.5-0.2-0.7-0.5
				c-0.2-0.2-0.2-0.5-0.1-0.8c0-0.3,0.2-0.5,0.5-0.7c0.2-0.1,0.5-0.2,0.8-0.1c0.3,0.1,0.6,0.1,0.9,0.2c0.3-1.1,0.4-2.3,0.4-3.5
				c0,0-0.1,0-0.1,0c-0.4,0.2-0.8,0.4-1.2,0.7c-0.5,0.3-1.1,0.1-1.5-0.3C411.7,274.6,411.9,274,412.4,273.6z"/>
			<path opacity="0.3" fill="#FFFFFF" enable-background="new    " d="M412.4,273.6c0.6-0.5,1.3-0.8,2-1.1c-0.2-0.5-0.4-1-0.8-1.5
				c-3.1-3.9-4.4,0-6.8,0.1c-1.2,0-2.4,0.4-3,1.3c0.3,0.1,0.6,0.2,0.9,0.4c0.5,0.2,0.5,0.8,0.2,1.2c-0.3,0.4-0.7,0.7-1.2,0.8
				c-0.1,0-0.3,0-0.4,0c0.1,0.5,0.3,1.1,0.5,1.7c0.3,0.7,0.7,1.3,1.1,1.8c0.3-0.1,0.5-0.3,0.8-0.4c0.4-0.2,1,0.2,1,0.7
				c0,0.4-0.1,0.8-0.3,1.2c0.6,0.5,1.3,1,2,1.4c0.1,0,0.1-0.1,0.2-0.1c0.2-0.1,0.3-0.2,0.5-0.2c0.1,0,0.2-0.1,0.3-0.1
				c0.3-0.1,0.5,0,0.7,0.2c0.2,0.2,0.3,0.5,0.2,0.7c0,0.1-0.1,0.3-0.1,0.4c1,0.3,2,0.4,2.8,0.3c0,0,0.4-0.9,0.9-2.2
				c-0.2-0.1-0.5-0.1-0.7-0.2c-0.3-0.1-0.5-0.2-0.7-0.5c-0.2-0.2-0.2-0.5-0.1-0.8c0-0.3,0.2-0.5,0.5-0.7c0.2-0.1,0.5-0.2,0.8-0.1
				c0.3,0.1,0.6,0.1,0.9,0.2c0.3-1.1,0.4-2.3,0.4-3.5c0,0-0.1,0-0.1,0c-0.4,0.2-0.8,0.4-1.2,0.7c-0.5,0.3-1.1,0.1-1.5-0.3
				C411.7,274.6,411.9,274,412.4,273.6z"/>
		</g>
		<g>
			<path fill="#407BFF" d="M383.1,280.9c-0.2,1.5,3.8,2.4,7,3c-0.3,2.7-2,5.4-4.5,7.9c-3.1-1.7-7.5-4-8.3-3.5
				c-0.9,0.6,3.6,3.5,6.4,5.2c-2,1.8-4.2,3.4-6.4,4.8c-1.4-1.3-3-2.4-4-1.8c-1,0.6-0.7,2.6-0.2,4.4c-3.4,2-5.9,3.1-5.9,3.1
				s-1.4-4.3-2.2-9.5c0.2-0.3,0.3-0.7,0.5-1c0.5-1.3,0-1.8-0.9-2c-0.2-2.3-0.3-4.7-0.1-6.9c3.8-0.8,8.4-2.3,6.7-4.5
				c-1-1.4-3-1.5-4.9-1.2c0.3-0.5,0.6-0.9,0.9-1.3c6.9-7.6,11.7,0,11.7,0c4-3.3,9.7-2.4,10.9,2.8
				C387.7,279.9,383.4,279.1,383.1,280.9z"/>
			<path opacity="0.5" fill="#FFFFFF" enable-background="new    " d="M383.1,280.9c-0.2,1.5,3.8,2.4,7,3c-0.3,2.7-2,5.4-4.5,7.9
				c-3.1-1.7-7.5-4-8.3-3.5c-0.9,0.6,3.6,3.5,6.4,5.2c-2,1.8-4.2,3.4-6.4,4.8c-1.4-1.3-3-2.4-4-1.8c-1,0.6-0.7,2.6-0.2,4.4
				c-3.4,2-5.9,3.1-5.9,3.1s-1.4-4.3-2.2-9.5c0.2-0.3,0.3-0.7,0.5-1c0.5-1.3,0-1.8-0.9-2c-0.2-2.3-0.3-4.7-0.1-6.9
				c3.8-0.8,8.4-2.3,6.7-4.5c-1-1.4-3-1.5-4.9-1.2c0.3-0.5,0.6-0.9,0.9-1.3c6.9-7.6,11.7,0,11.7,0c4-3.3,9.7-2.4,10.9,2.8
				C387.7,279.9,383.4,279.1,383.1,280.9z"/>
		</g>
	</g>
</g>
<g id="Character_1_1_">
	<g>
		<g>
			<g>
				<path fill="#263238" d="M191.1,363.2l-25.2-9.3l-25.5,9.3c-0.9,0.3-1.8-0.3-1.8-1.3l0,0c0-0.5,0.3-1,0.8-1.2l26.5-12.3
					l26.2,12.3c0.5,0.2,0.8,0.7,0.8,1.2l0,0C192.9,362.9,192,363.5,191.1,363.2z"/>
				<path opacity="0.3" fill="#FFFFFF" d="M191.1,363.2l-25.2-9.3l-25.5,9.3c-0.9,0.3-1.8-0.3-1.8-1.3l0,0c0-0.5,0.3-1,0.8-1.2
					l26.5-12.3l26.2,12.3c0.5,0.2,0.8,0.7,0.8,1.2l0,0C192.9,362.9,192,363.5,191.1,363.2z"/>
				<polygon opacity="0.2" points="159.9,356.1 165.9,353.9 171.5,356 171.5,351.1 165.9,348.4 159.9,351.2 				"/>
				<path fill="#263238" d="M165.7,363.4L165.7,363.4c-1.2,0-2.1-0.9-2.2-2l-0.7-7.5v-62h5.9v62l-0.7,7.5
					C167.9,362.5,166.9,363.4,165.7,363.4z"/>
				<path opacity="0.3" fill="#FFFFFF" d="M165.7,363.4L165.7,363.4c-1.2,0-2.1-0.9-2.2-2l-0.7-7.5v-62h5.9v62l-0.7,7.5
					C167.9,362.5,166.9,363.4,165.7,363.4z"/>
				<rect x="162.8" y="291.9" opacity="0.2" width="5.9" height="7.2"/>
			</g>
			<g>
				<g>
					<path fill="#407BFF" d="M152.6,228c0.8,0,1.7,0.4,2.2,1.3c10.8,17.9,14.6,39.4,10.9,60c-0.2,1.3-1.1,1.9-2.1,2
						c-1.6,0.1-30.6,0-31.7,0c-1.6,0-3.3-1.3-2.9-3.4c3.5-19.1-0.3-39.2-10.3-55.8c-1.2-2.1,0.6-4,2.4-4
						C121.9,228,150.7,228,152.6,228z"/>
					<path opacity="0.2" d="M152.6,228c0.8,0,1.7,0.4,2.2,1.3c10.8,17.9,14.6,39.4,10.9,60c-0.2,1.3-1.1,1.9-2.1,2
						c-1.6,0.1-30.6,0-31.7,0c-1.6,0-3.3-1.3-2.9-3.4c3.5-19.1-0.3-39.2-10.3-55.8c-1.2-2.1,0.6-4,2.4-4
						C121.9,228,150.7,228,152.6,228z"/>
				</g>
				<g>
					<g>
						<path fill="#407BFF" d="M128.9,287.8c3.5-19.1-0.3-39.2-10.3-55.8c-1.8-3,2.9-5.7,4.7-2.7c10.8,17.9,14.6,39.4,10.9,60
							C133.5,292.7,128.3,291.2,128.9,287.8L128.9,287.8z"/>
					</g>
					<g opacity="0.1">
						<path fill="#FFFFFF" d="M128.9,287.8c3.5-19.1-0.3-39.2-10.3-55.8c-1.8-3,2.9-5.7,4.7-2.7c10.8,17.9,14.6,39.4,10.9,60
							C133.5,292.7,128.3,291.2,128.9,287.8L128.9,287.8z"/>
					</g>
				</g>
				<g>
					<g>
						<path fill="#407BFF" d="M219.4,286.3c-6.7-1.7-13.5-2.6-20.3-2.8c-7.1-0.2-33.5,0-39.8,0c-7.6,0-15.3,0.9-22.7,2.8
							c-4.7,1.2-3.2,7.9,1,8c0.4,0,80.3,0,80.6,0C222.6,294.4,224.2,287.5,219.4,286.3z"/>
						<path opacity="0.3" d="M219.4,286.3c-6.7-1.7-13.5-2.6-20.3-2.8c-7.1-0.2-33.5,0-39.8,0c-7.6,0-15.3,0.9-22.7,2.8
							c-4.7,1.2-3.2,7.9,1,8c0.4,0,80.3,0,80.6,0C222.6,294.4,224.2,287.5,219.4,286.3z"/>
					</g>
					<g>
						<path fill="#407BFF" d="M138.8,294.1c13.4-3.4,27.6-3.4,41.1,0c5.1,1.3,7.2-6.6,2.2-7.8c-14.8-3.8-30.6-3.8-45.4,0
							C131.5,287.5,133.7,295.4,138.8,294.1L138.8,294.1z"/>
					</g>
					<g opacity="0.3">
						<path fill="#FFFFFF" d="M138.8,294.1c13.4-3.4,27.6-3.4,41.1,0c5.1,1.3,7.2-6.6,2.2-7.8c-14.8-3.8-30.6-3.8-45.4,0
							C131.5,287.5,133.7,295.4,138.8,294.1L138.8,294.1z"/>
					</g>
				</g>
			</g>
		</g>
		<g>
			<g>
				<rect x="152.5" y="254.7" fill="#263238" width="35.8" height="14.3"/>
				<rect x="152.5" y="254.7" opacity="0.2" fill="#FFFFFF" width="35.8" height="14.3"/>
			</g>
			<polygon fill="#B55B52" points="207.5,330.9 202.8,351.4 208.7,353.7 217.1,333 			"/>
			<path fill="#263238" d="M208.3,352.3l-5.3-2.8c-0.2-0.1-0.5-0.1-0.7,0.1l-3.8,4.4c-0.3,0.4-0.3,1,0.1,1.3c0,0,0.1,0.1,0.2,0.1
				c2.2,1.2,4.3,2.1,7,3.6c3.2,1.7,2.2,1.7,6,3.8c2.3,1.3,4.1-1.1,3.2-1.8c-4.2-3-4.7-5-5.6-7.5C209.2,353,208.8,352.6,208.3,352.3z
				"/>
			<g>
				<path fill="#263238" d="M160.1,267.3l28.7-1.6c0,0,47.7,7.5,47,20.8c-0.7,13.3-20.1,55.4-20.1,55.4l-11.4-3.2
					c0,0,8.7-42.3,14.3-49.3c0,0-35.6-4.2-44.5-6.6C169.2,281.6,157.4,283.8,160.1,267.3z"/>
				<path opacity="0.2" fill="#FFFFFF" d="M160.1,267.3l28.7-1.6c0,0,47.7,7.5,47,20.8c-0.7,13.3-20.1,55.4-20.1,55.4l-11.4-3.2
					c0,0,8.7-42.3,14.3-49.3c0,0-35.6-4.2-44.5-6.6C169.2,281.6,157.4,283.8,160.1,267.3z"/>
			</g>
			<path opacity="0.2" d="M213.9,288.8c0.1-2.7-0.1-6.9-2.2-11.5c-2.7-6-24.5-9.6-34.9-11l-16.6,0.9c-2.7,16.5,9.1,14.3,14,15.6
				C181,284.7,203.8,287.6,213.9,288.8z"/>
			<polygon fill="#B55B52" points="188,336.5 187.3,357.6 193.6,357.9 197.8,336.8 			"/>
			<path fill="#263238" d="M193.1,355.9l-6.1,0.1c-0.3,0-0.5,0.2-0.5,0.5l-1.2,5.8c-0.1,0.5,0.2,1,0.7,1.1c0.1,0,0.1,0,0.2,0
				c2.6-0.1,4.8-0.3,8-0.3c3.8-0.1,2.8,0.4,7.2,0.4c2.7,0,3.1-3,2-3.2c-5.2-0.6-6.7-2.1-8.7-3.9
				C194.3,356.1,193.7,355.9,193.1,355.9z"/>
			<g>
				<polygon fill="#263238" points="203.5,336.2 217.8,340.2 215.2,345.7 202.1,342.5 				"/>
				<polygon opacity="0" points="203.5,336.2 217.8,340.2 215.2,345.7 202.1,342.5 				"/>
			</g>
			<g>
				<path fill="#263238" d="M167.8,267.3c0,0,38.4,1.4,40.7,13.1c2.3,11.8-10.6,64.4-10.6,64.4h-11.5c0,0,1.4-47.3,5.2-57.2
					c0,0-31.7,5-40-2.2c-6-5.1,1.1-18.1,1.1-18.1L167.8,267.3z"/>
				<path opacity="0.2" fill="#FFFFFF" d="M167.8,267.3c0,0,38.4,1.4,40.7,13.1c2.3,11.8-10.6,64.4-10.6,64.4h-11.5
					c0,0,1.4-47.3,5.2-57.2c0,0-31.7,5-40-2.2c-6-5.1,1.1-18.1,1.1-18.1L167.8,267.3z"/>
			</g>
			<g>
				<polygon fill="#263238" points="185.2,341.9 199.7,342.6 198.3,348.3 185.2,347.6 				"/>
				<polygon opacity="0" points="185.2,341.9 199.7,342.6 198.3,348.3 185.2,347.6 				"/>
			</g>
			<g>
				<g>
					<path fill="#B55B52" d="M218.9,222.7l6.2-2.3l-5.3-5.1c0,0-5.4,2.4-4,5.1L218.9,222.7z"/>
					<polygon fill="#B55B52" points="229.1,215.2 223.1,212.4 219.8,215.3 225.1,220.4 					"/>
				</g>
				<g>
					<polygon fill="#407BFF" points="211.1,222.9 214.7,219 219.5,223.1 215.6,227.8 					"/>
					<polygon opacity="0.8" fill="#FFFFFF" points="211.1,222.9 214.7,219 219.5,223.1 215.6,227.8 					"/>
				</g>
				<path fill="#263238" d="M186.5,198.6c0,0,3.8,4.3,9.3,18.4c5.5,14.1,11.5,10,18.2,2.4l5.5,5c0,0-10.2,12.7-16.7,12.7
					c-7.2,0-14.1-11.1-15.5-18.9C185.8,210.5,186.5,198.6,186.5,198.6z"/>
				<path opacity="0.4" d="M187.8,206.8l-2-1.7l-1,5.4c0.1,1.6,0.3,3.1,0.6,4.5c0.8,4.4,3.8,10.2,7,15.1
					C191.2,219.3,187.8,206.8,187.8,206.8z"/>
				<path fill="#263238" d="M148.9,240.5l0.6,29.3l21.6,0.7c2.8,0,3.5-1.9,4.1-4l1.1-3.8l0.9,3.5c0.6,2.1,3.5,2.5,5.7,2l9.4-2.3
					l-2.2-28.9c0,0,1.5-21.8-2-35.7c-0.6-2.7-3.1-4.5-5.7-5.1c-6-1.4-19-3.3-33.8,2.6c-1.4,0.5-2.2,1.9-2,3.4L148.9,240.5z"/>
				<g>
					<circle opacity="0.5" cx="174.8" cy="228.1" r="0.9"/>
					<circle opacity="0.5" cx="175.7" cy="240.5" r="0.9"/>
					<circle opacity="0.5" cx="176.1" cy="252.8" r="0.9"/>
				</g>
				<path fill="#263238" d="M161.3,194.4c0,0,4.8-2.1,10.7-0.7l2.2,1.3l0.8,2.5l-2.8,2.2l-6.6,0.7l-5.5-2.3l0.3-2.4L161.3,194.4z"/>
				<path fill="#B55B52" d="M173.3,195.7c-2.2-0.6-3.7-4.4-1.9-6.8l-9.6-7.4c1.4,13.4,0.7,10.9-1.3,14.8c0,0,1.4,4.5,9.1,3.1
					C174.7,198.3,173.3,195.7,173.3,195.7z"/>
				<path opacity="0.2" d="M171.4,188.8l-9.6-7.1c0.2,1.9,0.3,1.9,0.4,3.3c1,2.1,3.1,7.3,8.5,7.5
					C170.4,191.5,170.7,189.4,171.4,188.8z"/>
				<g>
					<g>
						<polygon fill="#407BFF" points="160.7,202.7 163.3,211.3 169.4,220.1 174.4,225.3 176.3,217.7 175.7,201.7 175.6,198.3 
							174.2,196.3 172,198.3 170.1,199 167.3,199 160,196.8 						"/>
						<polygon opacity="0.8" fill="#407BFF" points="160.7,202.7 163.3,211.3 169.4,220.1 174.4,225.3 176.3,217.7 175.7,201.7 
							175.6,198.3 174.2,196.3 172,198.3 170.1,199 167.3,199 160,196.8 						"/>
						<polygon opacity="0.5" fill="#FFFFFF" points="160.7,202.7 163.3,211.3 169.4,220.1 174.4,225.3 176.3,217.7 175.7,201.7 
							175.6,198.3 174.2,196.3 172,198.3 170.1,199 167.3,199 160,196.8 						"/>
					</g>
					<path fill="#407BFF" d="M166.6,201.7c0,0,0.9,2,2.8,3.6c0,0-1.2,8.7,0.7,14.8l4.3,5.1l1.3-6.3c0,0-1.9-10.1-4.6-14
						c0,0,1.1-2.1,1.4-4.2l-1.6-1.3c0,0-2.2,1.5-3.5,0.5L166.6,201.7z"/>
					<g>
						<path fill="#407BFF" d="M160.5,195.2c0,0,4,3.4,8.1,3.4c4,0,4.5-4.2,4.5-4.2l1.7,1.8c0,0,0.3,3-1.4,6.1l-4.2-2.8l-2.9,4.1
							c0,0-4.5-2.2-6.7-6L160.5,195.2z"/>
						<path opacity="0.8" fill="#FFFFFF" d="M160.5,195.2c0,0,4,3.4,8.1,3.4c4,0,4.5-4.2,4.5-4.2l1.7,1.8c0,0,0.3,3-1.4,6.1
							l-4.2-2.8l-2.9,4.1c0,0-4.5-2.2-6.7-6L160.5,195.2z"/>
					</g>
					<g>
						<path fill="#263238" d="M161.3,194.4c0,0-3.3,10.2,12.9,29.6c0,0,2.9-23.8-2.2-30.3l3.6,1.4l3.7,5.6l-2.7,1.7l3.4,1.5
							c0,0-0.5,7.7-5.2,22.5c0,0-10.7-8.3-17.7-19.4l3.3-2.6l-4.3-0.7l1.9-7.7L161.3,194.4z"/>
						<path opacity="0.3" d="M161.3,194.4c0,0-3.3,10.2,12.9,29.6c0,0,2.9-23.8-2.2-30.3l3.6,1.4l3.7,5.6l-2.7,1.7l3.4,1.5
							c0,0-0.5,7.7-5.2,22.5c0,0-10.7-8.3-17.7-19.4l3.3-2.6l-4.3-0.7l1.9-7.7L161.3,194.4z"/>
					</g>
				</g>
				<path opacity="0.4" d="M147,205l4.2,23.6l0.5-0.6c2.3-12.1-0.9-23.7-0.9-23.7l-1.3,0.7L147,205z"/>
				<g>
					<path fill="#263238" d="M174,163.3c0,0,4.6,8.5,1.1,13.7c-3.5,5.2-9.6-11.6-9.6-11.6L174,163.3z"/>
					<path fill="#B55B52" d="M178,181.8c0,0.3-0.1,0.7-0.1,1c-0.2,1.2-0.6,2.4-1.2,3.4c-0.6,1.1-1.5,2-2.4,2.7
						c-1.8,1.3-3.9,2-6.2,1.8c-1.5-0.1-3-0.6-4.4-1.6c-4-2.8-4.7-6.9-6.3-13.5c-0.4-1.4-0.4-2.9-0.1-4.4c1.1-5.1,6.1-8.3,11.2-7.2
						C175.7,165.6,178.4,175.5,178,181.8z"/>
					<path fill="#263238" d="M168.1,175.7c0.1,0.6,0.5,0.9,0.8,0.9c0.4-0.1,0.6-0.6,0.5-1.1c-0.1-0.5-0.5-0.9-0.8-0.9
						C168.2,174.6,168,175.1,168.1,175.7z"/>
					<path fill="#263238" d="M174.3,174.6c0.1,0.6,0.5,0.9,0.8,0.9c0.4-0.1,0.6-0.6,0.5-1.1c-0.1-0.5-0.5-0.9-0.8-0.9
						C174.4,173.5,174.2,174,174.3,174.6z"/>
					<path fill="#A02724" d="M172.4,175.2c1,1.6,2.1,3,3.5,4.3c-0.7,0.7-1.6,1-2.6,1L172.4,175.2z"/>
					<path fill="#263238" d="M176.1,171.5c-0.1,0.1-0.2,0.1-0.3,0.1c-0.8-0.3-1.6-0.3-2.4,0.1c-0.1,0.1-0.4,0.1-0.5-0.1
						c-0.1-0.1-0.1-0.4,0.1-0.5c0,0,0,0,0,0c0.9-0.6,2-0.6,3-0.2c0.2,0.1,0.3,0.3,0.2,0.4c0,0,0,0,0,0
						C176.2,171.4,176.2,171.5,176.1,171.5z"/>
					<path fill="#263238" d="M166.4,173.4c-0.1,0-0.1,0-0.2,0c-0.1-0.1-0.2-0.3-0.1-0.5c0,0,0,0,0,0c0.7-0.8,1.7-1.3,2.7-1.2
						c0.2,0,0.3,0.2,0.3,0.4l0,0c0,0.2-0.2,0.3-0.4,0.3l0,0c-0.8,0-1.6,0.4-2.2,1C166.6,173.4,166.5,173.4,166.4,173.4z"/>
					<path fill="#263238" d="M160.9,166.3l1,2.9c-0.9,0.7-1.2,2-0.5,3c1.5,2.3,1,6.4-0.6,8.4c0,0-0.3-1.1-1.2-0.6
						c-0.9,0.5,0.7,6,3.1,8.3c0,0-3.2-1.8-6.1-7.4c-2.6-5.1-3.8-9.6-3.2-12L160.9,166.3z"/>
					<path fill="#B55B52" d="M155.5,181.7c1,1.4,2.6,2.3,4.3,2.6c2.3,0.3,3.1-1.8,2.3-3.8c-0.8-1.8-2.9-4.1-5.1-3.5
						C154.8,177.6,154.3,179.9,155.5,181.7z"/>
					<path fill="#263238" d="M153.4,170.4c0,0-1.6-3.7,3.9-8.1c5.5-4.4,12.9-2.3,16.4-5.8c3.5-3.5,6,7.2-2.5,10.3
						C162.7,169.9,153.4,170.4,153.4,170.4z"/>
					<g>
						<path fill="#263238" d="M173.2,182.4c-0.7,0.8-1.7,2.5-1.7,2.5c-0.2-0.1-0.3-0.1-0.5-0.2c-2.2-0.9-2.9-2-3.1-3
							c-0.1-0.5,0-1,0.2-1.4c0.2-0.5,0.4-0.7,0.4-0.7c0.9,1.2,2.9,2.1,4,2.6C172.9,182.3,173.2,182.4,173.2,182.4z"/>
						<path fill="#FFFFFF" d="M172.4,182.1l-0.5,0.7c-2.1-0.8-3.4-1.7-3.8-2.6c0.2-0.5,0.4-0.7,0.4-0.7
							C169.3,180.7,171.3,181.6,172.4,182.1z"/>
						<path fill="#A02724" d="M171,184.7c-2.2-0.9-2.9-2-3.1-3c0.7,0.3,1.6,0.8,2.3,1.5C170.7,183.6,170.9,184.2,171,184.7z"/>
					</g>
				</g>
				<g>
					<g>
						<path fill="#263238" d="M134.2,231.1c1,2.2,2.8,2.5,4.7,1.5c1.5-0.7,3-2.2,4.1-3.9c0.8-1.2,2-3,3.1-4.9
							c2.5-4.2,5.1-8.8,5.1-8.8c1.6-2.2,2.6-4.7,1.7-8.3c-1.5-4.4-3.3-7-5.2-7.2C142.8,201.9,132.3,227.1,134.2,231.1z"/>
						<path opacity="0.2" enable-background="new    " d="M138.9,232.7c1.5-0.7,3-2.2,4.1-3.9c0.8-1.2,2-3,3.1-4.9
							c-1.4-2.6-2.9-4.7-2.9-4.7l-2.5,7.1c0,0-4.4,1-5.1,3.3C135.3,230.4,136.8,231.7,138.9,232.7z"/>
					</g>
					<g>
						<path fill="#263238" d="M139,212.4l8.3,31.8c0.2,0.7,1,1.3,1.7,1.2l22.1-2.9c0.8-0.1,1.2-0.8,1-1.5l-8.3-31.8
							c-0.2-0.7-1-1.3-1.7-1.2l-22.1,2.9C139.3,211,138.8,211.7,139,212.4z"/>
						<path opacity="0.4" fill="#FFFFFF" d="M139,212.4l8.3,31.8c0.2,0.7,1,1.3,1.7,1.2l21.1-2.8c0.8-0.1,1.2-0.8,1-1.5l-8.3-31.8
							c-0.2-0.7-1-1.3-1.7-1.2l-21.1,2.8C139.3,211,138.8,211.7,139,212.4z"/>
						<path opacity="0.3" fill="#FFFFFF" d="M154.4,224.6c1.1-0.1,2.2,0.6,2.5,1.7c0.3,1.1-0.4,2.1-1.5,2.2
							c-1.1,0.1-2.2-0.6-2.5-1.7C154,226.6,154.7,225.6,154.4,224.6z"/>
					</g>
					<g>
						<path fill="#263238" d="M137.2,238.6c1.5,0.8,4.9-0.4,5.9-0.8c0.2-0.1,0.3-0.1,0.3-0.1s1.8-6-2.9-9.2c0,0-0.1-0.1-0.1-0.1
							c-1.5-0.8-6.2,0.2-6.4,1.8C133.4,236.6,135.5,237.7,137.2,238.6z"/>
						<path opacity="0.2" enable-background="new    " d="M140.2,233.5c0.6,2.2,1.8,3.5,3,4.3c0.2-0.1,0.3-0.1,0.3-0.1
							s1.8-6-2.9-9.2c0,0-0.1-0.1-0.1-0.1C140,228.9,139.3,230.3,140.2,233.5z"/>
					</g>
					<path fill="#B55B52" d="M147,225.9c0,0-3.1-0.1-4.5,0c-1.4,0.1-1,4.7-1,4.7l-1.2,0.7c0,0-1,2.7,1.1,4l1.1-0.4
						c0,0,0.3,1.1,1.2,1.6c0.9,0.5,5.2-0.7,5.2-0.7L147,225.9z"/>
				</g>
			</g>
		</g>
	</g>
</g>
<g id="Table">
	<g>
		<g>
			<g>
				<path fill="#407BFF" d="M226.7,245.4c0.6,0,1-0.5,1-1c0-0.6-0.5-1-1-1h-27.9c-0.6,0-1,0.5-1,1c0,0.6,0.5,1,1,1H226.7z"/>
				<path opacity="0.5" fill="#FFFFFF" d="M226.7,245.4c0.6,0,1-0.5,1-1c0-0.6-0.5-1-1-1h-27.9c-0.6,0-1,0.5-1,1c0,0.6,0.5,1,1,1
					H226.7z"/>
				<path fill="#407BFF" d="M224.4,243.6l3.7-26.4c0.1-1,1-1.8,2-1.8h3.6v29.9h-7.8C224.9,245.4,224.2,244.6,224.4,243.6z"/>
				<path opacity="0.6" fill="#FFFFFF" d="M224.4,243.6l3.7-26.4c0.1-1,1-1.8,2-1.8h3.6v29.9h-7.8
					C224.9,245.4,224.2,244.6,224.4,243.6z"/>
			</g>
			<g>
				<path fill="#407BFF" d="M227.4,245.4h31.5c1,0,1.9-0.8,2-1.8l3.7-26.4c0.1-1-0.5-1.8-1.5-1.8h-31.5c-1,0-1.9,0.8-2,1.8
					l-3.7,26.4C225.8,244.6,226.4,245.4,227.4,245.4z"/>
			</g>
			<path opacity="0.5" fill="#FFFFFF" d="M227.4,245.4h31.5c1,0,1.9-0.8,2-1.8l3.7-26.4c0.1-1-0.5-1.8-1.5-1.8h-31.5
				c-1,0-1.9,0.8-2,1.8l-3.7,26.4C225.8,244.6,226.4,245.4,227.4,245.4z"/>
			<path opacity="0.7" fill="#FFFFFF" d="M242.7,231.8c-0.2,1.5,0.8,2.7,2.3,2.7c1.5,0,2.9-1.2,3.1-2.7c0.2-1.5-0.8-2.7-2.3-2.7
				C244.3,229.1,242.9,230.3,242.7,231.8z"/>
		</g>
		<g>
			<g>
				<g>
					<g>
						<polygon fill="#263238" points="130.4,364.1 133,364.1 136.4,251.9 132.9,251.9 						"/>
						<polygon opacity="0.6" fill="#FFFFFF" points="130.4,364.1 133,364.1 136.4,251.9 132.9,251.9 						"/>
					</g>
					<g>
						<polygon fill="#263238" points="172.6,251.9 172.6,364.1 169.8,364.1 166.5,257 133.2,257 130.7,364.1 128,364.1 128,251.9 
													"/>
						<polygon opacity="0.4" fill="#FFFFFF" points="172.6,251.9 172.6,364.1 169.8,364.1 166.5,257 133.2,257 130.7,364.1 
							128,364.1 128,251.9 						"/>
					</g>
					<g>
						<polygon fill="#263238" points="172.6,364.1 175.2,364.1 176,251.9 172.6,251.9 						"/>
						<polygon opacity="0.6" fill="#FFFFFF" points="172.6,364.1 175.2,364.1 176,251.9 172.6,251.9 						"/>
					</g>
				</g>
				<g>
					<g>
						<polygon fill="#263238" points="272.3,364.1 274.9,364.1 278.3,251.9 274.8,251.9 						"/>
						<polygon opacity="0.6" fill="#FFFFFF" points="272.3,364.1 274.9,364.1 278.3,251.9 274.8,251.9 						"/>
					</g>
					<g>
						<polygon fill="#263238" points="314.5,251.9 314.5,364.1 311.7,364.1 308.4,257 275.1,257 272.6,364.1 269.9,364.1 
							269.9,251.9 						"/>
						<polygon opacity="0.4" fill="#FFFFFF" points="314.5,251.9 314.5,364.1 311.7,364.1 308.4,257 275.1,257 272.6,364.1 
							269.9,364.1 269.9,251.9 						"/>
					</g>
					<g>
						<polygon fill="#263238" points="314.5,364.1 317.1,364.1 317.9,251.9 314.5,251.9 						"/>
						<polygon opacity="0.6" fill="#FFFFFF" points="314.5,364.1 317.1,364.1 317.9,251.9 314.5,251.9 						"/>
					</g>
				</g>
			</g>
			<g>
				<g>
					<rect x="174.7" y="245.5" fill="#263238" width="147.8" height="6.4"/>
				</g>
				<rect x="174.7" y="245.5" opacity="0.5" fill="#FFFFFF" width="147.8" height="6.4"/>
				<g>
					<rect x="123.4" y="245.5" fill="#263238" width="55.3" height="6.4"/>
				</g>
				<rect x="123.4" y="245.5" opacity="0.3" fill="#FFFFFF" width="55.3" height="6.4"/>
			</g>
		</g>
	</g>
</g>
<g id="Character_2">
	<g>
		<g>
			<g>
				<g>
					<path fill="#E4897B" d="M294,208.4l2.5-4.6l3.4,4.8c0,0-2.5,4-4.5,2.6L294,208.4z"/>
					<polygon fill="#E4897B" points="301.1,201.2 302.7,206.3 300,208.5 296.6,203.8 					"/>
				</g>
				<path opacity="0.2" d="M297.8,203.1c0.4,2.1,1.1,3.9,2.2,5.5l0.6-0.5l-1.8-5.6L297.8,203.1z"/>
				<polygon fill="#E4897B" points="293.4,217.4 294,208.4 297.4,209 297.4,218.1 				"/>
			</g>
			<polygon fill="#E4897B" points="249.9,326.2 255.1,328.2 258.8,321.2 262.2,314.8 256.4,311.4 253,319.2 			"/>
			<polygon opacity="0.2" enable-background="new    " points="253,319.2 258.8,321.2 262.2,314.8 256.4,311.4 			"/>
			<g>
				<path fill="#263238" d="M254,315.4l7,3.8c0,0,26.5-46.7,30.6-46.3c4.1,0.4,42.8,25.1,54.6,16c11.8-9.1,0.3-36.6,0.3-36.6
					s-24.4-7-27.1-1.6c-0.5,1-1.2,3.1-1.7,4.9c-0.5,1.7-0.9,3.1-0.9,3.1s0,0,0,0c-0.7-0.3-24.9-10.2-35.6-4.9
					C270.3,259.2,254,315.4,254,315.4z"/>
				<path opacity="0.3" fill="#FFFFFF" enable-background="new    " d="M254,315.4l7,3.8c0,0,26.5-46.7,30.6-46.3
					c4.1,0.4,42.8,25.1,54.6,16c11.8-9.1,0.3-36.6,0.3-36.6s-24.4-7-27.1-1.6c-0.5,1-1.2,3.1-1.7,4.9c-0.5,1.7-0.9,3.1-0.9,3.1
					s0,0,0,0c-0.7-0.3-24.9-10.2-35.6-4.9C270.3,259.2,254,315.4,254,315.4z"/>
			</g>
			<polygon fill="#E4897B" points="292.2,353.5 297.7,352.8 297.7,345 297.8,337.9 291.1,337.6 291.7,346 			"/>
			<polygon opacity="0.2" enable-background="new    " points="291.7,346.2 297.8,345.2 297.8,338 291.1,337.6 			"/>
			<polygon fill="#263238" points="264.5,316.8 254.2,311.7 253.2,316 260.9,320.1 			"/>
			<g>
				<path fill="#263238" d="M328.1,288.9c0,0-1.7-0.2-27.7-5c0,0-0.6,33.2-1.8,58l-8,0.3c0,0-11.5-54.9-10.1-63.2
					c1.3-8.3,11.2-9.4,11.2-9.4S308.8,282.8,328.1,288.9z"/>
				<path opacity="0.4" fill="#FFFFFF" enable-background="new    " d="M328.1,288.9c0,0-1.7-0.2-27.7-5c0,0-0.6,33.2-1.8,58l-8,0.3
					c0,0-11.5-54.9-10.1-63.2c1.3-8.3,11.2-9.4,11.2-9.4S308.8,282.8,328.1,288.9z"/>
				<path opacity="0.3" enable-background="new    " d="M328.1,288.9c0,0-1.7-0.2-27.7-5c0,0-0.6,33.2-1.8,58l-8,0.3
					c0,0-11.5-54.9-10.1-63.2c1.3-8.3,11.2-9.4,11.2-9.4S308.8,282.8,328.1,288.9z"/>
			</g>
			<polygon fill="#263238" points="300.1,339.7 289.2,339.4 290.6,343.9 299.5,344 			"/>
			<path fill="#263238" d="M239.6,335.3c0.9-0.3,1.8-0.4,2.7-0.3c0,0,3.3-1.4,7.4-8c0,0,3.4,0.5,3.4,0.5c1.7,0.2,3.9,2.2,3.6,3.7
				c-0.8,3.3-3.5,6.2-4.9,9.2l-0.6-0.2l1.8-5c0.6-1.7-1.5-0.3-2.6,1.4c-1.1,1.6-2.6,3.2-6.3,1.8
				C239.8,336.8,238.1,335.9,239.6,335.3z"/>
			<path fill="#E4897B" d="M250.5,325.2c0,0-5.5,8.4-8.2,9.8c0,0,3,2.4,7.1-1.5c5.2-5.1,6.1-4.8,6.1-4.8s0.1-0.5-0.2-1.5
				C255,325.3,250.5,325.2,250.5,325.2z"/>
			<path fill="#263238" d="M284,363.2c0.8-0.5,1.6-0.8,2.5-0.9c0,0,2.9-2.1,5.2-9.5c0,0,3.4-0.4,3.4-0.4c2.8-0.3,4.5,1.4,4.4,3.4
				c0,2.6-2.6,9.5-2.6,9.5l-0.6-0.1l0.5-5.3c0.2-1.8-1.5,0.1-2.2,1.9c-0.7,1.9-1.8,3.8-5.7,3.3C284.5,364.6,282.7,364.2,284,363.2z"
				/>
			<path fill="#E4897B" d="M292.2,350.8c0,0-3.4,9.5-5.7,11.5c0,0,3.5,1.6,6.5-3.1c3.9-6.2,5.4-6,5.4-6s-0.7-0.7-1.1-1.6
				C296.5,349.8,292.2,350.8,292.2,350.8z"/>
			<g>
				<path fill="#263238" d="M301.3,194.4c-0.1,0-0.2,0-0.2-0.1c-0.8-1.2-2.6-1.2-2.6-1.2c0,0,0,0,0,0c-0.1,0-0.2-0.1-0.3-0.2
					c0-0.1,0.1-0.3,0.2-0.3c0.1,0,2.1,0,3,1.4c0.1,0.1,0,0.3-0.1,0.3C301.4,194.4,301.3,194.4,301.3,194.4z"/>
				<path fill="#DE5753" d="M299.3,197.4c0,0-1.1,1.6-2.2,2.6c0,0,0.5,1,1.7,0.9L299.3,197.4z"/>
				<g>
					
						<ellipse transform="matrix(-0.992 -0.1266 0.1266 -0.992 570.868 427.3261)" fill="#263238" cx="299" cy="195.5" rx="0.7" ry="1"/>
					<path fill="#263238" d="M299.3,194.6l-1.1-0.6C298.2,194,298.6,195,299.3,194.6z"/>
				</g>
				<path fill="#E4897B" d="M312.6,208.6c-0.1,0.1-0.1,0.1-0.2,0.1c-1.1,0.7-2.3,1.3-3.6,1.5c-3.8,0.7-6.3,0-7.8-1.7c0,0,0,0,0,0
					c-2.2-2.6-2.6-7.1-2-12.5c0.3-2.5,0.7-4.6,1.5-6.2c0,0,0-0.1,0-0.1c0-0.1,0.1-0.2,0.1-0.2c1.1-2.3,2.9-3.7,5.6-4.2
					c0.9-0.2,2-0.2,3.2-0.2C319.9,185.5,320.9,203,312.6,208.6z"/>
				<path opacity="0.2" enable-background="new    " d="M312.3,208.7c-1.1,0.7-2.2,1.2-3.6,1.4c-3.8,0.7-6.3-0.1-7.8-1.9
					c1.8,0.5,4.2,0.8,6.7-0.2C309.1,207.4,310.8,207.8,312.3,208.7z"/>
				<path fill="#263238" d="M300.4,189.8c0,0-0.9,7.3,5.9,10.8c0,0,2.6,7.8,7,8.1c6,0.4,11.7-7.9,10.1-16.7
					C321.2,180.6,304.2,178.9,300.4,189.8z"/>
				<path fill="#E4897B" d="M302.9,198.3c0.1-1.1,1.1-3,2.8-2.7c1.8,0.4,2.6,5-2,5.8C303.1,201.5,302.7,200.7,302.9,198.3z"/>
				<path fill="#263238" d="M313.6,182.6c0,0-6.9-2.1-11,0.5c-4.7,3.1-6.6,6.4-1.5,12c0,0,12-3.2,15.9-2.2s6.6,2.3,6.6,2.3
					C324.9,187.3,317.6,181.2,313.6,182.6z"/>
				<path fill="#E4897B" d="M307,209.5c0,0,5.2,2.5,3.7,8l13.1-5.5c0,0-7.2-0.5-6.8-5.5C317,206.6,309.5,203.7,307,209.5z"/>
				<path fill="#263238" d="M321.2,192.1c0,0,2.6-7.5,8.5-6.2c5.9,1.3,5.4,7.6,1.2,9.6C326.6,197.5,320.7,196.7,321.2,192.1z"/>
				<path fill="#263238" d="M328.1,195.7c0,0,5.2,0,4.6,4.4c0,0-0.4-1.4-1.6-2c0,0,1.6,1.2,0,3.3c0,0,0.6-1.4-1.5-2.3
					c-2.2-1-8.1-0.9-7-3.8C323.7,192.4,328.1,195.7,328.1,195.7z"/>
			</g>
			<path fill="#407BFF" d="M322.9,211.7l-3.2-2.3c0,0-10.5,1.4-10.6,8.1C308.9,224.3,322.9,211.7,322.9,211.7z"/>
			<path opacity="0.2" enable-background="new    " d="M316.9,258.7l10,5c0,0-3.3-5.6-9.1-8.1C317.3,257.3,316.9,258.7,316.9,258.7z
				"/>
			<g>
				<g>
					<path fill="#263238" d="M324.8,211.7c0,0-7.9-1.5-18.9,5.8c0,0-3.7,16.1,11.9,38l29.5-1.8C347.3,253.7,339.3,221.5,324.8,211.7
						z"/>
					<path opacity="0.1" fill="#FFFFFF" enable-background="new    " d="M306.8,232.4c0.5,2.1,1.2,4.3,2.1,6.7
						c1.8,4.9,4.7,10.4,8.9,16.4l29.5-1.9c0,0-8-32.2-22.5-42c0,0-7.9-1.5-18.9,5.8C305.9,217.6,304.6,223.3,306.8,232.4z"/>
				</g>
				<path opacity="0.2" enable-background="new    " d="M306.8,232.4c0.5,2.1,1.2,4.3,2.1,6.7c0.3-3.5,1.5-8.6,1.5-8.6
					C309.6,230.6,307.4,232.1,306.8,232.4z"/>
			</g>
			<g>
				<g>
					<path fill="#263238" d="M314.3,223.3c-5.2,9.4-10.7,18.7-16.4,27.8c-2.5,4-8.7,2-8.4-2.7c0.4-6,0.9-12.1,1.4-18.1
						c0.5-6,1.1-12.1,1.9-18.1c0.4-3,4.7-2.8,5,0.2c0.7,12.1,0.9,24.2,0.9,36.3c0,0-8.5-2.4-8.5-2.4c3.7-7.1,7.5-14.1,11.5-21.1
						c1.3-2.3,2.6-4.6,4-6.9C309.1,212.9,317.2,217.5,314.3,223.3L314.3,223.3z"/>
					<path opacity="0.1" fill="#FFFFFF" d="M314.3,223.3c-5.2,9.4-10.7,18.7-16.4,27.8c-2.5,4-8.7,2-8.4-2.7
						c0.4-6,0.9-12.1,1.4-18.1c0.5-6,1.1-12.1,1.9-18.1c0.4-3,4.7-2.8,5,0.2c0.7,12.1,0.9,24.2,0.9,36.3c0,0-8.5-2.4-8.5-2.4
						c3.7-7.1,7.5-14.1,11.5-21.1c1.3-2.3,2.6-4.6,4-6.9C309.1,212.9,317.2,217.5,314.3,223.3L314.3,223.3z"/>
				</g>
				<polygon opacity="0.2" points="298.6,230.3 296.1,234.8 298.4,224.6 				"/>
			</g>
		</g>
		<g>
			<g>
				<path fill="#263238" d="M368.2,364.5l-25.2-9.3l-25.5,9.3c-0.9,0.3-1.8-0.3-1.8-1.3l0,0c0-0.5,0.3-1,0.8-1.2l26.5-12.3
					l26.2,12.3c0.5,0.2,0.8,0.7,0.8,1.2l0,0C370,364.2,369.1,364.9,368.2,364.5z"/>
				<path opacity="0.3" fill="#FFFFFF" d="M368.2,364.5l-25.2-9.3l-25.5,9.3c-0.9,0.3-1.8-0.3-1.8-1.3l0,0c0-0.5,0.3-1,0.8-1.2
					l26.5-12.3l26.2,12.3c0.5,0.2,0.8,0.7,0.8,1.2l0,0C370,364.2,369.1,364.9,368.2,364.5z"/>
				<polygon opacity="0.2" points="337.1,357.4 343,355.3 348.7,357.3 348.7,352.4 343,349.8 337.1,352.5 				"/>
				<path fill="#263238" d="M342.9,364.8L342.9,364.8c-1.2,0-2.1-0.9-2.2-2l-0.7-7.5v-62h5.9v62l-0.7,7.5
					C345,363.9,344,364.8,342.9,364.8z"/>
				<path opacity="0.3" fill="#FFFFFF" d="M342.9,364.8L342.9,364.8c-1.2,0-2.1-0.9-2.2-2l-0.7-7.5v-62h5.9v62l-0.7,7.5
					C345,363.9,344,364.8,342.9,364.8z"/>
				<rect x="339.9" y="293.2" opacity="0.2" width="5.9" height="7.2"/>
			</g>
			<g>
				<g>
					<g>
						<path fill="#407BFF" d="M383.8,287.6c-6.7-1.7-13.5-2.6-20.3-2.8c-7.1-0.2-33.5,0-39.8,0c-7.6,0-15.3,0.9-22.7,2.8
							c-4.7,1.2-3.2,7.9,1,8c0.4,0,80.3,0,80.6,0C386.9,295.8,388.5,288.8,383.8,287.6z"/>
						<path opacity="0.3" d="M383.8,287.6c-6.7-1.7-13.5-2.6-20.3-2.8c-7.1-0.2-33.5,0-39.8,0c-7.6,0-15.3,0.9-22.7,2.8
							c-4.7,1.2-3.2,7.9,1,8c0.4,0,80.3,0,80.6,0C386.9,295.8,388.5,288.8,383.8,287.6z"/>
					</g>
					<g>
						<path fill="#407BFF" d="M303.1,295.4c13.4-3.4,27.6-3.4,41.1,0c5.1,1.3,7.2-6.6,2.2-7.8c-14.8-3.8-30.6-3.8-45.4,0
							C295.9,288.9,298,296.7,303.1,295.4L303.1,295.4z"/>
					</g>
					<g opacity="0.3">
						<path fill="#FFFFFF" d="M303.1,295.4c13.4-3.4,27.6-3.4,41.1,0c5.1,1.3,7.2-6.6,2.2-7.8c-14.8-3.8-30.6-3.8-45.4,0
							C295.9,288.9,298,296.7,303.1,295.4L303.1,295.4z"/>
					</g>
				</g>
				<path fill="#407BFF" d="M362.4,229.3c-0.8,0-1.7,0.4-2.2,1.3c-10.8,17.9-14.6,39.4-10.9,60c0.2,1.3,1.1,1.9,2.1,2
					c1.6,0.1,30.6,0,31.7,0c1.6,0,3.3-1.3,2.9-3.4c-3.5-19.1,0.3-39.2,10.3-55.8c1.2-2.1-0.6-4-2.4-4
					C393,229.3,364.2,229.4,362.4,229.3z"/>
				<path opacity="0.2" d="M362.4,229.3c-0.8,0-1.7,0.4-2.2,1.3c-10.8,17.9-14.6,39.4-10.9,60c0.2,1.3,1.1,1.9,2.1,2
					c1.6,0.1,30.6,0,31.7,0c1.6,0,3.3-1.3,2.9-3.4c-3.5-19.1,0.3-39.2,10.3-55.8c1.2-2.1-0.6-4-2.4-4
					C393,229.3,364.2,229.4,362.4,229.3z"/>
				<g>
					<path fill="#407BFF" d="M354.5,289.2c-3.5-19.1,0.3-39.2,10.3-55.8c1.8-3-2.9-5.7-4.7-2.7c-10.8,17.9-14.6,39.4-10.9,60
						C349.9,294,355.1,292.6,354.5,289.2L354.5,289.2z"/>
				</g>
				<g opacity="0.2">
					<path fill="#FFFFFF" d="M354.5,289.2c-3.5-19.1,0.3-39.2,10.3-55.8c1.8-3-2.9-5.7-4.7-2.7c-10.8,17.9-14.6,39.4-10.9,60
						C349.9,294,355.1,292.6,354.5,289.2L354.5,289.2z"/>
				</g>
			</g>
		</g>
	</g>
</g>
<g id="Chart_4">
	<g>
		<g>
			<g>
				<g>
					<circle fill="#263238" cx="336.1" cy="146.9" r="18.9"/>
					<path fill="#407BFF" d="M336.1,146.9l13.2,13.5c-7.4,7.2-19.5,7-26.7-0.4c-7.2-7.4-7-19.5,0.4-26.7c3.7-3.6,8.6-5.5,13.7-5.3
						L336.1,146.9z"/>
					<path opacity="0.5" fill="#FFFFFF" d="M336.1,146.9l13.2,13.5c-2,2-4.4,3.4-7.1,4.3c-2.6,0.9-5.5,1.2-8.2,0.9L336.1,146.9z"/>
					<path opacity="0.4" fill="#FFFFFF" d="M336.1,146.9l16.3,9.4c-0.8,1.4-1.8,2.7-3,3.9c-7.3,7.3-19.4,7.3-26.7,0
						c-0.7-0.7-1.3-1.4-1.9-2.2L336.1,146.9z"/>
				</g>
				<circle fill="#FFFFFF" cx="336.1" cy="146.9" r="10"/>
			</g>
			<g>
				<g>
					<path fill="#263238" d="M396,131.3h-24c-0.2,0-0.3-0.2-0.3-0.3c0-0.2,0.2-0.3,0.3-0.3h24c0.2,0,0.3,0.2,0.3,0.3
						C396.3,131.2,396.2,131.3,396,131.3z"/>
				</g>
				<g>
					<path fill="#263238" d="M391.9,139.3h-20c-0.2,0-0.3-0.2-0.3-0.3c0-0.2,0.2-0.3,0.3-0.3h20c0.2,0,0.3,0.2,0.3,0.3
						C392.2,139.1,392.1,139.3,391.9,139.3z"/>
				</g>
				<g>
					<path fill="#263238" d="M400.1,147.2h-28.1c-0.2,0-0.3-0.2-0.3-0.3c0-0.2,0.2-0.3,0.3-0.3h28.1c0.2,0,0.3,0.2,0.3,0.3
						C400.4,147.1,400.3,147.2,400.1,147.2z"/>
				</g>
				<g>
					<path fill="#263238" d="M396,155.2h-24c-0.2,0-0.3-0.2-0.3-0.3c0-0.2,0.2-0.3,0.3-0.3h24c0.2,0,0.3,0.2,0.3,0.3
						C396.3,155,396.2,155.2,396,155.2z"/>
				</g>
				<g>
					<path fill="#263238" d="M397.3,163.1h-25.4c-0.2,0-0.3-0.2-0.3-0.3c0-0.2,0.2-0.3,0.3-0.3h25.4c0.2,0,0.3,0.2,0.3,0.3
						C397.7,163,397.5,163.1,397.3,163.1z"/>
				</g>
				<rect x="361.4" y="128.7" fill="#263238" width="4.8" height="4.7"/>
				<rect x="361.4" y="136.6" fill="#263238" width="4.8" height="4.7"/>
				<rect x="361.4" y="144.5" fill="#407BFF" width="4.8" height="4.7"/>
				<rect x="361.4" y="152.5" fill="#407BFF" width="4.8" height="4.7"/>
				<rect x="361.4" y="160.4" fill="#407BFF" width="4.8" height="4.7"/>
				<rect x="361.4" y="136.6" opacity="0.4" fill="#FFFFFF" width="4.8" height="4.7"/>
				<rect x="361.4" y="152.5" opacity="0.4" fill="#FFFFFF" width="4.8" height="4.7"/>
				<rect x="361.4" y="160.4" opacity="0.6" fill="#FFFFFF" width="4.8" height="4.7"/>
			</g>
		</g>
		<path fill="#407BFF" d="M402.2,173.3h-86.3c-4.6,0-8.4-3.8-8.4-8.4v-38.4c0-4.6,3.8-8.4,8.4-8.4h86.3c4.6,0,8.4,3.8,8.4,8.4v38.4
			C410.6,169.5,406.8,173.3,402.2,173.3z M315.9,119c-4.1,0-7.4,3.3-7.4,7.4v38.4c0,4.1,3.3,7.4,7.4,7.4h86.3c4.1,0,7.4-3.3,7.4-7.4
			v-38.4c0-4.1-3.3-7.4-7.4-7.4H315.9z"/>
	</g>
</g>
<g id="Chart_3">
	<g>
		<g>
			<g>
				<rect x="224.7" y="140.6" fill="#407BFF" width="2.7" height="49.8"/>
				<rect x="224.7" y="140.6" opacity="0.2" enable-background="new    " width="2.7" height="49.8"/>
				<rect x="229.2" y="151.7" fill="#263238" width="2.7" height="38.7"/>
				<rect x="229.2" y="151.7" opacity="0.4" fill="#FFFFFF" width="2.7" height="38.7"/>
				<rect x="215.6" y="170.1" fill="#407BFF" width="2.7" height="20.3"/>
				<rect x="220.1" y="162.7" fill="#407BFF" width="2.7" height="27.7"/>
				<rect x="233.7" y="148" fill="#263238" width="2.7" height="42.4"/>
				<rect x="229.2" y="156.7" opacity="0.4" fill="#FFFFFF" width="2.7" height="33.7"/>
				<rect x="233.7" y="154.6" opacity="0.4" fill="#FFFFFF" width="2.7" height="35.8"/>
				<rect x="224.7" y="145" fill="#407BFF" width="2.7" height="45.4"/>
				<rect x="220.1" y="172.5" opacity="0.4" fill="#FFFFFF" width="2.7" height="17.9"/>
				<rect x="215.6" y="170.1" opacity="0.2" fill="#FFFFFF" width="2.7" height="20.3"/>
				<rect x="215.6" y="174.7" opacity="0.4" fill="#FFFFFF" width="2.7" height="15.7"/>
			</g>
			<g>
				<path fill="#263238" d="M237.9,190.6h-23.7c-0.1,0-0.2-0.1-0.2-0.2c0-0.1,0.1-0.2,0.2-0.2h23.7c0.1,0,0.2,0.1,0.2,0.2
					C238,190.5,237.9,190.6,237.9,190.6z"/>
			</g>
		</g>
		<rect x="262.5" y="151.7" fill="#407BFF" width="2.7" height="38.7"/>
		<rect x="262.5" y="151.7" opacity="0.2" enable-background="new    " width="2.7" height="38.7"/>
		<rect x="267" y="152.7" fill="#263238" width="2.7" height="37.7"/>
		<rect x="267" y="152.7" opacity="0.4" fill="#FFFFFF" width="2.7" height="37.7"/>
		<rect x="253.5" y="159.1" fill="#407BFF" width="2.7" height="31.2"/>
		<rect x="258" y="158.2" fill="#407BFF" width="2.7" height="32.1"/>
		<rect x="271.6" y="162.3" fill="#263238" width="2.7" height="28.1"/>
		<rect x="267" y="157.6" opacity="0.4" fill="#FFFFFF" width="2.7" height="32.8"/>
		<rect x="271.6" y="166.6" opacity="0.4" fill="#FFFFFF" width="2.7" height="23.8"/>
		<rect x="262.5" y="155.1" fill="#407BFF" width="2.7" height="35.3"/>
		<rect x="258" y="163.8" opacity="0.4" fill="#FFFFFF" width="2.7" height="26.6"/>
		<rect x="253.5" y="159.1" opacity="0.2" fill="#FFFFFF" width="2.7" height="31.2"/>
		<rect x="253.5" y="166.3" opacity="0.4" fill="#FFFFFF" width="2.7" height="24.1"/>
		<g>
			<path fill="#263238" d="M275.7,190.6H252c-0.1,0-0.2-0.1-0.2-0.2c0-0.1,0.1-0.2,0.2-0.2h23.7c0.1,0,0.2,0.1,0.2,0.2
				C275.9,190.5,275.8,190.6,275.7,190.6z"/>
		</g>
		<path fill="#407BFF" d="M279.3,201.3h-68c-4.6,0-8.4-3.8-8.4-8.4v-52.4c0-4.6,3.8-8.4,8.4-8.4h68c4.6,0,8.4,3.8,8.4,8.4v52.4
			C287.7,197.5,284,201.3,279.3,201.3z M211.3,133c-4.1,0-7.4,3.3-7.4,7.4v52.4c0,4.1,3.3,7.4,7.4,7.4h68c4.1,0,7.4-3.3,7.4-7.4
			v-52.4c0-4.1-3.3-7.4-7.4-7.4H211.3z"/>
	</g>
</g>
<g id="Chart_2">
	<g>
		<g>
			<g opacity="0.2" enable-background="new    ">
				<polygon points="349.3,98.2 280.2,98.2 280.2,59.4 280.7,59.4 280.7,97.6 349.3,97.6 				"/>
			</g>
			<g>
				<g>
					<rect x="283.8" y="91.7" opacity="0.2" enable-background="new    " width="3" height="5.6"/>
					<rect x="283.8" y="91.7" fill="#407BFF" width="3" height="1.6"/>
				</g>
				<g>
					<rect x="289.9" y="82.8" opacity="0.2" enable-background="new    " width="3" height="14.5"/>
					<rect x="289.9" y="82.8" fill="#407BFF" width="3" height="4.2"/>
				</g>
				<g>
					<rect x="296" y="86.2" opacity="0.2" enable-background="new    " width="3" height="11.2"/>
					<rect x="296" y="86.2" fill="#407BFF" width="3" height="3.3"/>
				</g>
				<g>
					<rect x="302.1" y="81" opacity="0.2" enable-background="new    " width="3" height="16.3"/>
					<rect x="302.1" y="81" fill="#407BFF" width="3" height="4.8"/>
				</g>
				<g>
					<rect x="308.2" y="76.3" opacity="0.2" enable-background="new    " width="3" height="21.1"/>
					<rect x="308.2" y="76.3" fill="#407BFF" width="3" height="6.1"/>
				</g>
				<g>
					<rect x="314.3" y="72.7" opacity="0.2" enable-background="new    " width="3" height="24.7"/>
					<rect x="314.3" y="72.7" fill="#407BFF" width="3" height="7.2"/>
				</g>
				<g>
					<rect x="320.4" y="76.8" opacity="0.2" enable-background="new    " width="3" height="20.5"/>
					<rect x="320.4" y="76.8" fill="#407BFF" width="3" height="6"/>
				</g>
				<g>
					<rect x="326.5" y="75.9" opacity="0.2" enable-background="new    " width="3" height="21.4"/>
					<rect x="326.5" y="75.9" fill="#407BFF" width="3" height="6.2"/>
				</g>
				<g>
					<rect x="332.6" y="70.5" opacity="0.2" enable-background="new    " width="3" height="26.9"/>
					<rect x="332.6" y="70.5" fill="#407BFF" width="3" height="7.8"/>
				</g>
				<g>
					<rect x="338.7" y="65" opacity="0.2" enable-background="new    " width="3" height="32.4"/>
					<rect x="338.7" y="65" fill="#407BFF" width="3" height="9.4"/>
				</g>
				<g>
					<rect x="344.8" y="60.1" opacity="0.2" enable-background="new    " width="3" height="37.2"/>
					<rect x="344.8" y="60.1" fill="#407BFF" width="3" height="10.8"/>
				</g>
			</g>
			<rect x="296" y="53.6" opacity="0.2" enable-background="new    " width="37" height="1.5"/>
		</g>
		<path fill="#407BFF" d="M351.3,108.1h-73.7c-4.6,0-8.4-3.8-8.4-8.4V48.2c0-4.6,3.8-8.4,8.4-8.4h73.7c4.6,0,8.4,3.8,8.4,8.4v51.4
			C359.7,104.3,355.9,108.1,351.3,108.1z M277.6,40.8c-4.1,0-7.4,3.3-7.4,7.4v51.4c0,4.1,3.3,7.4,7.4,7.4h73.7
			c4.1,0,7.4-3.3,7.4-7.4V48.2c0-4.1-3.3-7.4-7.4-7.4H277.6z"/>
	</g>
</g>
<g id="Chart_1">
	<g>
		<g>
			<g>
				<path fill="#407BFF" d="M148.1,108.8c0,0,13-21.1,17.1-21.5c4.1-0.4,8.8,11.9,12.2,10.7c3.4-1.2,23.1-36.1,27.6-35.2
					c4.5,0.9,11.6,19.8,13.3,19.5c1.7-0.3,3.9-3.8,8.8,5.9c4.9,9.6,8.8,20.6,8.8,20.6H148.1z"/>
				<path opacity="0.4" fill="#FFFFFF" d="M148.1,108.8c0,0,13-21.1,17.1-21.5c4.1-0.4,8.8,11.9,12.2,10.7
					c3.4-1.2,23.1-36.1,27.6-35.2c4.5,0.9,11.6,19.8,13.3,19.5c1.7-0.3,3.9-3.8,8.8,5.9c4.9,9.6,8.8,20.6,8.8,20.6H148.1z"/>
			</g>
			<path fill="#407BFF" d="M227.1,108.8c0,0-16.5-36.2-21.8-37.9c-5.3-1.6-12.4,14.4-16,17.3c-3.6,2.9-9.3-10.5-11.7-10.7
				c-2.3-0.2-13.1,20.8-16.7,20.7c-3.6-0.2-4.1-2.9-7.9-4.5c-3.8-1.5-13.3,15.1-13.3,15.1H227.1z"/>
			<g>
				<path fill="#263238" d="M230.1,108.8c0,0-8.1-13.6-11.3-16.8c-3.2-3.2-7.7,8-10.9,8.4c-3.2,0.4-15-22.3-18.4-24
					c-3.4-1.7-10.3,18.4-13.6,18.8c-3.3,0.4-10-12.2-13.6-12.8c-3.6-0.7-19.9,26.4-19.9,26.4H230.1z"/>
				<path opacity="0.4" fill="#FFFFFF" d="M230.1,108.8c0,0-8.1-13.6-11.3-16.8c-3.2-3.2-7.7,8-10.9,8.4c-3.2,0.4-15-22.3-18.4-24
					c-3.4-1.7-10.3,18.4-13.6,18.8c-3.3,0.4-10-12.2-13.6-12.8c-3.6-0.7-19.9,26.4-19.9,26.4H230.1z"/>
			</g>
			<g>
				<rect x="137.6" y="108.5" fill="#263238" width="99.5" height="0.7"/>
			</g>
			<path fill="#263238" d="M227.9,108.8c0,0-4-10-7.3-9.8c-3.4,0.2-4.7,7.5-7.9,7.1c-3.2-0.4-6.9-12-11.7-11.5
				c-4.8,0.6-5.7,7.5-8.7,8.8c-3,1.3-8.9-7.6-12.7-8.8c-3.8-1.2-8.4,10.7-12.5,11.5c-4.1,0.8-5.8-4.9-8.3-4.4
				c-2.4,0.5-9.3,7.1-9.3,7.1H227.9z"/>
		</g>
		<path fill="#407BFF" d="M237,119.5h-99.4c-4.6,0-8.4-3.8-8.4-8.4V60.7c0-4.6,3.8-8.4,8.4-8.4H237c4.6,0,8.4,3.8,8.4,8.4v50.4
			C245.4,115.7,241.6,119.5,237,119.5z M137.6,53.3c-4.1,0-7.4,3.3-7.4,7.4v50.4c0,4.1,3.3,7.4,7.4,7.4H237c4.1,0,7.4-3.3,7.4-7.4
			V60.7c0-4.1-3.3-7.4-7.4-7.4H137.6z"/>
	</g>
</g>
</svg>
