<?xml version="1.0" encoding="utf-8"?>
<!-- Generator: Adobe Illustrator 17.1.0, SVG Export Plug-In . SVG Version: 6.00 Build 0)  -->
<!DOCTYPE svg PUBLIC "-//W3C//DTD SVG 1.1//EN" "http://www.w3.org/Graphics/SVG/1.1/DTD/svg11.dtd">
<svg version="1.1" id="Layer_1" xmlns="http://www.w3.org/2000/svg" xmlns:xlink="http://www.w3.org/1999/xlink" x="0px" y="0px"
	 viewBox="0 0 500 100" enable-background="new 0 0 500 100" xml:space="preserve">
<g>
	<path fill="#00243A" d="M9.5,78.3c-4.8-2.8-7.2-6.7-7.2-11.7c0-2.2,0.8-3.9,2.5-5.3c1.6-1.3,4.4-2,8.2-2c0.2,4.3,1.7,7.5,4.4,9.7
		c2.7,2.2,6.5,3.3,11.5,3.3c3.8,0,6.8-0.7,9-2c2.2-1.3,3.2-3.1,3.2-5.5c0-1.6-0.4-2.9-1.2-3.9c-0.8-1-2.2-1.9-4.3-2.7
		c-2-0.8-5-1.7-8.8-2.5C21,54.4,16.4,52.9,13,51.2c-3.3-1.7-5.7-3.7-7.2-6.1c-1.5-2.3-2.2-5.3-2.2-8.8c0-3.3,1-6.3,3-8.8
		c2-2.5,4.8-4.5,8.5-5.9c3.6-1.4,7.8-2.1,12.6-2.1c4.6,0,8.7,0.6,12.3,1.8c3.6,1.2,6.5,2.9,8.5,5c2,2.2,3.1,4.7,3.1,7.5
		c0,2.2-0.8,3.9-2.4,5.1c-1.6,1.3-4.3,1.9-7.9,2.1c-0.3-3.9-1.5-6.8-3.6-8.6c-2.1-1.8-5.4-2.7-9.9-2.7c-3.7,0-6.5,0.6-8.5,1.8
		c-2,1.2-3,2.9-3,5.1c0,1.5,0.4,2.8,1.1,3.7c0.8,1,2.1,1.8,3.9,2.6c1.8,0.8,4.5,1.5,7.9,2.3c6,1.3,10.8,2.9,14.3,4.6
		c3.5,1.7,6.1,3.8,7.7,6.2c1.6,2.4,2.4,5.4,2.4,8.9c0,3.6-1,6.7-3,9.4c-2,2.7-4.9,4.8-8.6,6.2c-3.7,1.4-8.1,2.2-13.1,2.2
		C20.7,82.5,14.3,81.1,9.5,78.3z"/>
	<path fill="#00243A" d="M73,79.7c-4-1.9-7.2-4.5-9.6-7.7c-2.4-3.2-3.6-6.7-3.6-10.5V40.6c0-3.7,1.2-7.2,3.6-10.5
		c2.4-3.2,5.6-5.8,9.6-7.7c4-1.9,8.5-2.9,13.3-2.9s9.2,1,13.3,2.9c4,1.9,7.2,4.5,9.6,7.7c2.4,3.2,3.6,6.7,3.6,10.5v20.9
		c0,3.7-1.2,7.2-3.6,10.5c-2.4,3.2-5.6,5.8-9.6,7.7c-4,1.9-8.5,2.9-13.3,2.9S77,81.6,73,79.7z M96,68.5c2.5-1.9,3.8-4.3,3.8-7.3
		V40.8c0-3-1.3-5.4-3.8-7.3c-2.5-1.9-5.8-2.8-9.7-2.8s-7.2,0.9-9.7,2.8c-2.5,1.9-3.8,4.3-3.8,7.3v20.4c0,3,1.3,5.4,3.8,7.3
		c2.5,1.9,5.8,2.8,9.7,2.8S93.5,70.4,96,68.5z"/>
	<path fill="#00243A" d="M120.5,28.9c0-2.9,1.2-5.2,3.5-6.9c2.3-1.7,5.5-2.6,9.4-2.6L151,64.2l-2.2,6l1,0.4l18.9-51.1
		c3.9,0,7,0.9,9.4,2.6c2.3,1.7,3.5,4,3.5,6.9v53.5c-8.4,0-12.6-3.1-12.6-9.2V48.2l3.2-8.8l-1.1-0.4l-14.9,40c-0.4,1-1.1,1.8-2,2.5
		c-0.9,0.6-2,1-3.1,1c-1.2,0-2.2-0.3-3.2-1c-0.9-0.6-1.6-1.5-2-2.5L131,38.9l-1.1,0.4l3.2,8.8v25.2c0,6.1-4.2,9.2-12.6,9.2V28.9z"/>
	<path fill="#00243A" d="M217.3,29.1c0-3,1.1-5.4,3.3-7.1c2.2-1.7,5.4-2.5,9.6-2.5v27.6l28.5-27.6c1.6,1.2,3,2.6,4,4
		c1,1.4,1.5,2.7,1.5,3.7c0,1-0.3,1.9-1,2.7c-0.6,0.8-1.7,1.9-3.1,3.2l-16.6,15.6l23.3,29.6c-2,2.8-4.6,4.1-7.8,4.1
		c-3,0-5.4-1.1-7.2-3.4l-17-22.2l-4.7,4.6v12.2c0,3.1-1,5.4-3.1,6.8c-2.1,1.4-5.3,2.1-9.8,2.1V29.1z"/>
	<path fill="#00243A" d="M282.2,79.7c-4-1.9-7.2-4.5-9.6-7.7c-2.4-3.2-3.6-6.7-3.6-10.5V40.6c0-3.7,1.2-7.2,3.6-10.5
		c2.4-3.2,5.6-5.8,9.6-7.7c4-1.9,8.5-2.9,13.3-2.9s9.2,1,13.3,2.9c4,1.9,7.2,4.5,9.6,7.7c2.4,3.2,3.6,6.7,3.6,10.5v20.9
		c0,3.7-1.2,7.2-3.6,10.5c-2.4,3.2-5.6,5.8-9.6,7.7c-4,1.9-8.5,2.9-13.3,2.9S286.2,81.6,282.2,79.7z M305.2,68.5
		c2.5-1.9,3.8-4.3,3.8-7.3V40.8c0-3-1.3-5.4-3.8-7.3c-2.5-1.9-5.8-2.8-9.7-2.8s-7.2,0.9-9.7,2.8c-2.5,1.9-3.8,4.3-3.8,7.3v20.4
		c0,3,1.3,5.4,3.8,7.3c2.5,1.9,5.8,2.8,9.7,2.8S302.7,70.4,305.2,68.5z"/>
	<path fill="#00243A" d="M329.8,26.2c0-1.7,0.6-3.1,1.9-4.2c1.3-1.1,2.8-1.7,4.6-1.7h23.1c6.6,0,11.6,1.7,15.1,5
		c3.5,3.4,5.3,8.1,5.3,14.3c0,3.5-0.7,6.3-2.1,8.7c-1.4,2.3-3.5,4.2-6.4,5.5v0.4c5.1,2.3,7.6,6.6,7.6,12.9v6.1c0,3-1.1,5.4-3.3,6.9
		c-2.2,1.6-5.4,2.4-9.6,2.4V67.6c0-2.9-0.6-5.1-1.7-6.5s-2.9-2.1-5.2-2.1h-16.7v14.1c0,3-1.1,5.4-3.2,6.9c-2.2,1.6-5.3,2.4-9.5,2.4
		V26.2z M358.6,48.1c2.7,0,4.7-0.7,6.1-2.2c1.4-1.5,2.1-3.6,2.1-6.3c0-2.9-0.7-5-2-6.3c-1.3-1.3-3.4-2-6.3-2h-16.1v16.9H358.6z"/>
	<path fill="#00243A" d="M400,79.7c-4-1.9-7.2-4.5-9.6-7.7c-2.4-3.2-3.6-6.7-3.6-10.5V40.6c0-3.7,1.2-7.2,3.6-10.5
		c2.4-3.2,5.6-5.8,9.6-7.7c4-1.9,8.5-2.9,13.3-2.9c4.8,0,9.2,1,13.3,2.9c4,1.9,7.2,4.5,9.6,7.7c2.4,3.2,3.6,6.7,3.6,10.5v20.9
		c0,3.7-1.2,7.2-3.6,10.5c-2.4,3.2-5.6,5.8-9.6,7.7c-4,1.9-8.5,2.9-13.3,2.9C408.4,82.5,404,81.6,400,79.7z M423,68.5
		c2.5-1.9,3.8-4.3,3.8-7.3V40.8c0-3-1.3-5.4-3.8-7.3c-2.5-1.9-5.8-2.8-9.7-2.8c-4,0-7.2,0.9-9.7,2.8c-2.5,1.9-3.8,4.3-3.8,7.3v20.4
		c0,3,1.3,5.4,3.8,7.3c2.5,1.9,5.8,2.8,9.7,2.8C417.2,71.3,420.4,70.4,423,68.5z"/>
	<path fill="#00243A" d="M447.5,29.6c0-3.1,1.1-5.6,3.2-7.4c2.1-1.8,4.9-2.7,8.5-2.7l28.2,44.6l1-0.8l-3.9-6.6V19.5
		c4.2,0,7.3,0.8,9.5,2.4c2.2,1.6,3.2,3.9,3.2,6.9V74c0,1.5-0.5,2.9-1.4,4.2c-0.9,1.3-2.1,2.4-3.6,3.2c-1.5,0.8-3.1,1.2-4.8,1.2
		l-30-47.5l-1,0.8l3.9,6.6v30.8c0,3-1.1,5.4-3.2,6.9c-2.2,1.6-5.3,2.4-9.5,2.4V29.6z"/>
	<g>
		<path fill="#00243A" d="M204,34.2v39.2c0,2.9-0.7,5.1-2.9,6.7c-2.3,1.6-5.1,2.4-9.1,2.4V43.3c0-2.8,0.7-5.1,2.9-6.7
			C197.2,35,201,34.2,204,34.2z"/>
		<circle fill="#FF0000" cx="198.4" cy="24.3" r="6.7"/>
	</g>
</g>
</svg>
