<?xml version="1.0" encoding="utf-8"?>
<!-- Generator: Adobe Illustrator 17.1.0, SVG Export Plug-In . SVG Version: 6.00 Build 0)  -->
<!DOCTYPE svg PUBLIC "-//W3C//DTD SVG 1.1//EN" "http://www.w3.org/Graphics/SVG/1.1/DTD/svg11.dtd">
<svg version="1.1" xmlns="http://www.w3.org/2000/svg" xmlns:xlink="http://www.w3.org/1999/xlink" x="0px" y="0px"
	 viewBox="0 0 750 560" enable-background="new 0 0 750 560" xml:space="preserve">
<g id="Background_Complete">
</g>
<g id="Background_Simple" display="none">
	<path display="inline" fill="#EBEBEB" d="M586.8,329.7c23.3-9.7,43.7-23.3,59.3-40.2c19.4-21.1,26.6-32.9,34.9-54.4
		c14.5-37.3,3-71.2-7.7-102.2C661.9,100,625.6,74.1,584,67c-41.5-7.1-86.6,4.1-117.7,27.3c-19.8,14.8-34.4,34-56.5,46.3
		c-36.4,20.2-85,17.5-128.6,11.2c-43.6-6.3-88.8-15.3-131.3-5.3c-53.3,12.6-87.2,57.3-87.4,102.1c-0.3,59.7,62.8,101.4,120.3,114.9
		c35.5,8.3,93.7,19.2,164.9,17.7C453.4,379,543.2,347.8,586.8,329.7z"/>
</g>
<g id="Floor">
</g>
<g id="Screens">
</g>
<g id="Character_2">
</g>
<g id="Character_1">
</g>
<g id="Plant">
	<path fill="#F3F6FF" d="M740.2,166.7c-19.7-75.4-98.7-134.1-211.9-79.6c-113.2,54.4-160.8,21.3-243.6-41.7
		C175-38.1,32.1-1.3,6.7,146.8c-27.9,163,89.2,291.6,153.6,340.4c64.4,48.8,280.3,145,481.8-28C724.1,388.7,764.9,261.1,740.2,166.7
		z"/>
	<g>
		<g>
			<g>
				<g>
					<g>
						<g>
							<rect x="441.4" y="316" fill="#E0E0E0" width="30.4" height="4.1"/>
						</g>
					</g>
				</g>
				<g>
					<g>
						<g>
							<g>
								<ellipse fill="#FAFAFA" cx="445.6" cy="318" rx="0.2" ry="1.9"/>
							</g>
						</g>
					</g>
				</g>
				<g>
					<g>
						<g>
							<g>
								<ellipse fill="#FAFAFA" cx="444.9" cy="318" rx="0.2" ry="1.9"/>
							</g>
						</g>
					</g>
				</g>
				<g>
					<g>
						<g>
							<g>
								<ellipse fill="#FAFAFA" cx="469.5" cy="318" rx="0.2" ry="1.9"/>
							</g>
						</g>
					</g>
				</g>
				<g>
					<g>
						<g>
							<g>
								<ellipse fill="#FAFAFA" cx="468.8" cy="318" rx="0.2" ry="1.9"/>
							</g>
						</g>
					</g>
				</g>
				<g>
					<g>
						<g>
							<g>
								<ellipse fill="#FAFAFA" cx="457.1" cy="318.1" rx="7.8" ry="0.2"/>
							</g>
						</g>
					</g>
				</g>
			</g>
			<g>
				<g>
					<g>
						<g>
							<rect x="441.3" y="334.3" fill="#E0E0E0" width="30.4" height="8.1"/>
						</g>
					</g>
				</g>
				<g>
					<g>
						<g>
							<g>
								<path fill="#FAFAFA" d="M472.1,340.1c0,0-0.1,0-0.2,0.1c-0.1,0.1-0.3,0.1-0.5,0.2c-0.5,0.2-1.1,0.4-2.1,0.6
									c-0.9,0.1-2.1,0.2-3.3-0.5c-0.6-0.3-1.2-0.8-1.6-1.4c-0.4-0.6-0.7-1.5-0.6-2.3c0.1-0.4,0.3-0.9,0.6-1.2
									c0.3-0.4,0.8-0.6,1.3-0.6c0.5,0,1,0.3,1.3,0.7c0.3,0.4,0.5,0.9,0.6,1.4c0.1,1-0.3,2.1-1,2.9c-0.7,0.8-1.8,1.3-2.9,1.4
									c-1.1,0.1-2.3,0-3.4-0.4c-1.1-0.4-2.2-1-3-2c-0.4-0.5-0.7-1.1-0.7-1.8c-0.1-0.6,0.2-1.3,0.6-1.8c0.2-0.2,0.6-0.4,1-0.4
									c0.4,0,0.7,0.1,1,0.3c0.6,0.4,1,1,1.1,1.6c0.3,1.3-0.2,2.7-1.2,3.6c-1,0.9-2.2,1.3-3.4,1.4c-1.2,0.1-2.4,0-3.6-0.3
									c-1.1-0.4-2.1-1.1-2.7-2.1c-0.6-1-0.8-2.2-0.3-3.2c0.2-0.5,0.7-1,1.2-1.1c0.5-0.1,1.1,0,1.5,0.4c0.9,0.7,1,1.9,0.7,2.7
									c-0.3,0.9-0.9,1.6-1.5,2.2c-1.3,1.1-2.8,1.6-4.2,1.6c-1.3,0-2.5-0.3-3.3-0.8c-0.8-0.4-1.4-0.9-1.7-1.3
									c-0.2-0.2-0.3-0.3-0.4-0.4c-0.1-0.1-0.1-0.2-0.1-0.2c0-0.1,0.6,0.9,2.3,1.7c0.8,0.4,1.9,0.7,3.2,0.7c1.3-0.1,2.8-0.5,4-1.6
									c0.6-0.5,1.2-1.2,1.4-2c0.2-0.8,0.1-1.8-0.6-2.4c-0.4-0.3-0.8-0.4-1.3-0.3c-0.5,0.1-0.8,0.4-1,0.9c-0.4,0.9-0.2,2,0.3,2.9
									c0.5,0.9,1.5,1.6,2.5,1.9c1.1,0.4,2.2,0.4,3.4,0.3c1.2-0.1,2.3-0.5,3.2-1.3c0.9-0.8,1.3-2.1,1.1-3.2
									c-0.1-0.6-0.5-1.1-0.9-1.4c-0.5-0.3-1.1-0.3-1.5,0.1c-0.4,0.4-0.6,1-0.5,1.5c0,0.6,0.3,1.1,0.6,1.6c0.7,0.9,1.7,1.5,2.8,1.9
									c1.1,0.4,2.2,0.5,3.2,0.4c1.1-0.1,2-0.6,2.7-1.3c0.7-0.7,1.1-1.7,1-2.6c-0.1-0.9-0.8-1.8-1.6-1.8c-0.4,0-0.8,0.2-1.1,0.5
									c-0.3,0.3-0.4,0.7-0.5,1.1c-0.1,0.8,0.1,1.6,0.5,2.2c0.4,0.6,0.9,1.1,1.5,1.4c1.1,0.6,2.3,0.6,3.2,0.5
									c0.9-0.1,1.6-0.4,2.1-0.5C471.9,340.2,472.1,340.1,472.1,340.1z"/>
							</g>
						</g>
					</g>
				</g>
			</g>
			<g>
				<g>
					<g>
						<g>
							<rect x="444" y="320.2" fill="#EBEBEB" width="27.7" height="14.1"/>
						</g>
					</g>
				</g>
				<g>
					<g>
						<g>
							<g>
								<ellipse fill="#E0E0E0" cx="448.6" cy="327.5" rx="0.2" ry="6.8"/>
							</g>
						</g>
					</g>
				</g>
				<g>
					<g>
						<g>
							<g>
								<ellipse fill="#E0E0E0" cx="450.7" cy="327.2" rx="0.2" ry="6.7"/>
							</g>
						</g>
					</g>
				</g>
				<g>
					<g>
						<g>
							<g>
								<ellipse fill="#E0E0E0" cx="468.6" cy="327.1" rx="0.2" ry="7.1"/>
							</g>
						</g>
					</g>
				</g>
				<g>
					<g>
						<g>
							<g>
								<ellipse fill="#E0E0E0" cx="466.1" cy="327.1" rx="0.2" ry="6.9"/>
							</g>
						</g>
					</g>
				</g>
			</g>
		</g>
		<rect x="279" y="159.5" fill="#E0E0E0" width="186.9" height="124"/>
		<g>
			<g>
				<path fill="#F5F5F5" d="M129.7,168.6c-0.3-17.5,13.7-32,31.2-32.3c17.5-0.3,31.9,13.8,32.2,31.3c0.3,17.5-13.7,32-31.2,32.3
					C144.4,200.1,130,186.1,129.7,168.6z M176.5,167.8c-0.1-8.4-7-15.1-15.4-15c-8.3,0.1-15,7.1-14.9,15.5c0.1,8.4,7,15.1,15.4,15
					C170,183.1,176.7,176.2,176.5,167.8z"/>
			</g>
			<g>
				<path fill="#E0E0E0" d="M129.7,168.6c-0.3-17.5,13.7-32,31.2-32.3l0.3,16.6c-8.3,0.1-15,7.1-14.9,15.5c0.1,8.4,7,15.1,15.4,15
					l0.3,16.6C144.4,200.1,130,186.1,129.7,168.6z"/>
			</g>
			<g>
				<path fill="#EBEBEB" d="M158,133.7c20.4-0.3,36.7,15.5,37,36l-19.3,0.3c-0.2-9.8-7.6-16-17.4-15.8L158,133.7z"/>
			</g>
		</g>
		<g>
			<g>
				<g>
					<path fill="#F5F5F5" d="M281.2,423.7c-0.8-0.7-2.6-2.9-1.2-5.5c0.5-0.9,1.6-1.4,2.6-1.8c1-0.4,2-0.8,2.8-1.5
						c1.5-1.3,2-3.5,3-5.2c1.2-2,3.4-3.5,5.7-3.4c2.6,0.1,4.9,2.3,5.9,4.8c1,2.5,1,5.2,1.1,7.9c0,1.5-0.1,3.1-1.1,4.1
						c-1,0.9-2.5,0.9-3.9,0.9c-4.8-0.1-9.7-0.3-14.5-0.4"/>
				</g>
			</g>
			<g>
				<g>
					<g>
						<path fill="#E0E0E0" d="M308.9,383.9h-38.1l6.9,40.9c0.3,1.8,1.6,3.2,3.3,3.6c0,0,0.1,0,0.1,0c0.1,0,0.2,0.1,0.3,0.1
							c0.3,0.1,0.5,0.1,0.8,0.1c0,0,0,0,0,0l0.2,0c0,0,0,0,0,0h17c0.3,0,0.6,0,0.9-0.1c2-0.3,3.6-1.9,3.9-4l3.3-28.2l0.1-1.1h0
							l1.3-11.2L308.9,383.9z M301.7,410h-3.9l0.4-11.9h4.5L301.7,410z M303.1,398.1h3.7l-1.4,11.9h-3.4L303.1,398.1z M291.9,423.1
							l-0.2-10.3h5.6l-0.3,10.3H291.9z M285.8,412.8h5.5l0.2,10.3h-4.9L285.8,412.8z M286.3,423.1h-4.6c-0.4-2.8-1-6.4-1.6-10.3h5.4
							L286.3,423.1z M285.6,410l-0.9-11.9h6.3l0.3,11.9H285.6z M291.6,410l-0.3-11.9h6.5l-0.4,11.9H291.6z M291.3,395.2l-0.3-11h7.2
							l-0.4,11H291.3z M290.9,395.2h-6.4l-0.9-11h7L290.9,395.2z M284.1,395.2h-6.8c-0.2-1.5-0.5-3-0.7-4.2c-0.7-4.4-1-6.1-1.1-6.7
							h7.7L284.1,395.2z M284.3,398.1l0.9,11.9h-5.6c-0.2-1.2-0.4-2.4-0.6-3.6c-0.4-2.8-0.9-5.6-1.3-8.2H284.3z M279.2,410h-3.7
							l-2-11.9h3.8C277.9,401.8,278.6,405.8,279.2,410z M279.7,412.8c0.6,3.6,1.1,7.1,1.6,10.3h-3.5l-1.7-10.3H279.7z M297.4,423.1
							l0.3-10.3h3.8l-0.9,10.3H297.4z M298.3,395.2l0.4-11h5.3l-0.9,11H298.3z M275.1,384.2c0.2,0.8,0.8,5.1,1.8,11h-3.8l-1.8-11
							H275.1z M303.9,423.1H301l0.9-10.3h3.3L303.9,423.1z M307.2,395.2h-3.8l0.9-11h4.2L307.2,395.2z"/>
					</g>
				</g>
			</g>
		</g>
		<g>
			<rect x="576.2" y="178.8" fill="#E0E0E0" width="8.2" height="32.8"/>
			<rect x="588.3" y="186" fill="#E0E0E0" width="8.2" height="25.6"/>
			<rect x="600.5" y="191.8" fill="#E0E0E0" width="8.2" height="19.8"/>
			<rect x="611.9" y="199.9" fill="#E0E0E0" width="8.2" height="11.7"/>
		</g>
		<g>
			<g>
				<path fill="#F5F5F5" d="M606.9,252.3c-11.4-10.6-29.3-10-39.9,1.4c-10.6,11.3-10,29.1,1.4,39.6c11.4,10.6,29.3,10,39.9-1.4
					C618.8,280.7,618.2,262.9,606.9,252.3z M597.5,282c-5.1,5.4-13.6,5.7-19.1,0.6c-5.4-5-5.7-13.6-0.6-19
					c5.1-5.4,13.6-5.7,19.1-0.6C602.2,268.1,602.5,276.6,597.5,282z"/>
				<g>
					<path fill="#EBEBEB" d="M567,253.7c10.6-11.3,28.5-11.9,39.9-1.4L596.8,263c-5.4-5-14-4.8-19.1,0.6c-5.1,5.4-4.8,13.9,0.6,19
						l-10.1,10.7C557,282.7,556.4,265,567,253.7z"/>
				</g>
				<g>
					<path fill="#FAFAFA" d="M605.7,247.7c13.9,12.9,15.6,34,2.6,47.8l-14.1-12.2c6.2-6.6,7.6-15.5,0.9-21.6L605.7,247.7z"/>
				</g>
			</g>
		</g>
		<g>
			<g>
				<g>
					<path fill="#E0E0E0" d="M300.9,321.2h-75.3c-1.3,0-2.3-1-2.3-2.3V301c0-1.3,1-2.3,2.3-2.3h75.3c1.3,0,2.3,1,2.3,2.3v17.8
						C303.2,320.2,302.1,321.2,300.9,321.2z"/>
				</g>
			</g>
			<g>
				<g>
					<path fill="#F5F5F5" d="M240.1,313.7c-1.7,2.1-4.7,2.4-6.8,0.8c-2.1-1.7-2.4-4.8-0.8-6.9c1.7-2.1,4.7-2.4,6.8-0.8
						C241.4,308.5,241.8,311.6,240.1,313.7z"/>
				</g>
			</g>
			<g>
				<g>
					<g>
						<path fill="#E0E0E0" d="M239,309c0.1,0.1-1.1,1.3-2.6,2.8c-0.2,0.2-0.4,0.4-0.6,0.6l-0.1,0.1l-0.1-0.1c-1.2-1.2-2-2.2-2-2.2
							c0.1-0.1,1,0.8,2.2,2l-0.3,0c0.2-0.2,0.4-0.4,0.6-0.6C237.7,310.1,239,308.9,239,309z"/>
					</g>
				</g>
			</g>
			<g>
				<g>
					<g>
						<ellipse fill="#FAFAFA" cx="271.4" cy="308.2" rx="24" ry="0.2"/>
					</g>
				</g>
			</g>
			<g>
				<g>
					<g>
						<ellipse fill="#FAFAFA" cx="271.6" cy="312.3" rx="24" ry="0.2"/>
					</g>
				</g>
			</g>
		</g>
		<g>
			<g>
				<g>
					<g>
						<polygon fill="#F5F5F5" points="548,315.3 546.6,429 612,429 612,316.8 						"/>
					</g>
					<g>
						<polygon fill="#E0E0E0" points="583.3,316.1 582.7,429 612,429 612,316.8 						"/>
					</g>
					<g>
						<g>
							<polygon fill="#E0E0E0" points="550.1,317.3 550.1,340.6 581.1,340.6 581.1,318.4 							"/>
						</g>
						<g>
							<g>
								<polygon fill="#F5F5F5" points="560.8,323.7 560.8,327.2 570.2,327.2 570.2,323.4 								"/>
							</g>
							<g>
								<rect x="560.8" y="330.1" fill="#F5F5F5" width="9.8" height="1.4"/>
							</g>
						</g>
					</g>
					<g>
						<g>
							<polygon fill="#E0E0E0" points="550.1,398.8 550.1,422 581.1,422 581.1,399.9 							"/>
						</g>
						<g>
							<g>
								<polygon fill="#F5F5F5" points="560.8,405.2 560.8,408.6 570.2,408.6 570.2,404.9 								"/>
							</g>
							<g>
								<rect x="560.8" y="411.5" fill="#F5F5F5" width="9.8" height="1.4"/>
							</g>
						</g>
					</g>
					<g>
						<g>
							<polygon fill="#E0E0E0" points="550.1,343.5 550.1,366.8 581.1,366.8 581.1,344.6 							"/>
						</g>
						<g>
							<g>
								<polygon fill="#F5F5F5" points="560.8,349.9 560.8,353.4 570.2,353.4 570.2,349.6 								"/>
							</g>
							<g>
								<rect x="560.8" y="356.3" fill="#F5F5F5" width="9.8" height="1.4"/>
							</g>
						</g>
					</g>
				</g>
				<g>
					<g>
						<g>
							<rect x="549.7" y="371.4" fill="#E0E0E0" width="31" height="23.2"/>
						</g>
						<g>
							<polygon fill="#F5F5F5" points="560.6,381.9 560.6,385.1 569.5,385.1 569.5,381.6 							"/>
						</g>
						<g>
							<rect x="560.6" y="387.8" fill="#F5F5F5" width="9.2" height="1.3"/>
						</g>
					</g>
				</g>
			</g>
		</g>
		<g>
			<g>
				<g>
					<path fill="#263238" d="M614.4,428c0,0.1-107.2,0.2-239.4,0.2c-132.3,0-239.5-0.1-239.5-0.2s107.2-0.2,239.5-0.2
						C507.2,427.8,614.4,427.9,614.4,428z"/>
				</g>
			</g>
		</g>
		<g>
			<g>
				<g>
					<rect x="267.8" y="162.6" fill="#FAFAFA" width="193.5" height="126.9"/>
				</g>
			</g>
			<g>
				<g>
					<g>
						<path fill="#263238" d="M461.3,289.6c0-1.2-0.1-49.5-0.1-126.9l0.1,0.1c-53.1,0-120.5,0-193.5,0h0l0.2-0.2
							c0,45.1,0,88.1,0,126.9l-0.2-0.2C381.6,289.5,459.7,289.6,461.3,289.6c-1.5,0-79.7,0.1-193.5,0.2l-0.2,0v-0.2
							c0-38.8,0-81.8,0-126.9v-0.2h0.2h0c73.1,0,140.4,0,193.5,0h0.2l0,0.1C461.4,240,461.3,288.3,461.3,289.6z"/>
					</g>
				</g>
			</g>
		</g>
		<g>
			<g>
				<g>
					<path fill="#455A64" d="M326.9,232.7l19,0.3c-0.1,10.1-8.7,18.4-19,18.4c0,0-0.1,0-0.1,0L326.9,232.7z"/>
				</g>
			</g>
			<g>
				<g>
					<g>
						<path fill="#263238" d="M358.4,258.5c0,0-0.1,0-0.4,0c-0.3,0-0.7,0-1.2,0c-1,0-2.5,0-4.3,0l-0.1,0l0,0
							c-1.7-2.1-3.9-4.9-6.3-7.9c-1.9-2.4-3.6-4.6-5.1-6.5l0.1,0c-2.3,0-4.2,0-5.6-0.1c-0.6,0-1.2,0-1.6,0c-0.4,0-0.6,0-0.6,0
							c0,0,0.2,0,0.6,0c0.4,0,0.9,0,1.6,0c1.4,0,3.3,0,5.6-0.1l0.1,0l0,0c1.5,1.9,3.2,4.1,5.1,6.4c2.4,3,4.5,5.8,6.2,8l-0.1,0
							c1.8,0,3.2,0,4.3,0c0.5,0,0.9,0,1.2,0C358.2,258.5,358.4,258.5,358.4,258.5z"/>
					</g>
				</g>
			</g>
			<g>
				<g>
					<g>
						<ellipse fill="#263238" cx="359.1" cy="260.7" rx="6.2" ry="0.1"/>
					</g>
				</g>
			</g>
			<g>
				<g>
					<g>
						<ellipse fill="#263238" cx="359.1" cy="263" rx="6.2" ry="0.1"/>
					</g>
				</g>
			</g>
		</g>
		<g>
			<g>
				<path fill="#307EEF" d="M323.9,230l-0.3,18.7c-10.3-0.1-18.8-8.5-18.8-18.7c0-10.2,8.6-18.7,19-18.7c10.4,0,19,8.4,19,18.7
					H323.9z"/>
			</g>
		</g>
		<g>
			<g>
				<g>
					<path fill="#263238" d="M316.5,223.9c0,0-0.1,0-0.3,0.1c-0.3,0-0.6,0.1-0.9,0.2c-0.9,0.1-2,0.3-3.4,0.5l-0.1,0l0,0
						c-1.3-1.3-2.9-2.8-4.6-4.4c-2.2-2.1-4.2-4.1-5.6-5.5c-0.7-0.7-1.2-1.3-1.7-1.7c-0.4-0.4-0.6-0.6-0.6-0.7c0,0,0.2,0.2,0.7,0.6
						c0.4,0.4,1,1,1.7,1.6c1.5,1.4,3.4,3.3,5.6,5.5c1.7,1.7,3.2,3.2,4.5,4.5l-0.1,0c1.4-0.2,2.6-0.3,3.4-0.4c0.4,0,0.7-0.1,1-0.1
						C316.4,223.9,316.5,223.9,316.5,223.9z"/>
				</g>
			</g>
		</g>
		<g>
			<g>
				<g>
					<ellipse fill="#263238" cx="288.3" cy="211.4" rx="6.2" ry="0.1"/>
				</g>
			</g>
		</g>
		<g>
			<g>
				<g>
					<ellipse fill="#263238" cx="288.3" cy="213.7" rx="6.2" ry="0.1"/>
				</g>
			</g>
		</g>
		<g>
			<g>
				<path fill="#E8505B" d="M390.5,193.1l-0.1-11.6c-3.4,0-6.9,1.4-9.6,3.7c-3.1,2.8-5.2,7-4.6,12c0.1,0.6,0.1,1.1,0.3,1.7
					c0,0,0,0,0,0l0,0l14-3.1V193.1z"/>
			</g>
		</g>
		<g>
			<g>
				<path fill="#5DA2F4" d="M390.5,193.1l-0.1-11.6c-3.4,0-6.9,1.4-9.6,3.7c-3.1,2.8-5.2,7-4.6,12c0.1,0.6,0.1,1.1,0.3,1.7
					c0,0,0,0,0,0l0,0l14-3.1V193.1z"/>
			</g>
		</g>
		<g>
			<g>
				<path fill="#E8505B" d="M404.9,189.5c-2-4.1-5.8-7.4-11.3-7.9c-0.1,0-0.3,0-0.4,0c-0.1,0-0.2,0-0.3,0c-0.3,0-0.6,0-0.8,0
					c0,0,0,0,0,0c0,0,0,0,0,0c0,0,0,0,0,0v0v0l0.1,11.6l0,2.7l14,3.1l0,0v0c0.2-1,0.3-2,0.3-3C406.4,193.8,405.9,191.6,404.9,189.5z
					"/>
			</g>
		</g>
		<g>
			<g>
				<path fill="#2137D6" d="M404.9,189.5c-2-4.1-5.8-7.4-11.3-7.9c-0.1,0-0.3,0-0.4,0c-0.1,0-0.2,0-0.3,0c-0.3,0-0.6,0-0.8,0
					c0,0,0,0,0,0c0,0,0,0,0,0c0,0,0,0,0,0v0v0l0.1,11.6l0,2.7l14,3.1l0,0v0c0.2-1,0.3-2,0.3-3C406.4,193.8,405.9,191.6,404.9,189.5z
					"/>
			</g>
		</g>
		<g>
			<g>
				<path fill="#307EEF" d="M391.2,197.3l-14,3.1c1.4,6.4,7.1,11.2,14,11.2c6.9,0,12.6-4.8,14-11.3L391.2,197.3"/>
			</g>
		</g>
		<g>
			<g>
				<g>
					<ellipse fill="#263238" cx="429.5" cy="195.2" rx="16.1" ry="0.2"/>
				</g>
			</g>
		</g>
		<g>
			<g>
				<g>
					<ellipse fill="#263238" cx="429.5" cy="191.5" rx="16.1" ry="0.2"/>
				</g>
			</g>
		</g>
		<g>
			<g>
				<g>
					<ellipse fill="#263238" cx="429.5" cy="187.8" rx="16.1" ry="0.2"/>
				</g>
			</g>
		</g>
		<g>
			<g>
				<g>
					<ellipse fill="#263238" cx="429.5" cy="198.6" rx="16.1" ry="0.2"/>
				</g>
			</g>
		</g>
		<g>
			<g>
				<g>
					<ellipse fill="#263238" cx="424.6" cy="202.4" rx="11.1" ry="0.2"/>
				</g>
			</g>
		</g>
		<g>
			<g>
				<g>
					<rect x="379.5" y="229" fill="#2137D6" width="3.3" height="37.1"/>
				</g>
			</g>
		</g>
		<g>
			<g>
				<g>
					<rect x="385.9" y="241.6" fill="#E8505B" width="3.3" height="24.5"/>
				</g>
			</g>
		</g>
		<g>
			<g>
				<g>
					<rect x="392.4" y="233.6" fill="#307EEF" width="3.3" height="32.7"/>
				</g>
			</g>
		</g>
		<g>
			<g>
				<g>
					<rect x="398.8" y="230.4" fill="#E8505B" width="3.3" height="35.7"/>
				</g>
			</g>
		</g>
		<g>
			<g>
				<g>
					<rect x="405.2" y="242.4" fill="#307EEF" width="3.3" height="23.8"/>
				</g>
			</g>
		</g>
		<g>
			<g>
				<g>
					<rect x="411.6" y="247" fill="#E8505B" width="3.3" height="19.1"/>
				</g>
			</g>
		</g>
		<g>
			<g>
				<g>
					<rect x="418" y="232.8" fill="#307EEF" width="3.3" height="33.3"/>
				</g>
			</g>
		</g>
		<g>
			<g>
				<g>
					<rect x="424.5" y="238.8" fill="#E8505B" width="3.3" height="27.3"/>
				</g>
			</g>
		</g>
		<g>
			<g>
				<g>
					<rect x="430.9" y="234" fill="#307EEF" width="3.3" height="32.1"/>
				</g>
			</g>
		</g>
		<g>
			<g>
				<g>
					<rect x="437.3" y="244.3" fill="#E8505B" width="3.3" height="21.9"/>
				</g>
			</g>
		</g>
		<g>
			<g>
				<g>
					<rect x="443.7" y="240.1" fill="#307EEF" width="3.3" height="26"/>
				</g>
			</g>
		</g>
		<g>
			<g>
				<g>
					<g>
						<path fill="#263238" d="M448.4,268.7c0,0.1-15.8,0.1-35.2,0.1c-19.5,0-35.2-0.1-35.2-0.1c0-0.1,15.8-0.1,35.2-0.1
							C432.6,268.6,448.4,268.7,448.4,268.7z"/>
					</g>
				</g>
			</g>
		</g>
		<g>
			<g>
				<g>
					<g>
						<ellipse fill="#263238" cx="381.8" cy="271.7" rx="2.5" ry="0.1"/>
					</g>
				</g>
			</g>
		</g>
		<g>
			<g>
				<g>
					<g>
						<ellipse fill="#263238" cx="389.5" cy="271.8" rx="2.9" ry="0.1"/>
					</g>
				</g>
			</g>
		</g>
		<g>
			<g>
				<g>
					<g>
						<ellipse fill="#263238" cx="396.5" cy="271.8" rx="2.9" ry="0.1"/>
					</g>
				</g>
			</g>
		</g>
		<g>
			<g>
				<g>
					<g>
						<ellipse fill="#263238" cx="403.5" cy="271.8" rx="2.9" ry="0.1"/>
					</g>
				</g>
			</g>
		</g>
		<g>
			<g>
				<g>
					<g>
						<ellipse fill="#263238" cx="410.4" cy="271.8" rx="2.9" ry="0.1"/>
					</g>
				</g>
			</g>
		</g>
		<g>
			<g>
				<g>
					<g>
						<ellipse fill="#263238" cx="417.4" cy="271.8" rx="2.9" ry="0.1"/>
					</g>
				</g>
			</g>
		</g>
		<g>
			<g>
				<g>
					<g>
						<ellipse fill="#263238" cx="424.4" cy="271.8" rx="2.9" ry="0.1"/>
					</g>
				</g>
			</g>
		</g>
		<g>
			<g>
				<g>
					<g>
						<ellipse fill="#263238" cx="431.4" cy="271.8" rx="2.9" ry="0.1"/>
					</g>
				</g>
			</g>
		</g>
		<g>
			<g>
				<g>
					<g>
						<ellipse fill="#263238" cx="438.4" cy="271.8" rx="2.9" ry="0.1"/>
					</g>
				</g>
			</g>
		</g>
		<g>
			<g>
				<g>
					<g>
						<ellipse fill="#263238" cx="445.4" cy="271.8" rx="2.9" ry="0.1"/>
					</g>
				</g>
			</g>
		</g>
		<g>
			<g>
				<g>
					<rect x="385.9" y="241.6" fill="#5DA2F4" width="3.3" height="24.5"/>
				</g>
			</g>
		</g>
		<g>
			<g>
				<g>
					<rect x="398.8" y="230.4" fill="#2137D6" width="3.3" height="35.7"/>
				</g>
			</g>
		</g>
		<g>
			<g>
				<g>
					<rect x="411.6" y="247" fill="#2137D6" width="3.3" height="19.1"/>
				</g>
			</g>
		</g>
		<g>
			<g>
				<g>
					<rect x="424.5" y="238.8" fill="#2137D6" width="3.3" height="27.3"/>
				</g>
			</g>
		</g>
		<g>
			<g>
				<g>
					<rect x="437.3" y="244.3" fill="#2137D6" width="3.3" height="21.9"/>
				</g>
			</g>
		</g>
		<g>
			<g>
				<circle fill="#307EEF" cx="288.1" cy="186.5" r="3.2"/>
			</g>
		</g>
		<g>
			<g>
				<g>
					<ellipse fill="#2137D6" cx="322.2" cy="184" rx="24.1" ry="0.2"/>
				</g>
			</g>
		</g>
		<g>
			<g>
				<g>
					<path fill="#2137D6" d="M317.5,187.8c0,0-0.3,0.1-0.7,0.1c-0.5,0-1.2,0-2,0.1c-1.7,0-4.1,0.1-6.7,0.1c-2.6,0-5,0-6.7-0.1
						c-0.9,0-1.6,0-2-0.1c-0.5,0-0.7,0-0.7-0.1c0,0,0.3-0.1,0.7-0.1c0.5,0,1.2,0,2-0.1c1.7,0,4.1-0.1,6.7-0.1c2.6,0,5,0,6.7,0.1
						c0.9,0,1.6,0,2,0.1C317.2,187.8,317.5,187.8,317.5,187.8z"/>
				</g>
			</g>
		</g>
		<g>
			<g>
				<g>
					<rect x="162.5" y="174.1" fill="#FAFAFA" width="101.3" height="115.6"/>
				</g>
			</g>
			<g>
				<g>
					<g>
						<path fill="#263238" d="M263.8,289.7c0,0,0-0.2,0-0.5c0-0.4,0-0.9,0-1.6c0-1.4,0-3.5,0-6.2c0-5.5,0-13.4,0-23.6
							c0-20.3,0-49.1-0.1-83.6l0.2,0.2c-29.8,0-64.5,0-101.3,0h0l0.2-0.2c0,42.6,0,82.4,0,115.6l-0.2-0.2c30.5,0,55.8,0.1,73.5,0.1
							c8.9,0,15.8,0,20.5,0c2.4,0,4.2,0,5.4,0C263.2,289.7,263.8,289.7,263.8,289.7s-0.6,0-1.8,0c-1.2,0-3,0-5.4,0
							c-4.7,0-11.7,0-20.5,0c-17.7,0-43.1,0-73.6,0.1l-0.2,0l0-0.2c0-33.2,0-73,0-115.6l0-0.2h0.2h0c36.8,0,71.4,0,101.3,0h0.2
							l0,0.2c0,34.5-0.1,63.4-0.1,83.7c0,10.1,0,18.1,0,23.5c0,2.7,0,4.8,0,6.2c0,0.7,0,1.2,0,1.6
							C263.8,289.5,263.8,289.7,263.8,289.7z"/>
					</g>
				</g>
			</g>
		</g>
		<g>
			<g>
				<g>
					<path fill="#307EEF" d="M255.1,233.1c0,0.1-1.1-0.6-3.3-1.2c-2.1-0.7-5.4-1.3-9.3-0.7c-2,0.3-4.1,0.9-6.2,2
						c-2.1,1-4.1,2.6-6.1,4.4c-2,1.8-4,3.7-6.2,5.6c-2.3,1.8-4.9,3.5-8,4.3c-1.5,0.4-3.1,0.5-4.6,0.3c-1.5-0.2-3-0.7-4.3-1.3
						c-2.7-1.3-4.9-2.9-7.2-4.3c-2.2-1.4-4.5-2.5-6.8-3c-2.3-0.6-4.5-0.7-6.4-0.5c-4,0.3-7,1.8-8.9,2.9c-1.9,1.2-2.8,2-2.9,2
						c0,0,0.2-0.2,0.6-0.6c0.4-0.4,1.1-1,2.1-1.6c1.9-1.2,4.9-2.7,9-3.2c2-0.2,4.3-0.1,6.6,0.4c2.4,0.5,4.7,1.7,7,3.1
						c2.3,1.4,4.6,3,7.2,4.2c2.6,1.2,5.6,1.8,8.5,1c2.9-0.7,5.5-2.4,7.7-4.2c2.2-1.8,4.2-3.8,6.2-5.5c2-1.8,4.1-3.3,6.2-4.4
						c2.1-1.1,4.3-1.7,6.3-2c4.1-0.5,7.4,0.2,9.5,0.9c1.1,0.4,1.9,0.7,2.4,1C254.9,233,255.1,233.1,255.1,233.1z"/>
				</g>
			</g>
		</g>
		<g>
			<g>
				<g>
					<rect x="190.4" y="248.7" fill="#307EEF" width="8.6" height="23.3"/>
				</g>
			</g>
			<g>
				<g>
					<rect x="227" y="248.7" fill="#307EEF" width="8.6" height="23.3"/>
				</g>
			</g>
			<g>
				<g>
					<rect x="239.1" y="235" fill="#307EEF" width="8.6" height="37"/>
				</g>
			</g>
			<g>
				<g>
					<rect x="179.3" y="264.6" fill="#307EEF" width="8.6" height="7.8"/>
				</g>
			</g>
			<g>
				<g>
					<rect x="202.6" y="259.2" fill="#307EEF" width="8.6" height="12.8"/>
				</g>
			</g>
			<g>
				<g>
					<rect x="214.8" y="256.2" fill="#307EEF" width="8.6" height="15.7"/>
				</g>
			</g>
		</g>
		<g>
			<g>
				<g>
					<g>
						<ellipse fill="#263238" cx="194.7" cy="274.7" rx="4.7" ry="0.3"/>
					</g>
				</g>
			</g>
			<g>
				<g>
					<g>
						<ellipse fill="#263238" cx="184" cy="274.7" rx="4.7" ry="0.3"/>
					</g>
				</g>
			</g>
			<g>
				<g>
					<g>
						<ellipse fill="#263238" cx="244.2" cy="274.7" rx="5.3" ry="0.3"/>
					</g>
				</g>
			</g>
			<g>
				<g>
					<g>
						<ellipse fill="#263238" cx="231.4" cy="274.7" rx="5.3" ry="0.3"/>
					</g>
				</g>
			</g>
			<g>
				<g>
					<g>
						<ellipse fill="#263238" cx="218.7" cy="274.7" rx="4.7" ry="0.3"/>
					</g>
				</g>
			</g>
			<g>
				<g>
					<g>
						<ellipse fill="#263238" cx="206.2" cy="274.7" rx="4.7" ry="0.3"/>
					</g>
				</g>
			</g>
		</g>
		<g>
			<g>
				<rect x="179.1" y="191" fill="#E0E0E0" width="70.4" height="29.2"/>
			</g>
		</g>
		<g>
			<g>
				<g>
					<circle fill="#263238" cx="190.4" cy="200.2" r="3.3"/>
				</g>
			</g>
			<g>
				<g>
					<rect x="197" y="197.9" fill="#263238" width="22.9" height="1.3"/>
				</g>
			</g>
			<g>
				<g>
					<rect x="197" y="200.8" fill="#FFFFFF" width="44.5" height="1.3"/>
				</g>
			</g>
		</g>
		<g>
			<g>
				<circle fill="#307EEF" cx="190.4" cy="210.3" r="3.3"/>
			</g>
		</g>
		<g>
			<g>
				<rect x="197" y="208" fill="#307EEF" width="11.7" height="1.3"/>
			</g>
		</g>
		<g>
			<g>
				<rect x="197" y="210.9" fill="#FFFFFF" width="44.5" height="1.3"/>
			</g>
		</g>
		<g>
			<g>
				<g>
					<rect x="470.8" y="153.4" fill="#FAFAFA" width="111.2" height="126.9"/>
				</g>
			</g>
			<g>
				<g>
					<g>
						<path fill="#263238" d="M582,280.3c0,0,0-0.2,0-0.6c0-0.4,0-1,0-1.8c0-1.6,0-3.9,0-6.8c0-6,0-14.8,0-25.9
							c0-22.3,0-54-0.1-91.8l0.2,0.2c-32.8,0-70.8,0-111.2,0h0l0.2-0.2c0,46.8,0,90.4,0,126.9l-0.2-0.2c33.5,0,61.2,0.1,80.7,0.1
							c9.7,0,17.3,0,22.6,0c2.6,0,4.6,0,5.9,0C581.3,280.3,582,280.3,582,280.3s-0.7,0-2,0c-1.3,0-3.3,0-5.9,0c-5.2,0-12.8,0-22.5,0
							c-19.5,0-47.3,0-80.8,0.1l-0.2,0v-0.2c0-36.5,0-80.1,0-126.9v-0.2h0.2h0c40.4,0,78.5,0,111.2,0h0.2l0,0.2
							c0,37.9-0.1,69.6-0.1,91.9c0,11.1,0,19.9,0,25.9c0,3,0,5.3,0,6.8c0,0.8,0,1.3,0,1.7C582,280.1,582,280.3,582,280.3z"/>
					</g>
				</g>
			</g>
		</g>
		<g>
			<g>
				<rect x="479.7" y="163.5" fill="#E0E0E0" width="90.1" height="72.3"/>
			</g>
		</g>
		<g>
			<g>
				<g>
					<rect x="486" y="222.9" fill="#263238" width="3" height="0.9"/>
				</g>
			</g>
			<g>
				<g>
					<rect x="492.7" y="227.5" fill="#263238" width="3.8" height="0.9"/>
				</g>
			</g>
			<g>
				<g>
					<rect x="505.8" y="227.5" fill="#263238" width="3.8" height="0.9"/>
				</g>
			</g>
			<g>
				<g>
					<rect x="519" y="227.5" fill="#263238" width="3.8" height="0.9"/>
				</g>
			</g>
			<g>
				<g>
					<rect x="532.2" y="227.5" fill="#263238" width="3.8" height="0.9"/>
				</g>
			</g>
			<g>
				<g>
					<rect x="545.3" y="227.5" fill="#263238" width="3.8" height="0.9"/>
				</g>
			</g>
			<g>
				<g>
					<rect x="558.5" y="227.5" fill="#263238" width="3.8" height="0.9"/>
				</g>
			</g>
			<g>
				<g>
					<rect x="486" y="211.6" fill="#263238" width="3" height="0.9"/>
				</g>
			</g>
			<g>
				<g>
					<rect x="486" y="190.1" fill="#263238" width="3" height="0.9"/>
				</g>
			</g>
			<g>
				<g>
					<rect x="486" y="179.4" fill="#263238" width="3" height="0.9"/>
				</g>
			</g>
			<g>
				<g>
					<rect x="486.1" y="200.9" fill="#263238" width="3" height="0.9"/>
				</g>
			</g>
			<g>
				<g>
					<g>
						<path fill="#263238" d="M562.2,223.8c0,0-0.1,0-0.3,0c-0.2,0-0.5,0-0.9,0c-0.8,0-2,0-3.6,0c-3.1,0-7.6,0-13.2,0.1
							c-11.1,0-26.5,0-43.4,0.1c-3.5,0-7,0-10.3,0h-0.2l0-0.2c0-14.5,0-27.3,0.1-36.5c0-4.6,0-8.2,0.1-10.8c0-1.2,0-2.2,0-2.9
							c0-0.3,0-0.6,0-0.8c0-0.2,0-0.3,0-0.3c0,0,0,0.1,0,0.3c0,0.2,0,0.4,0,0.8c0,0.7,0,1.7,0,2.9c0,2.5,0,6.2,0.1,10.8
							c0,9.2,0,21.9,0.1,36.5l-0.2-0.2c3.3,0,6.8,0,10.3,0c16.9,0,32.3,0,43.4,0.1c5.5,0,10,0,13.2,0.1c1.5,0,2.7,0,3.6,0
							c0.4,0,0.7,0,0.9,0C562.1,223.8,562.2,223.8,562.2,223.8z"/>
					</g>
				</g>
			</g>
			<g>
				<g>
					<g>
						<path fill="#263238" d="M563,201.3c0,0.1-15.6,0.2-34.8,0.2c-19.2,0-34.8-0.1-34.8-0.2c0-0.1,15.6-0.2,34.8-0.2
							C547.4,201.1,563,201.2,563,201.3z"/>
					</g>
				</g>
			</g>
			<g>
				<g>
					<g>
						<path fill="#263238" d="M563,190.6c0,0.1-15.6,0.2-34.8,0.2c-19.2,0-34.8-0.1-34.8-0.2s15.6-0.2,34.8-0.2
							C547.4,190.4,563,190.5,563,190.6z"/>
					</g>
				</g>
			</g>
			<g>
				<g>
					<g>
						<path fill="#263238" d="M563,179.8c0,0.1-15.6,0.2-34.8,0.2c-19.2,0-34.8-0.1-34.8-0.2c0-0.1,15.6-0.2,34.8-0.2
							C547.4,179.6,563,179.7,563,179.8z"/>
					</g>
				</g>
			</g>
			<g>
				<g>
					<g>
						<path fill="#263238" d="M563,212c0,0.1-15.6,0.2-34.8,0.2c-19.2,0-34.8-0.1-34.8-0.2c0-0.1,15.6-0.2,34.8-0.2
							C547.4,211.8,563,211.9,563,212z"/>
					</g>
				</g>
			</g>
			<g>
				<g>
					<path fill="#455A64" d="M494.1,221.5c0-1.8,0-9.5,0-9.5l5.9-9.2l4,3.1l8.2-12.8l4.9,3.4l6.8-11.8l5.5,4.5l8.2-15.7l8.9,17.5
						l7.2-8.8l8.5-2.4v41.7H494.1z"/>
				</g>
			</g>
		</g>
		<g>
			<g>
				<g>
					<path fill="#2137D6" d="M563,176.4c0,0-0.1,0-0.1,0c-0.1,0-0.3,0-0.4,0c-0.4,0-1,0-1.7,0c-1.5,0-3.7,0-6.5,0l0.1,0
						c-1.9,2.5-4.2,5.6-6.9,9.1l0,0.1l-0.1,0c-5.1,0-11,0-17.4,0l0.2-0.1c-2.3,3.8-4.8,7.9-7.3,12.2c-2.5,4.1-4.9,8.2-7.2,11.9
						l-0.1,0.2l-0.2-0.2c-3.4-4.7-6.6-9.1-9.4-13l0.3,0c-3.6,5.6-6.5,10.2-8.6,13.4c-1,1.6-1.8,2.8-2.4,3.7c-0.3,0.4-0.5,0.7-0.6,1
						c-0.1,0.2-0.2,0.3-0.2,0.3s0.1-0.1,0.2-0.3c0.1-0.2,0.3-0.6,0.6-1c0.5-0.9,1.3-2.1,2.3-3.7c2-3.2,5-7.9,8.5-13.5l0.1-0.2
						l0.1,0.2c2.8,3.9,6,8.2,9.5,12.9l-0.3,0c2.3-3.8,4.7-7.8,7.2-12c2.6-4.3,5-8.4,7.3-12.2l0.1-0.1l0.1,0c6.4,0,12.4,0,17.4,0
						l-0.1,0.1c2.7-3.5,5.1-6.6,7-9l0,0l0.1,0c2.8,0,5,0,6.5,0c0.7,0,1.3,0,1.7,0c0.2,0,0.3,0,0.4,0C563,176.4,563,176.4,563,176.4z
						"/>
				</g>
			</g>
		</g>
		<g>
			<g>
				<ellipse fill="#E8505B" cx="508" cy="199.7" rx="0.7" ry="0.6"/>
			</g>
		</g>
		<g>
			<g>
				<ellipse fill="#E8505B" cx="528.1" cy="188.3" rx="0.7" ry="0.6"/>
			</g>
		</g>
		<g>
			<g>
				<ellipse fill="#E8505B" cx="543.7" cy="185.5" rx="0.7" ry="0.6"/>
			</g>
		</g>
		<g>
			<g>
				<g>
					<path fill="#263238" d="M565.7,246.5c0,0.1-19,0.2-42.5,0.2c-23.5,0-42.5-0.1-42.5-0.2c0-0.1,19-0.2,42.5-0.2
						C546.7,246.3,565.7,246.4,565.7,246.5z"/>
				</g>
			</g>
		</g>
		<g>
			<g>
				<g>
					<path fill="#263238" d="M565.7,251.1c0,0.1-19,0.2-42.5,0.2c-23.5,0-42.5-0.1-42.5-0.2s19-0.2,42.5-0.2
						C546.7,250.9,565.7,251,565.7,251.1z"/>
				</g>
			</g>
		</g>
		<g>
			<g>
				<g>
					<path fill="#263238" d="M565.7,255.7c0,0.1-19,0.2-42.5,0.2c-23.5,0-42.5-0.1-42.5-0.2c0-0.1,19-0.2,42.5-0.2
						C546.7,255.5,565.7,255.6,565.7,255.7z"/>
				</g>
			</g>
		</g>
		<g>
			<g>
				<g>
					<path fill="#263238" d="M565.7,260.3c0,0.1-19,0.2-42.5,0.2c-23.5,0-42.5-0.1-42.5-0.2s19-0.2,42.5-0.2
						C546.7,260.1,565.7,260.2,565.7,260.3z"/>
				</g>
			</g>
		</g>
		<g>
			<g>
				<g>
					<g>
						<path fill="#263238" d="M532.2,258.5c2.3-3.9,3-9.1,3.6-13.6c0.3-2.1,0.8-5.1-0.7-6.5c-1.6-1.4-1.7-3.6-3.6-4.7
							c-1.8-1.1-4.3-1.2-6.1,0"/>
					</g>
				</g>
				<g>
					<g>
						<g>
							<g>
								<g>
									<g>
										<g>
											<g>
												<g>
													<path fill="#FFBE9D" d="M525.7,272.3L525.7,272.3c-3.5,0.3-6.6-2.5-6.7-6c-0.1-3.4-0.2-6.9-0.2-6.9s-5.2-0.5-5.5-5.6
														c-0.4-5.1-0.2-16.9-0.2-16.9l0,0c5.8-2.9,12.7-2.5,18,1.2l-0.3,18v9.7C530.7,269,529,272.1,525.7,272.3z"/>
												</g>
											</g>
										</g>
									</g>
								</g>
							</g>
						</g>
						<g>
							<g>
								<path fill="#263238" d="M518.3,247.6c0.9-1.1,2.3-1.5,3.5-0.8c1.2,0.8,1.6,2.5,1,3.7c-0.5,0.9-1.5,1.7-2.5,1.9
									c-1,0.2-1.7,1.1-1.5,2.1c0.1,1.3,2.3,1.8,3.2,2.8c1.5,1.7,4.8,2.4,7,2.6c2.2,0.3,1.9,0.3,3.2-1.5c0.9-1.3,1.2-2.6,1.2-4.2
									c0.1-3.8,0.2-7.5,0.2-11.3c0-1.4,0.1-2.7-0.3-4.1c-0.3-1.3-1-2.6-2.1-3.4c-1.2-0.8-2.8-0.9-4.2-1.3
									c-1.8-0.6-3.3-1.7-4.9-2.6c-1.7-0.8-3.7-1.4-5.4-0.5c-1.2,0.6-2,1.8-3.2,2.5c-1.7,0.9-3.9,0.7-4.7,3.2
									c-0.3,0.8-0.3,1.8,0,2.6c1.1,3.3,5.2,4.6,8.2,3.2c0.1,0.6-0.5,1.8,0.1,3.6C517.4,246.7,517.4,247.6,518.3,247.6"/>
							</g>
						</g>
					</g>
					<g>
						<g>
							<g>
								<path fill="#EB996E" d="M519.2,250.8c0,0,0.2,0.3,0.6,0.2c0.4,0,0.9-0.5,1-1.2c0.1-0.7-0.5-1.1-0.9-1.3
									c-0.4-0.2-0.7-0.1-0.7-0.1c0,0,0.3-0.2,0.8-0.1c0.3,0.1,0.6,0.2,0.8,0.5c0.2,0.3,0.4,0.7,0.4,1.1c0,0.9-0.8,1.5-1.3,1.4
									c-0.3,0-0.5-0.2-0.6-0.3C519.2,250.9,519.2,250.8,519.2,250.8z"/>
							</g>
						</g>
					</g>
					<g>
						<g>
							<g>
								<path fill="#455A64" d="M524.6,235.4c0,0,0.1-0.2,0.4-0.4c0.3-0.2,0.8-0.5,1.6-0.6c0.7-0.1,1.6,0,2.4,0.4
									c0.9,0.4,1.7,1.1,2.3,2c1.2,1.8,1.4,3.8,1.6,5.2c0.1,1.4,0.2,2.2,0.1,2.2c-0.1,0-0.2-0.8-0.4-2.2c-0.2-1.3-0.5-3.3-1.6-5
									c-0.6-0.9-1.3-1.5-2.1-1.9c-0.8-0.4-1.6-0.5-2.3-0.4C525.2,234.7,524.6,235.4,524.6,235.4z"/>
							</g>
						</g>
					</g>
					<g>
						<g>
							<g>
								<path fill="#455A64" d="M510.1,240.6c0,0-0.1,0-0.2,0c-0.1,0-0.3-0.1-0.5-0.2c-0.2-0.1-0.4-0.4-0.6-0.7
									c-0.2-0.3-0.3-0.7-0.2-1.2c0.1-0.4,0.4-0.9,0.8-1.2c0.5-0.3,1.1-0.3,1.6-0.3c0.6,0,1.1,0,1.5-0.4c0.5-0.3,0.8-0.9,1.3-1.3
									c0.9-1,2.1-1.6,3.2-1.8c1.1-0.3,2.2-0.2,3-0.1c0.8,0.2,1.5,0.5,1.9,0.7c0.4,0.3,0.6,0.4,0.6,0.5c0,0.1-0.9-0.6-2.5-0.9
									c-0.8-0.1-1.8-0.1-2.9,0.1c-1,0.3-2.1,0.8-3,1.8c-0.4,0.5-0.8,1-1.3,1.4c-0.3,0.2-0.6,0.3-0.9,0.4c-0.3,0.1-0.6,0.1-0.9,0
									c-0.6,0-1.1,0-1.4,0.2c-0.4,0.2-0.6,0.6-0.7,1c-0.2,0.8,0.2,1.4,0.6,1.7C509.9,240.5,510.2,240.6,510.1,240.6z"/>
							</g>
						</g>
					</g>
					<g>
						<g>
							<g>
								<path fill="#455A64" d="M523.8,254.8c0,0,0.3-0.1,0.7-0.4c0.4-0.3,1-0.8,1.4-1.6c0.4-0.8,0.6-1.9,0.2-3
									c-0.2-0.6-0.5-1.1-0.9-1.5c-0.4-0.5-1-0.8-1.6-1.2c-0.6-0.3-1.2-0.7-1.8-1c-0.6-0.4-1-0.8-1.4-1.3c-0.7-1-1.1-2.1-1.2-3
									c-0.1-0.9,0-1.7,0.2-2.2c0.1-0.3,0.1-0.4,0.2-0.6c0.1-0.1,0.1-0.2,0.1-0.2c0.1,0-0.5,1.1-0.2,2.9c0.1,0.9,0.5,1.9,1.2,2.9
									c0.4,0.5,0.8,0.9,1.3,1.2c0.5,0.4,1.1,0.7,1.7,1c0.6,0.4,1.2,0.7,1.7,1.2c0.5,0.5,0.8,1.1,1,1.7c0.4,1.2,0.1,2.4-0.3,3.2
									c-0.5,0.8-1.1,1.3-1.6,1.6C524.1,254.8,523.8,254.9,523.8,254.8z"/>
							</g>
						</g>
					</g>
					<g>
						<g>
							<g>
								<path fill="#455A64" d="M532.7,247.3c0,0-0.2,0.1-0.7,0.1c-0.4,0.1-1.1,0.1-1.8,0.1c-1.5-0.1-3.7-0.6-5.7-2
									c-2-1.3-3.3-3.2-3.7-4.7c-0.2-0.8-0.2-1.4-0.1-1.9c0.1-0.4,0.2-0.6,0.3-0.6c0.1,0-0.4,0.9,0.1,2.4c0.4,1.4,1.8,3.2,3.7,4.5
									c1.9,1.3,4,1.9,5.5,2C531.7,247.4,532.7,247.3,532.7,247.3z"/>
							</g>
						</g>
					</g>
				</g>
				<g>
					<g>
						<path fill="#263238" d="M533.5,243.8c1.8-2,4.4-3.3,7.1-3.2c2.7,0.1,5.3,2,5.9,4.6c0.5,2-0.1,4-0.4,6c-0.3,2,0,4.3,1.6,5.5
							c1,0.7,2.2,0.8,3.4,1.1c1.2,0.3,2.4,0.9,2.8,2c0.5,1.3-0.5,2.8-1.8,3.4c-1.3,0.6-2.7,0.4-4.1,0.1c0.6,1.5-0.1,3.3-1.5,4.1
							c-1.4,0.8-3.2,0.6-4.5-0.2c-1.4-0.8-2.3-2.2-2.8-3.8c-0.9,1.5-3.2,1.9-4.7,0.9c-1.5-1-2.1-2.9-1.9-4.7
							c0.2-1.8,1.2-3.3,2.4-4.7c0.6-0.7,1.2-1.3,1.6-2.1c0.4-0.8,0.6-1.8,0.1-2.6c-0.5-0.8-1.6-1.1-2.3-0.5"/>
					</g>
				</g>
			</g>
			<g>
				<g>
					<g>
						<path fill="#E8505B" d="M536.6,249.2c0,0-0.6,0.3-1.5,0c-0.9-0.3-2-1.4-2.2-2.9c-0.1-0.7,0-1.5,0.2-2.1c0.3-0.6,0.6-1.1,1-1.4
							c0.7-0.7,1.3-0.8,1.3-0.8c0,0.1-0.5,0.3-1.2,0.9c-0.6,0.6-1.3,1.8-1,3.2c0.2,1.4,1.1,2.4,2,2.7
							C536,249.3,536.6,249.1,536.6,249.2z"/>
					</g>
				</g>
			</g>
			<g>
				<g>
					<g>
						<path fill="#EB996E" d="M518.6,259.4c0,0-0.5,0.1-1.2-0.1c-0.7-0.2-1.7-0.6-2.5-1.4c-0.8-0.7-1.4-1.6-1.7-2.3
							c-0.3-0.7-0.3-1.1-0.3-1.1c0.1,0,0.2,0.4,0.5,1c0.3,0.6,0.9,1.4,1.7,2.1c0.8,0.7,1.7,1.1,2.3,1.4
							C518.2,259.2,518.6,259.3,518.6,259.4z"/>
					</g>
				</g>
			</g>
			<g>
				<g>
					<g>
						<path fill="#455A64" d="M538.3,263.6c0,0-0.1,0-0.3,0c-0.2,0-0.4-0.1-0.7-0.3c-0.5-0.3-1.2-1.1-1.5-2.2
							c-0.1-0.6-0.2-1.2-0.1-1.9c0.1-0.7,0.4-1.3,0.7-2c0.6-1.4,1.7-2.6,2.4-4.1c0.4-0.7,0.7-1.5,0.8-2.3c0.1-0.8,0-1.5-0.2-2.2
							c-0.5-1.3-1.6-2.2-2.6-2.6c-1-0.4-1.9-0.3-2.5-0.2c-0.6,0.1-0.9,0.3-0.9,0.3c0,0,0.1-0.1,0.2-0.1c0.1-0.1,0.4-0.2,0.7-0.3
							c0.6-0.2,1.6-0.3,2.7,0c1.1,0.3,2.3,1.3,2.8,2.7c0.3,0.7,0.4,1.5,0.3,2.4c-0.1,0.8-0.4,1.6-0.8,2.4c-0.8,1.5-1.8,2.8-2.4,4.1
							c-0.7,1.3-0.9,2.6-0.7,3.7c0.2,1.1,0.8,1.8,1.3,2.2C537.9,263.5,538.3,263.5,538.3,263.6z"/>
					</g>
				</g>
			</g>
			<g>
				<g>
					<g>
						<path fill="#455A64" d="M546,267.3c0,0-0.1,0-0.3,0c-0.2,0-0.5,0-0.9-0.2c-0.8-0.2-1.8-0.9-2.7-2.1c-0.8-1.2-1.2-3-1.2-4.9
							c0.1-1.9,0.6-3.9,1-6.1c0.2-1.1,0.3-2.1,0.2-3.1c-0.1-1-0.3-2-0.7-2.8c-0.4-0.8-0.9-1.5-1.6-2c-0.6-0.5-1.4-0.8-2-1
							c-1.4-0.3-2.5-0.1-3.3,0c-0.8,0.2-1.2,0.3-1.2,0.3c0,0,0.1-0.1,0.3-0.1c0.2-0.1,0.5-0.2,0.9-0.3c0.8-0.2,2-0.4,3.4-0.1
							c0.7,0.2,1.5,0.4,2.2,1c0.7,0.5,1.3,1.3,1.7,2.1c0.4,0.9,0.6,1.9,0.7,2.9c0.1,1,0,2.1-0.2,3.2c-0.4,2.2-0.9,4.2-1,6
							c-0.1,1.9,0.2,3.6,1,4.7c0.8,1.2,1.8,1.8,2.5,2.1C545.6,267.3,546,267.3,546,267.3z"/>
					</g>
				</g>
			</g>
		</g>
		<polygon fill="#FFBE9D" points="547.6,290.6 536.7,299.1 541.2,306.6 554.4,297 		"/>
		<path fill="#FFBE9D" d="M518.4,262.1c0,0,0.1-0.9-2.3-1c-2.4-0.1-2.6-0.1-2.6-0.1s-1.1-1.4-1.1-2.2c-0.1-0.8,0.5-2.2,0.5-2.2
			l2.4-0.2l-0.7-1.6l-1.7,0.1l-4.8,0.6l-1.9,8.4l-13.1,24.4c-2.1,3.2-0.9,7.5,2.5,9.2l0,0c3.4,1.6,7.9-1.8,9.2-5.4l7.2-27.1l2.5-2
			l3.6-0.7"/>
		<path fill="#FFBE9D" d="M488.6,424.4l17.8-102.4l0,0c0-0.2,0.1-0.3,0.1-0.4l0,0l0,0c3-12,7.7-15.9,7.7-15.9l27.2,1.7
			c2.3,4.2,2.6,14.1,2.6,14.1c0.3,1.2-5.8,100.4-5.8,100.4l-9.1-0.3l-4.9-93.8l-26.5,96.9L488.6,424.4z"/>
		<g>
			<g>
				<g>
					<g>
						<g>
							<path fill="#E8505B" d="M488.4,425.4l0-0.9l9.4,0.3l-0.1,3l-0.6,0c-2.6,0.1-13.1,0.2-14.8-0.4
								C480.4,426.8,488.4,425.4,488.4,425.4z"/>
						</g>
					</g>
					<g opacity="0.6">
						<g>
							<path fill="#FFFFFF" d="M494.3,427.6c0.2-0.7,0.6-1.4,1.2-1.8c0.6-0.4,1.4-0.7,2.2-0.6l-0.1,2.4L494.3,427.6z"/>
						</g>
					</g>
				</g>
				<g opacity="0.6">
					<g>
						<path fill="#FFFFFF" d="M484.5,426.2c0,0-2.8,0.7-2.5,1.1c0.3,0.4,11,0.7,15.7,0.5l0-0.2l-12.4-0.2
							C485.3,427.3,485,426.2,484.5,426.2z"/>
					</g>
				</g>
				<g>
					<g>
						<g>
							<path fill="#263238" d="M497.8,427.6c0,0-0.1,0-0.2,0c-0.1,0-0.3,0-0.5,0c-0.5,0-1,0-1.7,0c-1.4,0-3.4,0-5.6-0.1
								c-2.2-0.1-4.2-0.1-5.6-0.2c-0.7,0-1.2-0.1-1.7-0.1c-0.2,0-0.3,0-0.5,0c-0.1,0-0.2,0-0.2,0c0,0,0.1,0,0.2,0c0.1,0,0.3,0,0.5,0
								c0.5,0,1,0,1.7,0.1c1.4,0.1,3.4,0.1,5.6,0.2c2.2,0.1,4.2,0.1,5.6,0.1c0.7,0,1.2,0,1.7,0c0.2,0,0.3,0,0.5,0
								C497.8,427.5,497.8,427.5,497.8,427.6z"/>
						</g>
					</g>
				</g>
				<g>
					<g>
						<g>
							<path fill="#263238" d="M485.3,427.5c0,0,0-0.4-0.3-0.8c-0.2-0.4-0.6-0.6-0.6-0.6c0,0,0.4,0.1,0.7,0.6
								C485.3,427.1,485.3,427.5,485.3,427.5z"/>
						</g>
					</g>
				</g>
				<g>
					<g>
						<g>
							<path fill="#263238" d="M488.1,426.2c0,0-0.2-0.1-0.3-0.3c-0.1-0.2-0.2-0.4-0.2-0.4c0,0,0.2,0.1,0.3,0.3
								C488,426,488.1,426.2,488.1,426.2z"/>
						</g>
					</g>
				</g>
				<g>
					<g>
						<g>
							<path fill="#263238" d="M488.8,425.9c0,0-0.2-0.1-0.3-0.2c-0.2-0.1-0.3-0.3-0.2-0.3c0,0,0.2,0.1,0.3,0.2
								C488.7,425.7,488.9,425.9,488.8,425.9z"/>
						</g>
					</g>
				</g>
				<g>
					<g>
						<g>
							
								<ellipse transform="matrix(0.9999 1.581798e-002 -1.581798e-002 0.9999 6.7849 -7.6794)" fill="#263238" cx="488.8" cy="425.1" rx="0.5" ry="0.1"/>
						</g>
					</g>
				</g>
				<g>
					<g>
						<g>
							<path fill="#263238" d="M489.5,424.5c0,0-0.2,0.1-0.5,0.1c-0.3,0-0.6-0.1-0.6-0.1c0,0,0.3,0,0.6,0
								C489.3,424.5,489.5,424.5,489.5,424.5z"/>
						</g>
					</g>
				</g>
				<g>
					<g>
						<g>
							<path fill="#263238" d="M487.8,425.5c0,0-0.2,0-0.6,0c-0.2,0-0.4-0.1-0.6-0.1c-0.1,0-0.2-0.1-0.4-0.1c-0.1,0-0.1-0.1-0.1-0.2
								c0-0.1,0-0.2,0.1-0.2c0.6-0.3,1.1,0.1,1.4,0.3c0.1,0.1,0.2,0.3,0.2,0.4c0,0.1,0,0.2,0,0.2c0,0,0-0.2-0.3-0.5
								c-0.1-0.1-0.3-0.3-0.5-0.3c-0.2-0.1-0.5-0.1-0.7,0c-0.1,0.1-0.1,0.2,0,0.2c0.1,0.1,0.2,0.1,0.3,0.1c0.2,0.1,0.4,0.1,0.6,0.2
								C487.5,425.4,487.8,425.5,487.8,425.5z"/>
						</g>
					</g>
				</g>
				<g>
					<g>
						<g>
							<path fill="#263238" d="M487.6,425.5c0,0-0.1-0.1-0.1-0.4c0-0.1,0.1-0.3,0.2-0.4c0.1-0.1,0.3-0.3,0.5-0.3
								c0.1,0,0.2,0.2,0.2,0.3c0,0.1-0.1,0.2-0.1,0.2c-0.1,0.1-0.2,0.2-0.3,0.3C487.8,425.4,487.7,425.5,487.6,425.5
								c0,0,0.2-0.1,0.3-0.3c0.1-0.1,0.2-0.2,0.3-0.3c0.1-0.1,0.1-0.3,0-0.4c-0.1,0-0.3,0.1-0.4,0.2c-0.1,0.1-0.2,0.2-0.2,0.4
								C487.6,425.3,487.6,425.5,487.6,425.5z"/>
						</g>
					</g>
				</g>
				<g>
					<g>
						<g>
							<path fill="#263238" d="M497.7,425.2c0,0-0.3,0-0.7,0c-0.4,0-1,0.2-1.5,0.5c-0.5,0.4-0.8,0.8-1,1.2c-0.2,0.4-0.2,0.6-0.2,0.6
								c0,0,0-0.1,0-0.2c0-0.1,0-0.3,0.1-0.5c0.1-0.4,0.4-0.9,1-1.3c0.5-0.4,1.2-0.5,1.6-0.5c0.2,0,0.4,0,0.5,0
								C497.7,425.2,497.7,425.2,497.7,425.2z"/>
						</g>
					</g>
				</g>
				<g>
					<g>
						<g>
							<path fill="#263238" d="M493.2,426.7c0,0-0.6,0.1-1.4,0.1c-0.8,0-1.4-0.1-1.4-0.1c0,0,0.6,0,1.4,0
								C492.6,426.7,493.2,426.7,493.2,426.7z"/>
						</g>
					</g>
				</g>
				<g>
					<g>
						<g>
							<path fill="#263238" d="M495,426.8c0,0-0.1,0.1-0.1,0.2c-0.1,0.1-0.1,0.2-0.1,0.2c0,0,0-0.1,0-0.3
								C494.9,426.8,495,426.7,495,426.8z"/>
						</g>
					</g>
				</g>
				<g>
					<g>
						<g>
							<path fill="#263238" d="M495.7,426c0,0,0,0.1-0.1,0.2c-0.1,0.1-0.2,0.1-0.2,0.1c0,0,0-0.1,0.1-0.2
								C495.6,426,495.7,426,495.7,426z"/>
						</g>
					</g>
				</g>
				<g>
					<g>
						<g>
							<path fill="#263238" d="M496.7,425.6c0,0-0.1,0-0.3,0.1c-0.1,0-0.2,0.1-0.3,0.1c0,0,0.1-0.1,0.2-0.2
								C496.6,425.6,496.7,425.6,496.7,425.6z"/>
						</g>
					</g>
				</g>
				<g>
					<g>
						<g>
							
								<ellipse transform="matrix(0.9495 -0.3138 0.3138 0.9495 -108.4214 177.558)" fill="#263238" cx="497.3" cy="425.5" rx="0.1" ry="0.1"/>
						</g>
					</g>
				</g>
			</g>
		</g>
		<g>
			<g>
				<g>
					<path fill="#263238" d="M534.1,264.9c0,0,3.3,0.3,7.2,2.8c8.6,5.6,23,17.4,21.8,22.9c-1,4.7-12.2,10.3-12.2,10.3l-7.3-8.8
						l4.5-2.6l-11-7.3L534.1,264.9z"/>
				</g>
			</g>
			<g>
				<g>
					<g>
						<path fill="#263238" d="M539,282.7l-0.4,1.3l-1.3,6l-0.3,8.9c6.5,8.4,6.6,15.5,6.6,15.5l-33,3.9c0-6.5,2.4-14.7,2.4-14.7
							c1.9-3.2,1.8-12.9,1.5-13.3c-2.1-2-2.6-3.5-0.9-6.2c0,0-10.2,10.7-11.3,11.7c-3.6,3.3-7.1,2.4-8.7,0.9c-4.5-4,0.1-9.2,0.1-9.2
							l17.2-19.7c1.2-1.3,2.7-2.3,4.5-2.7c1.8-0.4,3.7-0.7,3.7-0.7l11.5,0.1c0,0,2.2,0.1,3.4,0.4c0,0,4,1.3,5,6.2
							C540.2,276.1,539,282.7,539,282.7z"/>
					</g>
				</g>
			</g>
			<g>
				<g>
					<g>
						<path fill="#455A64" d="M539.4,274.8c0,0,0,0.3,0.1,1c0,0.6,0,1.5-0.1,2.6c-0.1,2.2-0.5,5.2-1.1,8.5c-0.2,1.1-0.4,2.2-0.7,3.2
							l0,0c-0.1,2.6-0.2,4.8-0.3,6.4c0,0.7-0.1,1.3-0.1,1.8c0,0.4-0.1,0.7-0.1,0.7c0,0,0-0.2,0-0.7c0-0.5,0-1.1,0-1.8
							c0-1.6,0.1-3.8,0.2-6.4l0,0l0,0c0.2-1,0.4-2.1,0.7-3.2c0.6-3.3,1-6.3,1.2-8.5c0.1-1.1,0.2-2,0.2-2.6
							C539.4,275.1,539.4,274.8,539.4,274.8z"/>
					</g>
				</g>
			</g>
			<g>
				<g>
					<g>
						
							<ellipse transform="matrix(-0.8223 -0.569 0.569 -0.8223 830.2233 834.7411)" fill="#455A64" cx="545.4" cy="287.8" rx="7.2" ry="0.2"/>
					</g>
				</g>
			</g>
			<g>
				<g>
					<g>
						<path fill="#455A64" d="M518.2,270.7c0,0,0.1,0,0.2,0.1c0.1,0.1,0.2,0.2,0.4,0.4c0.3,0.4,0.7,1.1,0.9,2
							c0.2,0.9,0.2,2.1-0.2,3.3c-0.4,1.2-1,2.4-1.9,3.6c-0.4,0.6-0.9,1.1-1.4,1.6c-0.5,0.5-1,0.9-1.4,1.3c-0.9,0.8-1.7,1.6-2.3,2.3
							c-0.7,0.7-1.2,1.2-1.5,1.6c-0.4,0.4-0.6,0.6-0.6,0.6c0,0,0.1-0.3,0.5-0.7c0.3-0.4,0.8-1,1.4-1.7c0.6-0.7,1.4-1.5,2.3-2.3
							c0.5-0.4,1-0.8,1.4-1.3c0.5-0.5,0.9-1,1.3-1.6c0.8-1.1,1.4-2.3,1.8-3.5c0.4-1.1,0.4-2.3,0.3-3.2
							C519.1,271.6,518.1,270.8,518.2,270.7z"/>
					</g>
				</g>
			</g>
			<g>
				<g>
					<polygon fill="#455A64" points="514.4,299.9 514.7,295.5 537.2,295.5 537.1,298.9 					"/>
				</g>
			</g>
			<g>
				<g>
					<g>
						<path fill="none" stroke="#839198" stroke-width="5.000000e-002" stroke-miterlimit="10" d="M495.9,287.2"/>
					</g>
				</g>
			</g>
			<g>
				<g>
					<g>
						<path fill="#455A64" d="M495.2,286.7c0,0.1-0.6,0.4-1.2,1.3c-0.7,0.9-1.4,2.3-1.3,4c0.1,1.7,0.9,3.1,1.6,3.9
							c0.7,0.8,1.4,1.1,1.3,1.2c0,0-0.2,0-0.5-0.2c-0.3-0.2-0.7-0.4-1.1-0.8c-0.8-0.8-1.7-2.2-1.8-4c-0.1-1.8,0.7-3.3,1.5-4.2
							c0.4-0.4,0.7-0.7,1-0.9C495,286.7,495.1,286.6,495.2,286.7z"/>
					</g>
				</g>
			</g>
		</g>
		<g>
			<polygon fill="#E8505B" points="538.3,422 540.8,427.9 529.4,427.8 529.2,421.8 			"/>
			<g>
				<path fill="#263238" d="M529.3,426.8c0,0,0.6,0.1,1.6,0.1c1,0,2.4,0,3.9,0c1.4,0,2.7-0.1,3.9-0.1c1,0,1.6,0,1.6-0.1
					c0,0-0.6-0.1-1.6-0.1c-1,0-2.4,0-3.9,0c-1.4,0-2.7,0.1-3.9,0.1C529.9,426.7,529.3,426.8,529.3,426.8z"/>
			</g>
			<g>
				
					<ellipse transform="matrix(-5.531900e-002 -0.9985 0.9985 -5.531900e-002 140.1334 981.1427)" fill="#263238" cx="534.2" cy="424.3" rx="2.4" ry="0.2"/>
			</g>
			<polyline opacity="0.6" fill="#FFFFFF" points="540.8,428.1 529.4,427.7 529.3,426.6 540.2,426.7 540.8,427.9 			"/>
		</g>
		<g>
			<g>
				<g>
					<path fill="#5DA2F4" d="M543,308.7c8.6,27.1-2.5,60,0.2,91.6c0.3,3.1,1.5,6.8-1.4,8.6c-0.8,0.5-1.7,0.7-2.6,0.6
						c-2.3-0.1-4.3-1.3-6.3-2.1c-3.9-1.6-8.4-1.7-12.5-0.5c-2.7,0.9-5.5,2.4-8.3,1.9c-3.8-0.6-6.2-4.3-9.7-5.9
						c-3.2-1.5-7-0.9-10.6-1c0,0-0.1,0-0.1,0c-5.1-0.2-8.8-5.2-7.4-10.1c5.2-19,22.4-80.7,30-91.9l22.8-1
						C539.2,301.5,541.9,305.2,543,308.7z"/>
				</g>
			</g>
		</g>
		<g>
			<g>
				<g>
					<path fill="#263238" d="M535,321.5c0,0-0.4,0.6-1.2,1.6c-0.8,0.9-1.9,2.2-3.4,3.4c-1.4,1.2-2.9,2.1-4,2.7
						c-1.1,0.6-1.8,0.9-1.8,0.8c-0.1-0.1,2.7-1.4,5.5-3.8c1.4-1.2,2.6-2.5,3.4-3.3C534.5,322,535,321.4,535,321.5z"/>
				</g>
			</g>
		</g>
		<g opacity="0.1">
			<g>
				<g>
					<path d="M525,331.7c-7.2,18.3-8.5,38.9-3.8,58c0.4,1.7,0.8,3.5-0.1,5c-1.2,1.8-4.2,1.7-5.9,0.3c-1.7-1.4-2.3-3.7-2.8-5.9
						c-3.1-16.2,2.5-32.4,8.6-47.7"/>
				</g>
			</g>
		</g>
		<g>
			<g>
				<g>
					<g>
						<g>
							<g>
								<g>
									<rect x="352.8" y="340.8" fill="#263238" width="43.1" height="2.1"/>
								</g>
							</g>
						</g>
					</g>
					<g>
						<g>
							<g>
								<g>
									<polygon fill="#263238" points="346.1,342.9 338,312.6 371.7,312.6 379,342.9 									"/>
								</g>
							</g>
						</g>
					</g>
				</g>
				<g>
					<g>
						<g>
							<g>
								<polygon fill="#F5F5F5" points="377,340.6 346.9,340.6 339.9,314 370.1,314 								"/>
							</g>
						</g>
					</g>
				</g>
			</g>
			<g>
				<g>
					<g>
						<path fill="#EBEBEB" d="M340.4,315.9c10.2,0,20.1,0,30.2,0l-0.5-1.9h-30.2L340.4,315.9z"/>
					</g>
				</g>
			</g>
			<g>
				<g>
					<g>
						<g>
							<circle fill="#FAFAFA" cx="344" cy="315" r="0.3"/>
						</g>
					</g>
				</g>
				<g>
					<g>
						<g>
							<circle fill="#FAFAFA" cx="342.8" cy="315" r="0.3"/>
						</g>
					</g>
				</g>
				<g>
					<g>
						<g>
							<circle fill="#FAFAFA" cx="341.7" cy="315" r="0.3"/>
						</g>
					</g>
				</g>
			</g>
		</g>
		<g>
			<g>
				<path fill="#307EEF" d="M363.1,327.6l3.3,3.8c1.3-0.9,2-2.3,2-3.8c0-2.7-2.4-4.8-5.4-4.8c-2.9,0-5.3,2.2-5.3,4.9L363.1,327.6z"
					/>
			</g>
		</g>
		<g>
			<g>
				<g>
					<path fill="#263238" d="M362.7,328.2c0,0,0.4,0.3,0.9,0.9c0.6,0.6,1.4,1.6,2.4,2.7l0.1,0.1l-0.1,0.1c-1.3,1-3.6,1.4-5.6,0.5
						c-1-0.4-1.7-1.1-2.3-1.8c-0.5-0.8-0.8-1.7-0.9-2.5l0-0.2l0.2,0c1.6,0,2.9,0,3.8,0C362.2,328.1,362.7,328.2,362.7,328.2
						c0,0-0.5,0.1-1.5,0.1c-0.9,0-2.2,0.1-3.7,0.1l0.2-0.2c0,0.8,0.3,1.6,0.8,2.3c0.5,0.7,1.3,1.3,2.2,1.7c1.9,0.8,4,0.5,5.2-0.5
						l0,0.2c-1-1.1-1.8-2.1-2.3-2.7C363,328.6,362.7,328.2,362.7,328.2z"/>
				</g>
			</g>
		</g>
		<g>
			<g>
				<circle fill="#263238" cx="360.8" cy="324.7" r="0.3"/>
			</g>
		</g>
		<g>
			<g>
				<g>
					<path fill="#263238" d="M354.6,322.6c0-0.1,1.6-0.2,3.6-0.2c0.2,0,0.3,0,0.5,0h0.1l0.1,0.1c1.2,1.2,2.1,2.2,2.1,2.3
						c-0.1,0.1-1.1-0.8-2.3-2.1l0.1,0.1c-0.2,0-0.3,0-0.5,0C356.2,322.7,354.6,322.7,354.6,322.6z"/>
				</g>
			</g>
		</g>
		<g>
			<g>
				<g>
					<path fill="#263238" d="M347.8,326.4c0,0-0.1-0.5-0.3-1.4c-0.2-0.9-0.5-2.3-0.8-3.9l0-0.2l0.2,0c2.1,0,4.7,0,7.5-0.1
						c0,0,0.4,0.3,0.2,0.2l0,0l0,0l0,0l0,0l0,0l0,0l0,0.1l0,0.2l0.1,0.4c0,0.2,0.1,0.5,0.1,0.7c0.1,0.5,0.2,0.9,0.3,1.4
						c0.2,0.9,0.3,1.7,0.5,2.6l0,0.2l-0.2,0c-2.2,0-4.1,0-5.5-0.1c-0.6,0-1.1,0-1.5,0C348,326.4,347.8,326.4,347.8,326.4
						c0,0,0.2,0,0.6,0c0.4,0,0.9,0,1.6-0.1c1.3,0,3.2-0.1,5.4-0.1l-0.2,0.2c-0.2-0.8-0.3-1.7-0.5-2.6c-0.1-0.4-0.2-0.9-0.3-1.4
						c0-0.2-0.1-0.5-0.1-0.7l-0.1-0.4l0-0.2l0-0.1l0,0l0,0l0,0l0,0l0,0l0,0c-0.2-0.1,0.2,0.2,0.2,0.2c-2.8,0-5.4,0-7.5,0l0.2-0.2
						c0.3,1.6,0.5,2.9,0.7,3.9C347.7,325.8,347.8,326.3,347.8,326.4z"/>
				</g>
			</g>
		</g>
		<g>
			<g>
				<g>
					<circle fill="#263238" cx="360.4" cy="330.8" r="0.3"/>
				</g>
			</g>
			<g>
				<g>
					<g>
						
							<ellipse transform="matrix(-1 3.940008e-003 -3.940008e-003 -1 716.6445 660.1207)" fill="#263238" cx="357.7" cy="330.8" rx="2.7" ry="0.2"/>
					</g>
				</g>
			</g>
		</g>
		<g>
			<g>
				<g>
					<path fill="#263238" d="M347.8,333.1c0,0-0.1-0.3-0.3-1c-0.2-0.7-0.5-1.7-0.8-2.9l0-0.2l0.2,0c2,0,4.8-0.1,7.7-0.1
						c-0.2-0.1,0.2,0.2,0.2,0.1l0,0l0,0l0,0l0,0l0,0l0,0l0,0.1l0,0.1l0.1,0.3l0.1,0.5c0.1,0.3,0.2,0.7,0.3,1
						c0.2,0.7,0.3,1.3,0.5,1.9l0.1,0.2l-0.2,0c-2.3,0-4.2,0-5.6-0.1c-0.6,0-1.1,0-1.6,0C348,333.2,347.8,333.2,347.8,333.1
						c0,0,0.2,0,0.6,0c0.4,0,1,0,1.6-0.1c1.4,0,3.3-0.1,5.5-0.1l-0.2,0.2c-0.2-0.6-0.3-1.2-0.5-1.9c-0.1-0.3-0.2-0.7-0.3-1l-0.1-0.5
						l-0.1-0.3l0-0.1l0-0.1l0,0l0,0l0,0l0,0l0,0l0,0c0,0,0.3,0.3,0.2,0.1c-3,0-5.7,0-7.7,0l0.1-0.2c0.3,1.2,0.5,2.2,0.7,2.8
						C347.8,332.7,347.8,333.1,347.8,333.1z"/>
				</g>
			</g>
		</g>
		<g>
			<g>
				<g>
					
						<ellipse transform="matrix(-1 3.943346e-003 -3.943346e-003 -1 703.1873 643.8976)" fill="#263238" cx="351" cy="322.6" rx="2.6" ry="0.2"/>
				</g>
			</g>
		</g>
		<g>
			<g>
				<g>
					
						<ellipse transform="matrix(-1 3.948352e-003 -3.948352e-003 -1 703.3486 645.5722)" fill="#263238" cx="351" cy="323.5" rx="2.6" ry="0.2"/>
				</g>
			</g>
		</g>
		<g>
			<g>
				<g>
					
						<ellipse transform="matrix(-1 3.945491e-003 -3.945491e-003 -1 703.477 647.1901)" fill="#263238" cx="351.1" cy="324.3" rx="2.5" ry="0.2"/>
				</g>
			</g>
		</g>
		<g>
			<g>
				<g>
					
						<ellipse transform="matrix(-1 3.944061e-003 -3.944061e-003 -1 703.2827 660.0118)" fill="#263238" cx="351" cy="330.7" rx="2.4" ry="0.2"/>
				</g>
			</g>
		</g>
		<g>
			<g>
				<g>
					
						<ellipse transform="matrix(-1 3.946922e-003 -3.946922e-003 -1 703.1749 661.8685)" fill="#263238" cx="350.9" cy="331.6" rx="2.1" ry="0.2"/>
				</g>
			</g>
		</g>
		<g>
			<g>
				<polygon fill="#263238" points="301.7,342.8 301.7,346.8 304.3,346.8 304.3,427.3 309.6,427.3 309.6,346.8 338,346.8 338,427.3 
					343.3,427.3 343.3,346.8 466.3,346.8 466.3,427.3 471.7,427.3 471.7,346.8 474,346.8 474,342.8 				"/>
			</g>
		</g>
		<g>
			<g>
				<g>
					<g>
						<ellipse fill="#263238" cx="421" cy="372.8" rx="3.5" ry="0.1"/>
					</g>
				</g>
			</g>
		</g>
		<g>
			<g>
				<g>
					<ellipse fill="#455A64" cx="366.9" cy="373.6" rx="0.2" ry="0.1"/>
				</g>
			</g>
		</g>
		<g>
			<g>
				<g>
					<path fill="#B78876" d="M401,302l-20-20.3l-0.4-2.2c-0.1-0.4-0.2-0.8-0.2-1.4c-0.1-0.6-0.1-1.2,0-1.8c0.1-0.7,0.3-1.6,0.6-2.1
						c0.3-0.6-0.2-1.3-0.8-1.1c-0.6,0.2-1.5,1.8-1.7,4c-0.2,2.2-2.1-0.7-2.8-1.8c-0.7-1-3-4.2-3.5-4.2c-0.7-0.1-0.9,0.7-0.2,1.7
						c0.7,1,2.7,4.3,2.1,4.6c0,0,0,0,0,0c-1.1-0.2-2.2,0.4-2.8,1.4c-0.5,1-1.1,2.3-0.6,3c0.9,1.2,3.2,3.4,3.2,3.4l0.7,0.6
						c0,0,17.3,25,21,25.8c2.3,0.5,38.5,3.5,38.5,3.5l2.7-10L401,302z"/>
				</g>
			</g>
			<g>
				<g>
					<g>
						<path fill="#B78876" d="M370.7,281.5c0.6,0.6,1.2,1.2,1.8,1.8c0.2,0.2,0.4,0.4,0.7,0.5c0.3,0.1,0.6,0.1,0.8-0.1
							c0.2-0.2,0.2-0.5,0.1-0.7c-0.1-0.2-0.3-0.5-0.4-0.7c-0.6-0.7-1.2-1.4-1.8-2.2"/>
					</g>
				</g>
				<g>
					<g>
						<g>
							<path fill="#AA6550" d="M371.9,280.1c0,0,0.4,0.3,0.9,0.9c0.3,0.3,0.6,0.7,0.9,1c0.2,0.2,0.4,0.4,0.5,0.7
								c0.1,0.3,0.2,0.7-0.1,1c-0.3,0.3-0.7,0.3-1,0.2c-0.3-0.1-0.5-0.3-0.7-0.5c-0.3-0.3-0.7-0.7-1-1c-0.5-0.6-0.9-0.9-0.8-1
								c0,0,0.4,0.3,1,0.8c0.3,0.3,0.7,0.6,1,0.9c0.2,0.2,0.4,0.3,0.6,0.4c0.2,0.1,0.5,0,0.6-0.1c0.1-0.2,0.1-0.4,0-0.6
								c-0.1-0.2-0.3-0.4-0.4-0.6c-0.3-0.4-0.6-0.7-0.9-1.1C372.1,280.5,371.9,280.1,371.9,280.1z"/>
						</g>
					</g>
				</g>
			</g>
			<g>
				<g>
					<g>
						<path fill="#B78876" d="M372,280.2c0.6,0.6,1.2,1.2,1.8,1.8c0.2,0.2,0.4,0.4,0.7,0.5c0.3,0.1,0.6,0.1,0.8-0.1
							c0.2-0.2,0.2-0.5,0.1-0.7s-0.3-0.5-0.4-0.7c-0.6-0.7-1.2-1.4-1.8-2.2"/>
					</g>
				</g>
				<g>
					<g>
						<g>
							<path fill="#AA6550" d="M373.2,278.8c0,0,0.4,0.3,0.9,0.9c0.3,0.3,0.6,0.7,0.9,1c0.2,0.2,0.4,0.4,0.5,0.7
								c0.1,0.3,0.2,0.7-0.1,1c-0.3,0.3-0.7,0.3-1,0.2c-0.3-0.1-0.5-0.3-0.7-0.5c-0.3-0.3-0.7-0.7-1-1c-0.5-0.6-0.9-0.9-0.8-1
								c0,0,0.4,0.3,1,0.8c0.3,0.3,0.7,0.6,1,0.9c0.2,0.2,0.4,0.3,0.6,0.4c0.2,0.1,0.5,0,0.6-0.1c0.1-0.2,0.1-0.4,0-0.6
								c-0.1-0.2-0.3-0.4-0.4-0.6c-0.3-0.4-0.6-0.7-0.9-1.1C373.4,279.3,373.2,278.9,373.2,278.8z"/>
						</g>
					</g>
				</g>
			</g>
			<g>
				<g>
					<g>
						<path fill="#B78876" d="M373.4,279.2c0.6,0.6,1.2,1.2,1.8,1.8c0.2,0.2,0.4,0.4,0.7,0.5c0.3,0.1,0.6,0.1,0.8-0.1
							c0.2-0.2,0.2-0.5,0.1-0.7c-0.1-0.2-0.3-0.5-0.4-0.7c-0.6-0.7-1.2-1.4-1.8-2.2"/>
					</g>
				</g>
				<g>
					<g>
						<g>
							<path fill="#AA6550" d="M374.6,277.8c0,0,0.4,0.3,0.9,0.9c0.3,0.3,0.6,0.7,0.9,1c0.2,0.2,0.4,0.4,0.5,0.7
								c0.1,0.3,0.2,0.7-0.1,1c-0.3,0.3-0.7,0.3-1,0.2c-0.3-0.1-0.5-0.3-0.7-0.5c-0.3-0.3-0.7-0.7-1-1c-0.5-0.6-0.9-0.9-0.8-1
								c0,0,0.4,0.3,1,0.8c0.3,0.3,0.7,0.6,1,0.9c0.2,0.2,0.4,0.3,0.6,0.4c0.2,0.1,0.5,0,0.6-0.1c0.1-0.2,0.1-0.4,0-0.6
								c-0.1-0.2-0.3-0.4-0.4-0.6c-0.3-0.4-0.6-0.7-0.9-1.1C374.9,278.2,374.6,277.8,374.6,277.8z"/>
						</g>
					</g>
				</g>
			</g>
			<g>
				<g>
					<g>
						<path fill="#AA6550" d="M376.3,282.2c0-0.1,0.5-0.2,1.1,0.1l-0.2,0.2c-0.1-0.4-0.1-0.8,0-1.3c0.1-0.7,0.4-1.2,0.7-1.5
							c0.3-0.3,0.5-0.5,0.6-0.4c0.1,0.1-0.7,0.8-0.9,2c-0.1,0.4-0.1,0.8,0,1.1l0,0.3l-0.3-0.1C376.8,282.3,376.3,282.3,376.3,282.2z
							"/>
					</g>
				</g>
			</g>
		</g>
		<g>
			<g>
				<g>
					<g>
						<path fill="#B78876" d="M427.1,271.6l0.1,27.8l-10.8,0.5l-0.4-6.7c0,0-5.2,0.8-6.3-3.1c-0.7-2.5-0.5-21.9-0.5-21.9
							L427.1,271.6z"/>
					</g>
				</g>
				<g>
					<g>
						<path fill="#263238" d="M406.4,270.9c0.8,1.7,4.6,4.7,4.6,4.7l1.7,4.6c1.5-1.2,3.5-1.1,3.9,1.5c0.3,1.9-2.1,2.3-2.1,2.3
							c1.4,2.3,2.3,4.2,4.3,6.5c2.2,2.4,3.4,2.7,5.7,2.7h2.6c0,0,5.3-4.4,4.3-16.1s-11.6-8.3-14.1-11.2
							C413.3,261.1,403.7,265.4,406.4,270.9z"/>
					</g>
				</g>
			</g>
			<g>
				<g>
					<g>
						<path fill="#455A64" d="M430.9,286.9c0,0-0.5,0.1-1.3-0.1c-0.8-0.1-2-0.6-3.1-1.6c-1.1-1-2.1-2.5-3.1-4.1
							c-1-1.7-2.1-3.6-4-4.9c-1.9-1.3-4.1-1.5-6-1.9c-1.9-0.4-3.7-0.9-4.8-1.8c-1.2-0.9-1.8-2.1-1.9-2.9c-0.2-0.8-0.1-1.3-0.1-1.3
							c0,0-0.1,0.5,0.1,1.3c0.2,0.8,0.8,1.9,1.9,2.8c1.2,0.9,2.9,1.4,4.8,1.8c1.9,0.4,4.1,0.6,6.1,1.9c1.9,1.3,3,3.3,4,4.9
							c1,1.7,2,3.2,3.1,4.1c1.1,1,2.2,1.5,3,1.6c0.4,0.1,0.7,0.1,0.9,0.1C430.8,286.9,430.9,286.9,430.9,286.9z"/>
					</g>
				</g>
			</g>
			<g>
				<g>
					<g>
						<path fill="#455A64" d="M431.5,277.4c0,0-0.2-0.1-0.6-0.2c-0.4-0.1-0.9-0.3-1.6-0.4c-0.7-0.1-1.7,0-2.5,0.6
							c-0.4,0.3-0.8,0.7-0.9,1.3c-0.1,0.6,0,1.2,0.5,1.7c0.2,0.2,0.5,0.3,0.9,0.3c0.3,0,0.7-0.1,1-0.3c0.6-0.4,1.1-1,1.3-1.7
							c0.5-1.4,0.1-3.3-1.2-4.4c-0.6-0.6-1.5-1-2.3-1c-0.9-0.1-1.8,0.1-2.7,0.4c-0.9,0.3-1.8,0.5-2.8,0.7c-1,0.1-2,0.1-3,0
							c-1-0.1-2-0.4-2.8-0.8c-0.9-0.4-1.7-1.1-1.9-2.1c-0.3-0.9,0-2,0.7-2.6c0.7-0.7,1.7-0.7,2.5-0.4c0.4,0.2,0.8,0.5,0.9,0.9
							c0.2,0.4,0.3,0.8,0.2,1.2c-0.1,0.8-0.6,1.6-1.3,2c-0.7,0.4-1.4,0.6-2.1,0.6c-0.7,0-1.4-0.1-2-0.3c-1.3-0.4-2.3-1.1-3-1.8
							c-0.7-0.7-1.2-1.5-1.5-2.2c-0.3-0.7-0.4-1.2-0.5-1.6c-0.1-0.4-0.1-0.6-0.1-0.6s0,0.2,0.1,0.6c0.1,0.4,0.2,0.9,0.6,1.6
							c0.3,0.7,0.8,1.4,1.5,2.1c0.7,0.7,1.7,1.4,3,1.8c0.6,0.2,1.3,0.3,2,0.3c0.7,0,1.4-0.2,2.1-0.6c0.6-0.4,1.1-1.1,1.2-1.9
							c0.1-0.8-0.3-1.7-1.1-2c-0.8-0.3-1.8-0.3-2.4,0.4c-0.6,0.6-0.9,1.6-0.6,2.5c0.2,0.9,1,1.6,1.9,2c0.9,0.4,1.8,0.6,2.8,0.8
							c1,0.1,2,0.1,2.9,0c1-0.1,1.9-0.4,2.8-0.7c0.9-0.3,1.8-0.5,2.7-0.4c0.9,0.1,1.8,0.5,2.4,1.1c1.3,1.2,1.7,3.1,1.2,4.5
							c-0.2,0.7-0.7,1.4-1.4,1.7c-0.3,0.2-0.7,0.3-1,0.3c-0.4,0-0.7-0.1-0.9-0.4c-0.5-0.5-0.6-1.2-0.5-1.8c0.1-0.6,0.5-1.1,0.9-1.4
							c0.9-0.6,1.9-0.6,2.6-0.6c0.7,0.1,1.3,0.3,1.6,0.4C431.3,277.3,431.5,277.4,431.5,277.4z"/>
					</g>
				</g>
			</g>
		</g>
		<g>
			<g>
				<g>
					<g>
						<g>
							<g>
								<g>
									<g>
										<g>
											<path fill="#E8505B" d="M417.7,420.5l-3.5-4.5l8.5-6.7l5.2,6.6l-0.5,0.4c-2.2,2-11.5,9.9-13.4,10.6
												C411.8,427.8,417.7,420.5,417.7,420.5z"/>
										</g>
									</g>
								</g>
							</g>
						</g>
					</g>
					<g opacity="0.4">
						<g>
							<g>
								<g>
									<g>
										<path fill="#FFFFFF" d="M415,424.2c0,0-1.9,2.7-1.3,2.9c0.6,0.2,10.3-7.5,14.3-11.2l-0.2-0.2l-11.2,9
											C416.6,424.7,415.5,423.9,415,424.2z"/>
									</g>
								</g>
							</g>
						</g>
					</g>
					<g>
						<g>
							<g>
								<g>
									<g>
										<g>
											<path fill="#263238" d="M427.9,415.6c0,0,0,0-0.1,0.1c-0.1,0.1-0.3,0.2-0.4,0.4c-0.4,0.3-0.9,0.8-1.5,1.3
												c-1.3,1.1-3,2.5-5,4.1c-2,1.6-3.8,3-5.1,3.9c-0.6,0.5-1.2,0.8-1.6,1.2c-0.2,0.1-0.3,0.2-0.4,0.3
												c-0.1,0.1-0.2,0.1-0.2,0.1c0,0,0,0,0.1-0.1c0.1-0.1,0.3-0.2,0.4-0.3c0.4-0.3,0.9-0.7,1.6-1.2c1.3-1,3.1-2.4,5.1-4
												c2-1.6,3.8-3,5-4.1c0.6-0.5,1.1-0.9,1.5-1.2c0.2-0.1,0.3-0.2,0.4-0.3C427.8,415.6,427.9,415.6,427.9,415.6z"/>
										</g>
									</g>
								</g>
							</g>
						</g>
					</g>
					<g>
						<g>
							<g>
								<g>
									<g>
										<g>
											<path fill="#263238" d="M416.7,424.9c0,0-0.3-0.3-0.9-0.5c-0.5-0.2-1-0.1-1-0.2c0,0,0.5-0.2,1,0.1
												C416.4,424.4,416.7,424.8,416.7,424.9z"/>
										</g>
									</g>
								</g>
							</g>
						</g>
					</g>
					<g>
						<g>
							<g>
								<g>
									<g>
										<g>
											
												<ellipse transform="matrix(0.944 0.3299 -0.3299 0.944 162.4025 -114.1868)" fill="#263238" cx="417.7" cy="421.4" rx="0.5" ry="0.1"/>
										</g>
									</g>
								</g>
							</g>
						</g>
					</g>
					<g>
						<g>
							<g>
								<g>
									<g>
										<g>
											
												<ellipse transform="matrix(0.998 6.281213e-002 -6.281213e-002 0.998 27.2493 -25.4316)" fill="#263238" cx="418.1" cy="420.7" rx="0.5" ry="0.1"/>
										</g>
									</g>
								</g>
							</g>
						</g>
					</g>
					<g>
						<g>
							<g>
								<g>
									<g>
										<g>
											
												<ellipse transform="matrix(0.7774 -0.629 0.629 0.7774 -171.1029 356.3531)" fill="#263238" cx="417.9" cy="419.9" rx="0.6" ry="0.1"/>
										</g>
									</g>
								</g>
							</g>
						</g>
					</g>
					<g>
						<g>
							<g>
								<g>
									<g>
										<g>
											<path fill="#263238" d="M418.1,418.9c0,0-0.1,0.3-0.4,0.5c-0.3,0.2-0.5,0.4-0.6,0.3c0,0,0.2-0.2,0.5-0.4
												C417.9,419.1,418,418.9,418.1,418.9z"/>
										</g>
									</g>
								</g>
							</g>
						</g>
					</g>
					<g>
						<g>
							<g>
								<g>
									<g>
										<g>
											<path fill="#263238" d="M417.3,421.1c0,0-0.2,0.2-0.5,0.4c-0.2,0.1-0.4,0.2-0.7,0.3c-0.1,0-0.3,0.1-0.4,0.1
												c-0.1,0-0.2,0-0.3-0.1c-0.1-0.1-0.1-0.2-0.1-0.3c0.3-0.7,1.1-0.8,1.5-0.7C416.9,421,417.1,421.1,417.3,421.1
												c0,0.2,0,0.2,0,0.2c0,0-0.2-0.2-0.6-0.3c-0.2,0-0.5,0-0.7,0.1c-0.2,0.1-0.5,0.3-0.6,0.6c0,0.1,0.1,0.2,0.2,0.2
												c0.1,0,0.3-0.1,0.4-0.1c0.3-0.1,0.5-0.2,0.7-0.3C417.1,421.2,417.3,421.1,417.3,421.1z"/>
										</g>
									</g>
								</g>
							</g>
						</g>
					</g>
					<g>
						<g>
							<g>
								<g>
									<g>
										<g>
											<path fill="#263238" d="M417.2,421.2c0,0-0.2-0.1-0.4-0.3c-0.1-0.1-0.2-0.3-0.2-0.5c0-0.2,0-0.5,0.2-0.6
												c0.1-0.1,0.3,0,0.4,0.1c0.1,0.1,0.1,0.2,0.1,0.3c0,0.2,0,0.4,0,0.5C417.3,421,417.2,421.2,417.2,421.2
												c0-0.1,0.1-0.2,0.1-0.5c0-0.1,0-0.3,0-0.5c0-0.2-0.1-0.4-0.3-0.3c-0.1,0.1-0.2,0.3-0.2,0.5c0,0.2,0.1,0.3,0.1,0.5
												C417,421.1,417.2,421.2,417.2,421.2z"/>
										</g>
									</g>
								</g>
							</g>
						</g>
					</g>
					<g>
						<g>
							<g>
								<g>
									<g>
										<g>
											<path fill="#263238" d="M425.9,413.4c0,0-0.3,0.2-0.6,0.5c-0.3,0.3-0.7,0.9-0.9,1.6c-0.2,0.7-0.1,1.4,0.1,1.9
												c0.2,0.5,0.3,0.7,0.3,0.7c0,0-0.1-0.1-0.1-0.2c-0.1-0.1-0.2-0.3-0.3-0.5c-0.2-0.5-0.3-1.2-0.1-1.9c0.2-0.8,0.6-1.3,1-1.7
												c0.2-0.2,0.4-0.3,0.5-0.4C425.8,413.5,425.9,413.4,425.9,413.4z"/>
										</g>
									</g>
								</g>
							</g>
						</g>
					</g>
					<g>
						<g>
							<g>
								<g>
									<g>
										<g>
											
												<ellipse transform="matrix(-0.6301 -0.7765 0.7765 -0.6301 370.3891 1001.0686)" fill="#263238" cx="423.6" cy="412.3" rx="2.2" ry="0.1"/>
										</g>
									</g>
								</g>
							</g>
						</g>
					</g>
					<g>
						<g>
							<g>
								<g>
									<g>
										<g>
											<path fill="#263238" d="M423.1,418.3c0,0-0.5,0.6-1.1,1.1c-0.7,0.6-1.3,0.9-1.3,0.9c0,0,0.6-0.4,1.2-1
												C422.5,418.7,423,418.2,423.1,418.3z"/>
										</g>
									</g>
								</g>
							</g>
						</g>
					</g>
					<g>
						<g>
							<g>
								<g>
									<g>
										<g>
											<path fill="#263238" d="M424.7,417c0,0,0,0.2,0.1,0.3c0,0.2,0.1,0.3,0.1,0.3c0,0-0.1-0.1-0.2-0.3
												C424.6,417.1,424.7,416.9,424.7,417z"/>
										</g>
									</g>
								</g>
							</g>
						</g>
					</g>
					<g>
						<g>
							<g>
								<g>
									<g>
										<g>
											
												<ellipse transform="matrix(0.1092 -0.994 0.994 0.1092 -35.1554 792.7086)" fill="#263238" cx="424.7" cy="416" rx="0.3" ry="0.1"/>
										</g>
									</g>
								</g>
							</g>
						</g>
					</g>
					<g>
						<g>
							<g>
								<g>
									<g>
										<g>
											<path fill="#263238" d="M425.4,414.6c0,0-0.1,0.1-0.2,0.3c-0.1,0.1-0.1,0.3-0.2,0.3c0,0-0.1-0.2,0.1-0.3
												C425.2,414.6,425.3,414.6,425.4,414.6z"/>
										</g>
									</g>
								</g>
							</g>
						</g>
					</g>
					<g>
						<g>
							<g>
								<g>
									<g>
										<g>
											
												<ellipse transform="matrix(0.5072 -0.8619 0.8619 0.5072 -147.0549 571.0386)" fill="#263238" cx="425.8" cy="414.1" rx="0.2" ry="0.1"/>
										</g>
									</g>
								</g>
							</g>
						</g>
					</g>
				</g>
			</g>
			<g opacity="0.3">
				<g>
					<g>
						<polygon points="425.7,413.2 417.1,419.8 416.3,418.7 425.3,412.6 						"/>
					</g>
				</g>
			</g>
		</g>
		<g>
			<g>
				<g>
					<g>
						<g>
							<g>
								<g>
									<g>
										<g>
											<path fill="#E8505B" d="M378.8,425.1l0-5.8l10.8,0l0.1,8.4l-0.7,0c-3,0.2-15.1,0.7-17.1,0.1
												C369.7,427.2,378.8,425.1,378.8,425.1z"/>
										</g>
									</g>
								</g>
							</g>
						</g>
					</g>
					<g opacity="0.4">
						<g>
							<g>
								<g>
									<g>
										<path fill="#FFFFFF" d="M374.3,426.3c0,0-3.2,0.9-2.8,1.5c0.4,0.5,12.7,0.5,18.1,0l0-0.2l-14.4,0.2
											C375.3,427.7,375,426.3,374.3,426.3z"/>
									</g>
								</g>
							</g>
						</g>
					</g>
					<g>
						<g>
							<g>
								<g>
									<g>
										<g>
											<path fill="#263238" d="M389.8,427.5c0,0-0.1,0-0.2,0c-0.2,0-0.3,0-0.5,0c-0.5,0-1.2,0.1-2,0.1c-1.7,0.1-3.9,0.1-6.5,0.1
												c-2.5,0-4.8,0-6.5-0.1c-0.8,0-1.4-0.1-2-0.1c-0.2,0-0.4,0-0.5,0c-0.1,0-0.2,0-0.2,0s0.1,0,0.2,0c0.2,0,0.3,0,0.5,0
												c0.5,0,1.2,0,2,0c1.7,0,3.9,0.1,6.5,0c2.5,0,4.8-0.1,6.5-0.1c0.8,0,1.4,0,2-0.1c0.2,0,0.4,0,0.5,0
												C389.8,427.5,389.8,427.5,389.8,427.5z"/>
										</g>
									</g>
								</g>
							</g>
						</g>
					</g>
					<g>
						<g>
							<g>
								<g>
									<g>
										<g>
											<path fill="#263238" d="M375.3,427.8c0,0-0.1-0.5-0.4-0.9c-0.3-0.5-0.7-0.7-0.7-0.7c0,0,0.5,0.2,0.8,0.7
												C375.4,427.3,375.3,427.8,375.3,427.8z"/>
										</g>
									</g>
								</g>
							</g>
						</g>
					</g>
					<g>
						<g>
							<g>
								<g>
									<g>
										<g>
											
												<ellipse transform="matrix(0.5394 0.842 -0.842 0.5394 532.6822 -122.3626)" fill="#263238" cx="378.2" cy="425.8" rx="0.5" ry="0.1"/>
										</g>
									</g>
								</g>
							</g>
						</g>
					</g>
					<g>
						<g>
							<g>
								<g>
									<g>
										<g>
											
												<ellipse transform="matrix(0.7468 0.6651 -0.6651 0.7468 378.9233 -144.3438)" fill="#263238" cx="379" cy="425.4" rx="0.5" ry="0.1"/>
										</g>
									</g>
								</g>
							</g>
						</g>
					</g>
					<g>
						<g>
							<g>
								<g>
									<g>
										<g>
											
												<ellipse transform="matrix(0.9999 -1.548153e-002 1.548153e-002 0.9999 -6.5299 5.9236)" fill="#263238" cx="379.3" cy="424.7" rx="0.6" ry="0.1"/>
										</g>
									</g>
								</g>
							</g>
						</g>
					</g>
					<g>
						<g>
							<g>
								<g>
									<g>
										<g>
											<path fill="#263238" d="M380.1,424c0,0-0.3,0.2-0.6,0.2c-0.4,0-0.7-0.1-0.6-0.1c0,0,0.3,0,0.6,0
												C379.8,424,380.1,424,380.1,424z"/>
										</g>
									</g>
								</g>
							</g>
						</g>
					</g>
					<g>
						<g>
							<g>
								<g>
									<g>
										<g>
											<path fill="#263238" d="M378.1,425.3c0,0-0.3,0-0.7,0c-0.2,0-0.5-0.1-0.7-0.2c-0.1,0-0.3-0.1-0.4-0.2
												c-0.1,0-0.1-0.1-0.2-0.2c0-0.1,0-0.2,0.1-0.3c0.7-0.3,1.3,0,1.6,0.4c0.1,0.2,0.2,0.3,0.2,0.5c0,0.1,0,0.2,0,0.2
												c0,0,0-0.3-0.3-0.6c-0.1-0.2-0.3-0.3-0.6-0.4c-0.2-0.1-0.6-0.1-0.8,0.1c-0.1,0.1-0.1,0.2,0.1,0.3
												c0.1,0.1,0.3,0.1,0.4,0.2c0.3,0.1,0.5,0.1,0.7,0.2C377.8,425.2,378.1,425.2,378.1,425.3z"/>
										</g>
									</g>
								</g>
							</g>
						</g>
					</g>
					<g>
						<g>
							<g>
								<g>
									<g>
										<g>
											<path fill="#263238" d="M377.9,425.3c0,0-0.1-0.2-0.1-0.5c0-0.2,0.1-0.3,0.2-0.5c0.1-0.2,0.3-0.4,0.6-0.4
												c0.2,0,0.2,0.2,0.2,0.3c0,0.1-0.1,0.2-0.1,0.3c-0.1,0.2-0.2,0.3-0.3,0.4C378.2,425.2,378,425.3,377.9,425.3
												c0,0,0.2-0.1,0.4-0.4c0.1-0.1,0.2-0.2,0.3-0.4c0.1-0.1,0.2-0.4,0-0.4c-0.2,0-0.4,0.2-0.5,0.3c-0.1,0.2-0.2,0.3-0.2,0.5
												C377.9,425.1,378,425.3,377.9,425.3z"/>
										</g>
									</g>
								</g>
							</g>
						</g>
					</g>
					<g>
						<g>
							<g>
								<g>
									<g>
										<g>
											<path fill="#263238" d="M389.6,424.5c0,0-0.3,0-0.8,0c-0.5,0.1-1.2,0.3-1.7,0.7c-0.6,0.5-0.9,1.1-1.1,1.5
												c-0.2,0.5-0.2,0.8-0.2,0.8c0,0,0-0.1,0-0.2c0-0.1,0-0.3,0.1-0.6c0.1-0.5,0.5-1.1,1.1-1.6c0.6-0.5,1.3-0.7,1.8-0.7
												c0.3,0,0.5,0,0.6,0C389.5,424.5,389.6,424.5,389.6,424.5z"/>
										</g>
									</g>
								</g>
							</g>
						</g>
					</g>
					<g>
						<g>
							<g>
								<g>
									<g>
										<g>
											
												<ellipse transform="matrix(-1.693506e-002 -0.9999 0.9999 -1.693506e-002 -27.1089 817.8494)" fill="#263238" cx="388.5" cy="422.3" rx="2.2" ry="0.1"/>
										</g>
									</g>
								</g>
							</g>
						</g>
					</g>
					<g>
						<g>
							<g>
								<g>
									<g>
										<g>
											<path fill="#263238" d="M384.4,426.6c0,0-0.7,0.2-1.6,0.2c-0.9,0-1.6-0.1-1.6-0.1c0,0,0.7,0,1.6,0
												C383.7,426.6,384.4,426.6,384.4,426.6z"/>
										</g>
									</g>
								</g>
							</g>
						</g>
					</g>
					<g>
						<g>
							<g>
								<g>
									<g>
										<g>
											<path fill="#263238" d="M386.5,426.6c0,0-0.1,0.1-0.1,0.3c-0.1,0.2-0.1,0.3-0.1,0.3c0,0-0.1-0.2,0-0.4
												C386.4,426.7,386.5,426.6,386.5,426.6z"/>
										</g>
									</g>
								</g>
							</g>
						</g>
					</g>
					<g>
						<g>
							<g>
								<g>
									<g>
										<g>
											
												<ellipse transform="matrix(0.6993 -0.7149 0.7149 0.6993 -187.9691 404.7892)" fill="#263238" cx="387.1" cy="425.8" rx="0.3" ry="0.1"/>
										</g>
									</g>
								</g>
							</g>
						</g>
					</g>
					<g>
						<g>
							<g>
								<g>
									<g>
										<g>
											<path fill="#263238" d="M388.5,425.1c0,0-0.2,0-0.3,0.1c-0.2,0.1-0.3,0.1-0.3,0.1c0,0,0.1-0.2,0.3-0.2
												C388.3,425,388.5,425.1,388.5,425.1z"/>
										</g>
									</g>
								</g>
							</g>
						</g>
					</g>
					<g>
						<g>
							<g>
								<g>
									<g>
										<g>
											
												<ellipse transform="matrix(0.9308 -0.3655 0.3655 0.9308 -128.4177 171.6382)" fill="#263238" cx="389.1" cy="425" rx="0.2" ry="0.1"/>
										</g>
									</g>
								</g>
							</g>
						</g>
					</g>
				</g>
			</g>
			<g opacity="0.3">
				<g>
					<g>
						<polygon points="389.7,424.1 378.8,424.1 378.8,422.8 389.6,422.7 						"/>
					</g>
				</g>
			</g>
		</g>
		<g>
			<g>
				<g>
					<g>
						<path fill="#B78876" d="M405.4,325.7l-4.3,13c-1.2,3.5-4.2,4.1-7.9,4.1h-24v-5.4l21.9-3.1l5.2-13.4L405.4,325.7z"/>
					</g>
				</g>
			</g>
			<g>
				<g>
					<g>
						<g>
							<path fill="#B78876" d="M366.5,336.3l-1.9-0.9c0,0-2.1-4-2.5-3.8c-0.5,0.2-0.6,1.3,0.2,3.2l-2.5-0.7c0,0-5.5,2.5-5.2,2.9
								c0.2,0.3,0.7,1.2,1.9,0.5c1.2-0.6,2.8-1.3,2.8-1.3l3,0.8l-3.8,0.5l-3.6,3.3c0,0,1.2,0.9,2.2-0.1l9.3,2l2.9,0.2v-5.4
								L366.5,336.3z"/>
						</g>
					</g>
				</g>
				<g>
					<g>
						<g>
							<g>
								<path fill="#AA6550" d="M356.9,340.7c0,0,0.2-0.2,0.5-0.6c0.2-0.2,0.4-0.4,0.7-0.5c0.3-0.2,0.6-0.2,1-0.3
									c1.6-0.2,2.8-0.4,2.8-0.5c0-0.1-1.3,0-2.8,0.2c-0.4,0-0.8,0.1-1.1,0.3c-0.3,0.2-0.5,0.4-0.7,0.6
									C357,340.3,356.9,340.6,356.9,340.7z"/>
							</g>
						</g>
					</g>
				</g>
				<g>
					<g>
						<g>
							<g>
								<path fill="#AA6550" d="M358.4,341c0,0,0.1-0.2,0.3-0.2c0.3,0,0.7-0.1,1.1-0.1c0.9-0.1,1.6-0.1,1.6-0.2
									c0-0.1-0.7-0.2-1.7-0.1c-0.5,0.1-0.9,0.1-1.2,0.2c-0.2,0.1-0.3,0.2-0.3,0.3C358.3,341,358.4,341,358.4,341z"/>
							</g>
						</g>
					</g>
				</g>
			</g>
		</g>
		<g>
			<g>
				<g>
					<g>
						<g>
							<g>
								<g>
									<path fill="#307EEF" d="M407.5,322.9l-1.8,6.3l-11.7-5.3c0.4-1.3,2.4-7.1,6.1-16.4c2.1-5.2,6.7-8.9,12.2-9.8
										c3.8-0.6,8-1.1,11.2-1.1c6.6,0.1,16.3,4.2,17.6,10.6c1,4.9,0,13.6,0,24.2l-0.9,20.2l-33.7,1.1L407.5,322.9z"/>
								</g>
							</g>
						</g>
					</g>
				</g>
			</g>
		</g>
		<g opacity="0.3">
			<g>
				<g>
					<g>
						<path d="M440.9,326.6c-4.1,0.8-8.3,0-12.5-0.3c-2.5-0.2-5.3-0.4-7.3,1.1c-1.6,1.2-2.2,3.3-2.7,5.3c-1.7,7.5-2.1,12.5-2.5,20.1
							l20.3,1.2L440.9,326.6z"/>
					</g>
				</g>
			</g>
		</g>
		<g>
			<g>
				<g>
					<g>
						<path fill="#263238" d="M406.6,301c0,0,0.3,0,0.9,0.3c0.6,0.2,1.3,0.7,1.9,1.6c0.6,0.9,1.1,2.1,1.2,3.5c0.1,1.4-0.1,3-0.4,4.6
							c-0.5,3.3-1.3,6.2-1.9,8.3c-0.3,1-0.5,1.8-0.7,2.5c-0.2,0.6-0.2,0.9-0.2,0.9c0,0,0.1-0.3,0.3-0.9c0.2-0.6,0.5-1.4,0.8-2.5
							c0.6-2.1,1.4-5,2-8.3c0.2-1.6,0.4-3.2,0.3-4.7c-0.1-1.5-0.6-2.7-1.3-3.6c-0.7-0.9-1.5-1.4-2.1-1.6c-0.3-0.1-0.5-0.1-0.7-0.2
							C406.7,301,406.6,301,406.6,301z"/>
					</g>
				</g>
			</g>
		</g>
		<g>
			<g>
				<g>
					<g>
						<path fill="#263238" d="M394.3,322.2c0,0,0.6,0.4,1.7,0.9c1,0.5,2.5,1.3,4.1,2c1.6,0.7,3.1,1.4,4.2,1.8
							c1.1,0.4,1.8,0.6,1.8,0.6c0,0-0.6-0.3-1.7-0.8c-1.1-0.5-2.6-1.1-4.2-1.8c-1.6-0.7-3.1-1.4-4.2-1.9
							C394.9,322.5,394.3,322.2,394.3,322.2z"/>
					</g>
				</g>
			</g>
		</g>
		<g>
			<g>
				<g>
					<g>
						<path fill="#263238" d="M388.9,354.1c-5.7,3.1-7.9,10.3-4.9,16.1l29.3,50.4l13.5-8.2l-22.8-45.5l16.5-10.8"/>
					</g>
				</g>
			</g>
			<g>
				<g>
					<g>
						<g>
							<path fill="#263238" d="M424.6,351.7l-40.3,1.4c-6.5,0.2-11.7,5.6-11.6,12.2l1.7,57.5l16.9,0l-0.6-54.4l33.8-0.9V351.7z"/>
						</g>
					</g>
				</g>
				<g>
					<g>
						<g>
							<path fill="#455A64" d="M390.8,370.3c0,0,0,0.2,0,0.5c0,0.4,0,0.9,0.1,1.5c0.1,1.3,0.1,3.2,0.2,5.6
								c0.1,4.7,0.2,11.3,0.2,18.5c0,7.2,0.1,13.7,0.1,18.5c0,2.3,0,4.2,0,5.6c0,0.6,0,1.1,0,1.5c0,0.3,0,0.5,0,0.5c0,0,0-0.2,0-0.5
								c0-0.4,0-0.9-0.1-1.5c-0.1-1.3-0.1-3.2-0.2-5.6c-0.1-4.7-0.2-11.3-0.2-18.5c0-7.2-0.1-13.7-0.1-18.5c0-2.3,0-4.2,0-5.6
								c0-0.6,0-1.1,0-1.5C390.8,370.5,390.8,370.3,390.8,370.3z"/>
						</g>
					</g>
				</g>
			</g>
		</g>
		<g>
			<g>
				<g>
					<path fill="#455A64" d="M442,315.2h-12.2c-4.9,0-8.9,4-8.9,8.9v42.5h-24.3c-3.4,0-6.1,2.8-6.1,6.1h55.6c0,0,0,0,0,0
						c2.7-0.1,4.9-2.3,4.9-5.1V324C450.9,319.1,446.9,315.2,442,315.2z"/>
				</g>
			</g>
			<g>
				<g>
					<g>
						<path fill="#263238" d="M424.5,316.6c0.1,0,0.2,12.5,0.2,27.9c0,15.4-0.1,27.9-0.2,27.9c-0.1,0-0.2-12.5-0.2-27.9
							C424.3,329.1,424.4,316.6,424.5,316.6z"/>
					</g>
				</g>
			</g>
			<g>
				<g>
					<path fill="#455A64" d="M423,417.3v-44.6h-4v44.6c-2.4,4.8-8.1,8-15,10.6h35.3C432.1,425,425.7,422.8,423,417.3z"/>
				</g>
			</g>
		</g>
		<g>
			<g>
				<g>
					<path fill="#307EEF" d="M200,411.5c0,0,0-0.1,0.1-0.3c0.1-0.2,0.2-0.4,0.4-0.8c0.3-0.7,0.7-1.7,1-3c0.7-2.7,0.9-6.8-0.1-11.7
						c-0.5-2.4-1.2-5.1-2.2-7.9c-0.9-2.8-2-5.7-2.9-8.9c-0.9-3.2-1.5-6.7-1.4-10.3c0.1-3.6,1.2-7.3,2.4-10.9
						c1.2-3.6,2.4-7.2,2.8-10.7c0.4-3.6-0.3-7-2-9.9c-1.6-2.9-3.5-5.4-5-7.9c-1.5-2.5-2.4-5.2-3-7.6c-1.1-4.9-0.7-9.1-0.2-11.8
						c0.6-2.7,1.2-4.2,1.2-4.2c0,0,0,0.1-0.1,0.3c-0.1,0.2-0.1,0.5-0.2,0.8c-0.2,0.7-0.5,1.7-0.8,3.1c-0.5,2.7-0.8,6.8,0.3,11.7
						c0.6,2.4,1.5,5,3,7.5c1.5,2.5,3.5,5,5.1,7.9c1.7,2.9,2.4,6.5,2,10.1c-0.4,3.6-1.6,7.2-2.8,10.8c-1.2,3.6-2.2,7.2-2.4,10.8
						c-0.1,3.6,0.5,7,1.4,10.2c0.9,3.2,1.9,6.1,2.8,8.9c0.9,2.8,1.7,5.4,2.1,7.9c1,4.9,0.7,9.1,0,11.8c-0.4,1.4-0.8,2.4-1.1,3
						c-0.2,0.3-0.3,0.6-0.4,0.7C200,411.4,200,411.5,200,411.5z"/>
				</g>
			</g>
			<g>
				<g>
					<path fill="#307EEF" d="M195.2,331.8c0,0-3-9.6,2.4-15.2c0.2-0.2,0.5-0.1,0.6,0.2C198.4,318.4,198.7,323.2,195.2,331.8z"/>
				</g>
				<g>
					<g>
						<path fill="#307EEF" d="M196.9,319.8c0.1,0,0,0.7-0.2,1.8c-0.2,1.2-0.4,2.6-0.7,4.2c-0.3,1.6-0.5,3-0.7,4.2
							c-0.2,1.1-0.3,1.8-0.3,1.7c0,0,0-0.7,0.1-1.8c0.1-1.1,0.3-2.6,0.6-4.3c0.3-1.7,0.6-3.1,0.8-4.2
							C196.7,320.5,196.9,319.8,196.9,319.8z"/>
					</g>
				</g>
			</g>
			<g>
				<g>
					<path fill="#307EEF" d="M198.7,354.4c0,0,1.8-9.9,9.2-12.3c0.3-0.1,0.5,0.2,0.4,0.4C207.8,344,205.9,348.5,198.7,354.4z"/>
				</g>
				<g>
					<g>
						<path fill="#307EEF" d="M205.9,344.6c0,0-0.4,0.6-1,1.5c-0.7,1-1.6,2.1-2.6,3.4c-1,1.3-1.8,2.4-2.6,3.4
							c-0.7,0.9-1.1,1.4-1.1,1.4c0,0,0.3-0.6,0.9-1.5c0.6-0.9,1.5-2.2,2.5-3.5c1-1.3,2-2.5,2.7-3.4
							C205.4,345.1,205.8,344.6,205.9,344.6z"/>
					</g>
				</g>
			</g>
			<g>
				<g>
					<path fill="#307EEF" d="M196.7,379.2c0,0-1.1-10,5.2-14.5c0.2-0.2,0.5,0,0.5,0.3C202.4,366.6,201.9,371.4,196.7,379.2z"/>
				</g>
				<g>
					<g>
						<path fill="#307EEF" d="M200.7,367.7c0,0-0.2,0.7-0.5,1.7c-0.4,1.2-0.9,2.5-1.5,4c-0.5,1.5-1,2.9-1.5,4
							c-0.4,1-0.6,1.7-0.6,1.7c0,0,0.1-0.7,0.4-1.7c0.3-1.1,0.8-2.5,1.4-4.1c0.6-1.6,1.1-3,1.6-4
							C200.4,368.3,200.7,367.7,200.7,367.7z"/>
					</g>
				</g>
			</g>
			<g>
				<g>
					<path fill="#307EEF" d="M202.2,404.1c0,0-0.8-10,5.7-14.3c0.2-0.1,0.5,0,0.5,0.3C208.4,391.7,207.7,396.5,202.2,404.1z"/>
				</g>
				<g>
					<g>
						<path fill="#307EEF" d="M206.7,392.8c0,0-0.2,0.7-0.6,1.7c-0.5,1.1-1,2.5-1.6,4c-0.6,1.5-1.1,2.8-1.6,4
							c-0.4,1-0.7,1.6-0.7,1.6c0,0,0.1-0.7,0.5-1.7c0.3-1,0.9-2.5,1.5-4c0.6-1.5,1.3-2.9,1.7-3.9
							C206.3,393.4,206.6,392.8,206.7,392.8z"/>
					</g>
				</g>
			</g>
			<g>
				<g>
					<path fill="#307EEF" d="M190.8,323.4c0,0-8.9-4.6-9.1-12.4c0-0.3,0.3-0.4,0.5-0.3C183.6,311.6,187.3,314.8,190.8,323.4z"/>
				</g>
				<g>
					<g>
						<path fill="#307EEF" d="M183.6,313.7c0,0,0.5,0.5,1.1,1.4c0.7,1,1.6,2.2,2.5,3.5c0.9,1.3,1.8,2.5,2.5,3.5
							c0.6,0.9,1.1,1.4,1,1.5c0,0-0.5-0.5-1.2-1.3c-0.7-0.8-1.6-2-2.6-3.4c-1-1.4-1.8-2.6-2.4-3.5
							C183.9,314.3,183.6,313.7,183.6,313.7z"/>
					</g>
				</g>
			</g>
			<g>
				<g>
					<path fill="#307EEF" d="M200.4,344c0,0-9.2-4.1-9.8-11.8c0-0.3,0.3-0.5,0.5-0.3C192.5,332.6,196.3,335.6,200.4,344z"/>
				</g>
				<g>
					<g>
						<path fill="#307EEF" d="M192.6,334.7c0,0,0.5,0.5,1.2,1.3c0.8,1,1.7,2.1,2.7,3.3c1,1.2,1.9,2.3,2.7,3.3
							c0.7,0.8,1.1,1.4,1.1,1.4c0,0-0.5-0.4-1.3-1.2c-0.8-0.8-1.8-1.9-2.8-3.2c-1.1-1.3-2-2.5-2.6-3.4
							C192.9,335.3,192.6,334.7,192.6,334.7z"/>
					</g>
				</g>
			</g>
			<g>
				<g>
					<path fill="#307EEF" d="M195.1,366.9c0,0-6.3-7.8-3.3-15c0.1-0.3,0.4-0.3,0.6-0.1C193.2,353.2,195.3,357.6,195.1,366.9z"/>
				</g>
				<g>
					<g>
						<path fill="#307EEF" d="M192.4,355.1c0.1,0,0.2,0.6,0.5,1.7c0.3,1.2,0.6,2.6,0.9,4.2c0.3,1.6,0.7,3,0.9,4.2
							c0.2,1.1,0.4,1.7,0.3,1.7c0,0-0.3-0.6-0.6-1.7c-0.3-1.1-0.7-2.5-1-4.2c-0.4-1.6-0.6-3.1-0.8-4.2
							C192.4,355.8,192.4,355.1,192.4,355.1z"/>
					</g>
				</g>
			</g>
			<g>
				<g>
					<path fill="#307EEF" d="M201.4,393.9c0,0-9.1-4.3-9.6-12c0-0.3,0.3-0.5,0.5-0.3C193.6,382.5,197.4,385.5,201.4,393.9z"/>
				</g>
				<g>
					<g>
						<path fill="#307EEF" d="M193.7,384.5c0,0,0.5,0.5,1.2,1.3c0.8,1,1.7,2.1,2.7,3.4c1,1.3,1.9,2.4,2.7,3.3
							c0.7,0.9,1.1,1.4,1.1,1.4c0,0-0.5-0.4-1.3-1.2c-0.7-0.8-1.7-2-2.8-3.3c-1-1.3-1.9-2.5-2.6-3.4
							C194,385.1,193.7,384.5,193.7,384.5z"/>
					</g>
				</g>
			</g>
			<g>
				<g>
					<g>
						<path fill="#307EEF" d="M219.5,354.5c0,0,0,0.1,0,0.2c0,0.2,0,0.4,0,0.6c0,0.6-0.1,1.4-0.1,2.4c-0.1,2.1-0.3,5.1-0.5,8.7l0,0
							l0,0c-0.6,3.6-2.5,7.7-5,11.6c-1.8,2.9-3.7,5.5-5.4,7.9c-1.7,2.4-3.1,4.7-4,6.7c-1,2-1.6,3.7-1.9,4.9
							c-0.2,0.6-0.3,1.1-0.3,1.4c-0.1,0.3-0.1,0.5-0.1,0.5c0,0,0-0.2,0.1-0.5c0-0.3,0.1-0.8,0.3-1.4c0.3-1.2,0.8-3,1.8-5
							c1-2,2.3-4.3,4-6.7c1.6-2.5,3.5-5.1,5.4-7.9c2.5-3.9,4.3-7.9,5-11.4l0,0c0.3-3.6,0.5-6.5,0.6-8.7c0.1-1,0.1-1.8,0.2-2.4
							c0-0.3,0-0.5,0.1-0.6C219.5,354.5,219.5,354.5,219.5,354.5z"/>
					</g>
				</g>
				<g>
					<g>
						<path fill="#307EEF" d="M214.1,377.3c0,0,3.9-9.3-1-15.3c-0.2-0.2-0.5-0.2-0.6,0.1C212.1,363.6,211.3,368.4,214.1,377.3z"/>
					</g>
					<g>
						<g>
							<path fill="#307EEF" d="M213.4,365.2c0.1,0,0.2,0.7,0.3,1.8c0.1,1.1,0.3,2.6,0.4,4.3c0.1,1.7,0.2,3.2,0.2,4.3
								c0,1.1-0.1,1.8-0.1,1.8c-0.1,0-0.1-0.7-0.2-1.8c-0.1-1.2-0.2-2.7-0.3-4.3c-0.1-1.6-0.2-3-0.3-4.3
								C213.3,365.9,213.3,365.2,213.4,365.2z"/>
						</g>
					</g>
					<g opacity="0.3">
						<path fill="#307EEF" d="M214.1,377.3c0,0,3.9-9.3-1-15.3c-0.2-0.2-0.5-0.2-0.6,0.1C212.1,363.6,211.3,368.4,214.1,377.3z"/>
					</g>
				</g>
				<g>
					<g>
						<path fill="#307EEF" d="M202.1,399.6c0,0,3.1-9.6-2.2-15.2c-0.2-0.2-0.5-0.1-0.6,0.2C199,386.2,198.6,391,202.1,399.6z"/>
					</g>
					<g>
						<g>
							<path fill="#307EEF" d="M200.5,387.6c0.1,0,0.2,0.6,0.4,1.7c0.2,1.1,0.5,2.6,0.8,4.2c0.3,1.7,0.4,3.2,0.5,4.3
								c0.1,1.1,0.1,1.8,0,1.8c-0.1,0-0.1-0.7-0.3-1.8c-0.2-1.2-0.4-2.7-0.6-4.2c-0.2-1.6-0.5-3-0.6-4.2
								C200.5,388.3,200.4,387.6,200.5,387.6z"/>
						</g>
					</g>
					<g opacity="0.3">
						<path fill="#307EEF" d="M202.1,399.6c0,0,3.1-9.6-2.2-15.2c-0.2-0.2-0.5-0.1-0.6,0.2C199,386.2,198.6,391,202.1,399.6z"/>
					</g>
				</g>
				<g>
					<g>
						<path fill="#307EEF" d="M219,366c0,0,8.2-5.8,7.4-13.5c0-0.3-0.3-0.4-0.6-0.2C224.6,353.3,221.4,356.9,219,366z"/>
					</g>
					<g opacity="0.3">
						<path fill="#307EEF" d="M219,366c0,0,8.2-5.8,7.4-13.5c0-0.3-0.3-0.4-0.6-0.2C224.6,353.3,221.4,356.9,219,366z"/>
					</g>
					<g>
						<g>
							<path fill="#307EEF" d="M224.9,355.4c0,0-0.2,0.7-0.7,1.6c-0.5,1-1.2,2.3-1.9,3.8c-0.8,1.5-1.6,2.8-2.2,3.7
								c-0.6,0.9-1,1.5-1,1.4c0,0,0.3-0.6,0.8-1.6c0.6-1.1,1.3-2.4,2-3.8c0.8-1.4,1.5-2.7,2-3.8
								C224.5,355.9,224.8,355.3,224.9,355.4z"/>
						</g>
					</g>
				</g>
				<g>
					<g>
						<path fill="#307EEF" d="M205.4,390.2c0,0,9.9-1.5,12.6-8.8c0.1-0.3-0.1-0.5-0.4-0.4C216.1,381.3,211.6,383.1,205.4,390.2z"/>
					</g>
					<g opacity="0.3">
						<path fill="#307EEF" d="M205.4,390.2c0,0,9.9-1.5,12.6-8.8c0.1-0.3-0.1-0.5-0.4-0.4C216.1,381.3,211.6,383.1,205.4,390.2z"/>
					</g>
					<g>
						<g>
							<path fill="#307EEF" d="M215.4,383.3c0,0-0.5,0.5-1.3,1.2c-0.9,0.7-2.1,1.6-3.4,2.6c-1.4,1-2.6,1.8-3.6,2.4
								c-0.9,0.6-1.5,0.9-1.6,0.8c0,0,0.5-0.4,1.4-1.1c1-0.7,2.2-1.5,3.5-2.5c1.3-0.9,2.5-1.8,3.5-2.5
								C214.8,383.6,215.4,383.2,215.4,383.3z"/>
						</g>
					</g>
				</g>
			</g>
		</g>
		<g>
			<polygon fill="#455A64" points="196,408.4 193.1,427.9 211.1,427.9 208.8,408.4 			"/>
		</g>
		<g>
			<g>
				<ellipse fill="#263238" cx="202.2" cy="414.5" rx="7.3" ry="0.2"/>
			</g>
		</g>
		<g>
			<g>
				<ellipse fill="#263238" cx="202.4" cy="416" rx="7.5" ry="0.2"/>
			</g>
		</g>
	</g>
</g>
</svg>
