<?xml version="1.0" encoding="utf-8"?>
<!-- Generator: Adobe Illustrator 17.1.0, SVG Export Plug-In . SVG Version: 6.00 Build 0)  -->
<!DOCTYPE svg PUBLIC "-//W3C//DTD SVG 1.1//EN" "http://www.w3.org/Graphics/SVG/1.1/DTD/svg11.dtd">
<svg version="1.1" xmlns="http://www.w3.org/2000/svg" xmlns:xlink="http://www.w3.org/1999/xlink" x="0px" y="0px"
	 viewBox="0 0 500 370" enable-background="new 0 0 500 370" xml:space="preserve">
<g id="BACKGROUND">
	<rect y="-65" fill="#FFFFFF" width="500" height="500"/>
</g>
<g id="OBJECTS">
	<g>
		<g>
			<path fill="#BBE2F2" d="M217.2,80.5C200.4,19.8,124.8,0.3,81.5,45.6c-0.6,0.7-1.2,1.3-1.9,2C17.6,115,46.9,281,176.5,323.1
				c129.6,42.1,264.4-34.8,272-103.5c7.6-68.7-52.2-90.3-145-71.1C251.1,159.4,227.6,118.3,217.2,80.5z"/>
			<path fill="#BBE2F2" d="M325,90.9c-17.3,2.8-22.1,18.1-8.8,29c4.4,3.6,10.7,6.6,19.7,8.1c34.3,5.7,52.5-9.5,38.8-29.1
				C366.3,86.8,342.2,88.1,325,90.9z"/>
			<path fill="#BBE2F2" d="M48.5,213.6c-10.8-13.8-26.6-10.7-29.7,6.2c-1,5.6-0.6,12.6,2.4,21.2c11.4,32.8,33.5,41.5,44.2,20
				C71.9,247.8,59.2,227.3,48.5,213.6z"/>
			<path fill="#BBE2F2" d="M460.7,227.6c-1.6,8.3,5.3,14.3,13.1,11c2.6-1.1,5.2-3.1,7.5-6.7c8.8-13.7,4.4-25.5-7.9-24.3
				C465.8,208.4,462.3,219.4,460.7,227.6z"/>
			<path fill="#BBE2F2" d="M416.9,139.6c8.3,1.7,14.4-5.1,11.3-12.9c-1-2.6-3-5.2-6.6-7.6c-13.6-9.1-25.5-4.8-24.5,7.5
				C397.7,134.1,408.6,137.8,416.9,139.6z"/>
			<path fill="#BBE2F2" d="M214.3,50.3c6.6,5.4,15.1,2.1,16-6.3c0.3-2.8-0.3-6-2.3-9.8c-7.9-14.3-20.4-15.9-25.2-4.6
				C199.8,36.6,207.8,44.9,214.3,50.3z"/>
		</g>
		<g>
			<path fill="#1C31B5" d="M481.4,269.4c13.2-13.3,23.3-28.3,13.3-30.6c-10-2.3-26.9,23.8-29.8,47.6l-2.9,7.9
				c2.4-17.3-3.5-38.4-12.2-39.3c-8.6-0.9-3.4,12.8,3.5,24.5c5.2,8.9,6.6,15.9,6.9,19.6l-13.9,37.1c3.8-27.4-5.6-60.7-19.4-62.1
				c-13.7-1.4-5.4,20.3,5.5,38.9c8.2,14,10.4,25.1,11,30.9l-2.8,7.4c1.2,0.7,2.4,1.4,3.6,2l16.5-44.1c3.2-2.4,8-5.2,14.9-7.6
				c12.9-4.3,25.8-11.3,18.7-16.3c-6.2-4.3-20.6,4-30.6,15.8l5.7-15.3C472,281.4,475.7,275.1,481.4,269.4z"/>
			<path fill="#1C31B5" d="M64.2,96.2c1.7-16,0.4-31.5-7.6-27.7c-8,3.8-5.2,30.5,5.7,48l2.3,6.9c-7.7-12.9-23.1-23.9-29.4-19.8
				c-6.3,4.1,4.6,10.4,15.6,14.6c8.3,3.2,13,7.1,15.2,9.4l10.7,32.4c-12.3-20.5-36.6-37.7-46.5-31.2c-10,6.5,7.3,16.6,24.7,23.2
				c13.1,5,20.6,11.2,24.1,14.8l2.1,6.5c1.2-0.2,2.4-0.4,3.5-0.6L71.8,134c0.9-3.3,2.6-7.8,5.9-13.1c6.3-9.8,11.2-21.4,3.8-21
				c-6.5,0.4-11.7,13.8-12,27.1l-4.4-13.3C64.4,109.3,63.5,103.1,64.2,96.2z"/>
			<g>
				<g>
					<path fill="#009CF8" d="M392.1,313.5c0.2,0.9,0.4,1.9,0.6,3l0,0c2.4,11.1,8.2,29.2,21.4,32.7c0,0-7.2-37.3,18.4-47
						c25.5-9.7,22.7-19,21.3-35.4c-1.5-16.5-7.1-19.6,10.6-35c17.7-15.4,14.3-38.4,14.3-38.4s-16.8,26.2-34.7,26.8
						c-17.9,0.6-21,15.9-20.3,27.2c0.8,11.3-14.4,12.6-22.7,19.2s-9.8,41.1-9.8,41.1S391.4,310,392.1,313.5z"/>
				</g>
				<g>
					<path fill="#006BDE" d="M392.1,313.5c0.2,0.9,0.4,1.9,0.6,3c1.8-5.5,4.4-10.2,6.8-13.8c5.7-8.5,13.8-15.4,21-18.2
						c11.6-4.3,17.2-15.7,18.3-36.7c0.6-12.2,13.4-19.4,13.6-19.5c0.4-0.2,0.5-0.7,0.3-1.1c-0.2-0.4-0.7-0.5-1.1-0.3
						c-0.6,0.3-13.7,7.7-14.4,20.7c-1.1,20.3-6.4,31.2-17.3,35.3c-7.7,2.9-15.8,9.9-21.8,18.7C396.1,304.9,393.8,308.9,392.1,313.5z
						"/>
				</g>
			</g>
			<g>
				<g>
					<path fill="#006BDE" d="M109.4,349h17.9c-9.7-1.6-33.7-11.9-35.9-32.5c-2.7-26.2-12-25.8-27.8-28.6c-15.7-2.7-20.1,1.7-30-18.6
						c-10-20.3-32.3-22.9-32.3-22.9s20.3,22.1,16.4,38.9c-3.9,16.8,9.6,23.5,20.4,25.6c10.8,2.1,8.2,16.6,12.3,25.9
						c1.9,4.2,9.5,8.6,17.3,12.2H109.4z"/>
				</g>
				<g>
					<path fill="#1C31B5" d="M70.5,323.2c0.8,7.8,5.3,17.1,12.1,24.9c0.2,0.3,0.5,0.6,0.7,0.8h2c-0.6-0.6-1.1-1.2-1.7-1.8
						c-6.5-7.4-11-16.7-11.7-24.1c-1.2-11.8-10.3-19.9-29.7-26.1c-11.2-3.6-14.8-17.3-14.8-17.4c-0.1-0.4-0.5-0.6-0.9-0.5
						c-0.4,0.1-0.6,0.5-0.5,0.9c0.1,0.6,3.8,14.6,15.8,18.5C60.6,304.4,69.4,312.1,70.5,323.2z"/>
				</g>
			</g>
			<g>
				<g>
					<path fill="#009CF8" d="M119.1,300.4c-0.4,1.3-0.8,2.7-1.3,4.1l0,0c-5.1,15.4-15.6,41.4-34.9,44.4c0,0,15.3-53.1-19.6-70.9
						s-29.5-30.5-24.9-53.8c4.6-23.3,13.2-26.9-9.8-51.6C5.7,148,14.1,115.8,14.1,115.8s19.9,40,45.3,43.6s27.6,25.9,24.7,41.9
						c-2.8,16.1,18.7,20.2,29.4,30.9c10.7,10.7,7.6,60.2,7.6,60.2S120.5,295.6,119.1,300.4z"/>
				</g>
				<g>
					<path fill="#006BDE" d="M119.1,300.4c-0.4,1.3-0.8,2.7-1.3,4.1c-1.8-8.2-4.7-15.2-7.6-20.7c-6.9-13-17.3-24.1-27.2-29.1
						c-15.8-8-22.1-25-20.4-55.1c1-17.5-16.2-29.7-16.3-29.9c-0.5-0.4-0.6-1-0.3-1.5c0.4-0.5,1-0.6,1.5-0.3
						c0.7,0.5,18.3,13.1,17.3,31.8c-1.6,29.1,4.3,45.5,19.2,53c10.5,5.3,21,16.5,28.2,30.1C114.7,287.6,117.3,293.5,119.1,300.4z"/>
				</g>
			</g>
		</g>
		<g>
			<g>
				<path fill="#18315B" d="M132.9,336.5c0.1,4,0.1,8.2,0.2,12.5h39c0.1-4.7,0.1-9.1,0.2-13.3c0.1-11.3,0.1-20.7,0.1-26.5
					c0-4.1,0-6.4,0-6.4l-39.8-0.4c0,0,0,3.4,0,9C132.7,317.6,132.8,326.5,132.9,336.5z"/>
				<path fill="#000B29" d="M132.7,311.4c0,6.2,0.1,15.2,0.2,25.1c12.3,0.9,25.7,0.9,39.4-0.8c0.1-11.3,0.1-20.7,0.1-26.5
					L132.7,311.4z"/>
			</g>
			<g>
				<path fill="#18315B" d="M83.8,327.5c0,6.3,0.1,13.6,0.2,21.4h39c0.1-4.6,0.2-9.1,0.2-13.4c0.1-9.3,0.2-17.6,0.2-23.6
					c0-5.9,0-9.5,0-9.5l-39.8,0.4c0,0,0,4.2,0,11.3C83.7,317.8,83.7,322.3,83.8,327.5z"/>
				<path fill="#000B29" d="M83.7,314c0,3.7,0,8.3,0.1,13.5c7.9,2.3,22.1,6,39.5,8c0.1-9.3,0.2-17.6,0.2-23.6L83.7,314z"/>
			</g>
			<g>
				<path fill="#18315B" d="M149.1,93.4c0,0,6.3-6,6.3-12c0-6-4.1-4.2-6.3-9.7s-8.6-8.9-12.2-8.3c-3.5,0.7-11-13.1-21.2-10.7
					c-10.2,2.4-9.3,15.4-13.6,17.3c-4.4,1.9-3.2,9.6-0.8,11.4c2.3,1.8,3.3,8.8,4.6,8.7C107.1,89.9,149.1,93.4,149.1,93.4z"/>
				<g>
					<path fill="#F97853" d="M106.9,93.2c0,0-3.9-5.2-6.9-0.9c-2.9,4.3,1.2,17.2,8.4,14L106.9,93.2z"/>
					<g>
						<path fill="#EA5143" d="M106.9,102.4c-0.3,0-0.5-0.2-0.6-0.4c-1.1-4-5.2-5.6-5.3-5.6c-0.3-0.1-0.5-0.5-0.4-0.8
							c0.1-0.3,0.5-0.5,0.8-0.4c0.2,0.1,4.7,1.8,6,6.4c0.1,0.3-0.1,0.7-0.4,0.7C107,102.4,106.9,102.4,106.9,102.4z"/>
					</g>
					<g>
						<path fill="#EA5143" d="M102.7,100.4c-0.1,0-0.2,0-0.3-0.1c-0.3-0.2-0.4-0.6-0.2-0.8c0,0,0.8-1.2,2.3-1.8
							c0.3-0.1,0.7,0,0.8,0.3c0.1,0.3,0,0.7-0.3,0.8c-1.2,0.5-1.7,1.4-1.8,1.4C103.1,100.3,102.9,100.4,102.7,100.4z"/>
					</g>
				</g>
				<g>
					<path fill="#F97853" d="M147.6,93.2c0,0,3.9-5.2,6.9-0.9c2.9,4.3-1.2,17.2-8.4,14L147.6,93.2z"/>
					<g>
						<path fill="#EA5143" d="M147.6,102.4c0.3,0,0.5-0.2,0.6-0.4c1.1-4,5.2-5.6,5.3-5.6c0.3-0.1,0.5-0.5,0.4-0.8
							c-0.1-0.3-0.5-0.5-0.8-0.4c-0.2,0.1-4.7,1.8-6,6.4c-0.1,0.3,0.1,0.7,0.4,0.7C147.5,102.4,147.6,102.4,147.6,102.4z"/>
					</g>
					<g>
						<g>
							<path fill="#EA5143" d="M151.8,100.4c0.1,0,0.2,0,0.3-0.1c0.3-0.2,0.4-0.6,0.2-0.8c0,0-0.8-1.2-2.3-1.8
								c-0.3-0.1-0.7,0-0.8,0.3c-0.1,0.3,0,0.7,0.3,0.8c1.2,0.5,1.7,1.4,1.8,1.4C151.4,100.3,151.6,100.4,151.8,100.4z"/>
						</g>
					</g>
				</g>
				<path fill="#FFA681" d="M136.9,117.2V130c0,0-3.8,6.5-9,6.9c-5.1,0.4-9.7-5.6-9.7-5.6v-13.2L136.9,117.2z"/>
				<path fill="#F97853" d="M136.9,117.2v5.7c-3.5,3.8-9.6,4.8-18.7,3.4v-8.2L136.9,117.2z"/>
				<path fill="#FFA681" d="M150.4,84.5c-0.2,5-0.7,11.1-1.7,16.1c-0.2,1.2-0.5,2.4-0.8,3.4c-2.7,9.4-9.4,25.5-28.2,18.8
					c-8.3-3-12.2-12.2-13.9-21.6c-1.2-6.4-1.3-12.8-1.3-17.4c0.1-4.7,2.7-9,6.8-11.3c11.1-6.3,22.8-3.9,30.5-1
					C147.3,73.5,150.7,78.8,150.4,84.5z"/>
				<path fill="#18315B" d="M105.8,101.2c0,0,1.8,10.9,3.6,14.8c1.7,4,6.4,4.7,8.2,8c2.5,4.8,6.4,8.5,12.7,6.2c5.3-1.9,5-4.6,8-6.7
					c5.1-3.6,7.6-7.5,7.8-10.7c0.2-3.2,2.7-12.3,2.7-12.3l-2.7-0.2c0,0-1.5,3.2-3.8,6.7c-2.3-5-13.3-1.4-13.3-1.4l-2.1,0.7l-2.2-0.7
					c0,0-11.1-3.5-13.3,1.8c-1.3-2.1-2.4-4.4-2.9-6.8L105.8,101.2z M126.8,108.1c12.6-2.2,10.4,5.2,10.3,5.5v0c0,0,0,0,0,0
					c-0.9,0.8-1.7,1.5-2.6,2c-4.9,2.6-5.4,2.2-7.3,2.3c-2,0.1-4.7-0.5-7.4-2c-0.9-0.5-2.1-1.4-3.5-2.7
					C116.2,113.2,114.3,106.4,126.8,108.1z"/>
				<ellipse fill="#18315B" cx="117.7" cy="94.9" rx="1.6" ry="2.5"/>
				<ellipse fill="#18315B" cx="136.4" cy="94.9" rx="1.6" ry="2.5"/>
				<path fill="#18315B" d="M142.5,86.8c0,0-6.5-2.6-11.5-0.4l0.5,2.8c0,0,7.3-0.6,11,0.9C142.9,89,143,87.9,142.5,86.8z"/>
				<path fill="#18315B" d="M111.7,86.8c0,0,6.5-2.6,11.6-0.4l-0.5,2.8c0,0-7.4-0.6-11.1,0.9C111.3,89,111.3,87.9,111.7,86.8z"/>
				<g>
					<path fill="#F97853" d="M127.5,105.2c1,0,2-0.4,2.2-0.5c0.3-0.1,0.5-0.5,0.3-0.8c-0.1-0.3-0.5-0.5-0.8-0.3
						c-0.5,0.2-1.9,0.6-2.4,0.2c-0.1-0.1-0.3-0.2-0.3-0.6c-0.2-2.1,0.4-9.2,0.4-9.3c0-0.3-0.2-0.6-0.6-0.7c-0.3,0-0.6,0.2-0.7,0.6
						c0,0.3-0.6,7.3-0.4,9.5c0.1,0.8,0.5,1.3,0.9,1.5C126.5,105.1,127,105.2,127.5,105.2z"/>
				</g>
				<path fill="#FFFFFF" d="M119.7,109.3c0.5,2.3,2,6.6,7.1,6.6c5.2,0,6.6-3.9,7.1-6.6H119.7z"/>
				<path fill="#18315B" d="M150.4,84.5c-0.2,5-0.7,11.1-1.7,16.1l-2.7-0.2c0,0,0.7-4.2,1-6.9c0.3-2.7,0.8-7.8-1.5-8.5
					c-2.3-0.6-1-6.4-4.2-9c-3.2-2.5-10.4-4.7-15.2-1.8c-4.8,2.9-10.2,1.3-12.4,1.8c-2.2,0.5-5.2,3.5-4.4,6.4
					c0.8,2.8-1.6,4.5-2.2,7.5c-0.6,2.9,1.3,10.8,1.3,10.8l-2.6,0.5c-1.2-6.4-1.3-12.8-1.3-17.4c0.1-4.7,2.7-9,6.8-11.3
					c11.1-6.3,22.8-3.9,30.5-1C147.3,73.5,150.7,78.8,150.4,84.5z"/>
			</g>
			<g>
				<g>
					<path fill="#006BDE" d="M180.7,321.9c-12.3,3.1-24.5,5.1-36.8,6c-0.6,0-1.1,0.1-1.7,0.1c-1.7,0.1-3.4,0.2-5.1,0.3
						c-8.4,0.4-16.7,0.2-25.1-0.4c-1.7-0.1-3.4-0.3-5.1-0.5c-0.5-0.1-1.1-0.1-1.6-0.2c-10-1.1-20-2.9-29.9-5.4
						c-0.1-9.2,0-38.2,0.6-69.7c0.1-3.8,0.1-7.6,0.2-11.4c0.9-41.5,2.6-83.6,5.7-87.8c2.9-4,11.8-9.2,20.3-13.8
						c0.5-0.3,1-0.6,1.5-0.8c1.9-1,3.8-2,5.5-3c3.8-2,7-3.9,9-5.3v1.2c0,0,4.6,6,9.7,5.6c4.7-0.4,8.3-5.8,8.9-6.8
						c2.2,1.6,6.2,3.7,10.8,6.1c1.3,0.7,2.6,1.4,4,2.1c0.5,0.3,1,0.5,1.5,0.8c9.4,5,19.5,10.6,22.5,14.7c0.2,0.3,0.4,0.8,0.6,1.5
						c1.8,6.1,2.9,26.2,3.6,50.6c0,0.1,0,0.2,0,0.3c0,1,0.1,2,0.1,3c0,0.1,0,0.3,0,0.4c0.2,8.6,0.4,17.6,0.5,26.6c0,0.7,0,1.4,0,2.2
						c0,0.4,0,0.7,0,1.1c0,1.8,0,3.6,0.1,5.3c0,1.3,0,2.6,0,3.9C181,281.4,180.8,312.3,180.7,321.9z"/>
				</g>
				<g>
					<path fill="#264CBE" d="M180,209.2c-3-4.8-6.1-9.7-9.1-14.1c0,0,0,0,0,0c-1.3-1.8-2.5-3.5-3.6-5.1c0,0,0-0.1-0.1-0.1
						c-0.4-0.5-0.7-1-1.1-1.4c-0.1-0.1-0.1-0.2-0.1-0.3l0,0c-0.1-0.3,0-0.7,0.3-0.9c0.4-0.3,0.9-0.2,1.1,0.2
						c3.6,4.7,8.2,11.6,12.5,18.5c0,0.1,0,0.2,0,0.3C179.9,207.2,179.9,208.2,180,209.2z"/>
				</g>
				<path fill="#006BDE" d="M175.8,153.2c0,0,18.5,33.8,29.8,51c0,0,6.4-5.9,14.8-13.8c9-8.5,21.4-22.8,21.4-22.8l6.8,8.1
					c0,0-27.8,49.9-40.3,56.2c-12.5,6.3-35.5-38.1-35.5-38.1L175.8,153.2z"/>
				<g>
					<path fill="#264CBE" d="M97.4,286.6C97.4,286.6,97.4,286.6,97.4,286.6c-0.5,0-0.9-0.4-0.8-0.9c1-27.3-13.2-36.2-13.4-36.3
						c-0.4-0.2-0.5-0.8-0.3-1.1c0.2-0.4,0.7-0.5,1.1-0.3c0.2,0.1,3.9,2.4,7.5,8.2c3.3,5.3,7.2,14.8,6.6,29.6
						C98.2,286.2,97.8,286.6,97.4,286.6z"/>
				</g>
				<g>
					<path fill="#264CBE" d="M158,260.8c-0.4,0-0.8-0.3-0.8-0.8c-0.4-5.8,1.5-10,3.9-15.3c0.7-1.6,1.4-3.2,2.2-5
						c4.7-11.3,2.3-24.2,2.3-24.3c-0.1-0.5,0.2-0.9,0.7-1c0.5-0.1,0.9,0.2,1,0.7c0.1,0.5,2.5,13.5-2.4,25.3c-0.8,1.8-1.5,3.4-2.2,5
						c-2.4,5.3-4.1,9.1-3.7,14.5C158.8,260.4,158.5,260.8,158,260.8C158,260.8,158,260.8,158,260.8z"/>
				</g>
				<g>
					<path fill="#FFFFFF" d="M109.3,135.4c0.4,2.7,0.9,6.2,1.5,10.1c0.2,1.2,0.3,2.4,0.5,3.7c0.6,4.1,1.2,8.6,1.7,13.1
						c0.1,1.2,0.3,2.4,0.4,3.6c0.5,4.5,0.8,8.9,0.9,13c0,1.2,0.1,2.5,0,3.6c0,3.1-0.2,6-0.6,8.5c-0.2,1.6-0.5,3.1-0.7,4.6
						c-0.2,1.2-0.3,2.5-0.4,3.7c-0.5,4.6-0.7,9-0.8,13.1c0,1.2,0,2.5,0,3.6c0,4.6,0.3,8.9,0.7,13.1c0.1,1.2,0.2,2.4,0.4,3.6
						c0.5,4.5,1.1,8.8,1.7,13c0.2,1.2,0.3,2.4,0.5,3.6c0.2,1.9,0.5,3.9,0.7,5.8c0.2,2.1,0.4,4.5,0.4,7.1c0,1.2,0,2.4,0.1,3.7
						c0,4-0.1,8.4-0.3,13.1c0,1.2-0.1,2.4-0.2,3.7c-0.2,4.3-0.5,8.7-0.8,13.1c-0.1,1.2-0.2,2.5-0.3,3.7c-0.3,4.5-0.7,9-1.1,13.1
						c-0.1,1.3-0.2,2.5-0.3,3.7c-0.4,4.5-0.9,8.6-1.2,11.8c8.4,0.6,16.7,0.8,25.1,0.4c0.2-3.4,0.7-8.9,1.3-15.4
						c0.1-1.2,0.2-2.4,0.3-3.7c0.3-4.1,0.6-8.5,0.8-13c0.1-1.2,0.1-2.4,0.1-3.7c0.1-4.4,0.1-8.9-0.1-13c-0.1-1.3-0.1-2.5-0.2-3.7
						c-0.1-1.2-0.2-2.4-0.4-3.6c-0.4-3.3-0.6-6.4-0.5-9.5c0-1.2,0-2.4,0.1-3.7c0.2-4.2,0.7-8.5,1.2-13c0.1-1.2,0.3-2.4,0.4-3.7
						c0.5-4,1-8.3,1.4-12.9c0.1-1.2,0.2-2.4,0.3-3.7c0.3-4,0.5-8.3,0.5-13c0-1.2,0-2.4,0-3.7c0-4-0.2-8.4-0.5-13
						c0-0.4-0.1-0.8-0.1-1.3c-0.1-0.8-0.1-1.6-0.2-2.5c-0.2-4.3-0.2-8.6,0.1-13c0.1-1.2,0.1-2.5,0.2-3.7c0.3-4.4,0.8-8.7,1.4-12.8
						c0.2-1.2,0.3-2.5,0.5-3.7c0.7-4.5,1.4-8.8,2.1-12.6c0.2-1.3,0.4-2.5,0.6-3.6c0.5-2.6,0.9-4.9,1.2-6.8
						c-4.6-2.4-8.6-4.6-10.8-6.1c-0.6,1-4.2,6.4-8.9,6.8c-5.1,0.4-9.7-5.6-9.7-5.6v-1.2C116.3,131.5,113,133.4,109.3,135.4z"/>
					<g>
						<g>
							<path fill="#E3E3E3" d="M110.7,145.6c0.2,1.2,0.3,2.4,0.5,3.7c4.6,0.1,10-0.6,16.6-2.1c7-1.6,13.2-1.3,18-0.4
								c0.2-1.3,0.4-2.5,0.6-3.6c-5.3-1-11.9-1.3-19.5,0.5C120.6,145,115.2,145.7,110.7,145.6z"/>
						</g>
						<g>
							<path fill="#E3E3E3" d="M113,162.3c0.1,1.2,0.3,2.4,0.4,3.6c4.1-0.1,8.9-0.8,14.5-2.1c5.8-1.3,11-1.4,15.4-0.8
								c0.2-1.2,0.3-2.5,0.5-3.7c-4.8-0.6-10.4-0.5-16.8,0.9C121.6,161.5,116.9,162.2,113,162.3z"/>
						</g>
						<g>
							<path fill="#E3E3E3" d="M114.3,178.9c0,1.2,0.1,2.5,0,3.6c3.9-0.2,8.4-0.9,13.5-2c5.1-1.2,9.7-1.3,13.8-1
								c0.1-1.2,0.1-2.5,0.2-3.7c-4.3-0.4-9.3-0.2-14.8,1.1C122.2,178.1,118,178.7,114.3,178.9z"/>
						</g>
						<g>
							<path fill="#E3E3E3" d="M112.7,199.3c4.3,0,9.3-0.7,15.2-2.1c5.1-1.2,9.9-1.3,13.9-1c0-0.4-0.1-0.8-0.1-1.3
								c-0.1-0.8-0.1-1.6-0.2-2.5c-4.3-0.3-9.2-0.1-14.5,1.1c-5.3,1.2-10,1.9-13.9,2C112.9,196.9,112.8,198.1,112.7,199.3z"/>
						</g>
						<g>
							<path fill="#E3E3E3" d="M111.9,216c4.5,0,9.7-0.7,16-2.1c5.4-1.2,10.3-1.4,14.5-0.9c0-1.2,0-2.4,0-3.7
								c-4.4-0.4-9.6-0.2-15.3,1.1c-5.9,1.4-10.9,2-15.1,2C111.8,213.6,111.8,214.8,111.9,216z"/>
						</g>
						<g>
							<path fill="#E3E3E3" d="M112.5,229c0.1,1.2,0.2,2.4,0.4,3.6c4.2-0.1,9.2-0.8,14.9-2.1c5.1-1.2,9.7-1.3,13.7-1
								c0.1-1.2,0.2-2.4,0.3-3.7c-4.3-0.4-9.3-0.2-14.8,1.1C121.4,228.3,116.6,229,112.5,229z"/>
						</g>
						<g>
							<path fill="#E3E3E3" d="M114.6,245.7c0.2,1.2,0.3,2.4,0.5,3.6c3.7-0.2,7.9-0.9,12.7-2c4.3-1,8.3-1.3,11.9-1.1
								c0.1-1.2,0.3-2.4,0.4-3.7c-3.9-0.2-8.4,0.1-13.1,1.2C122.3,244.8,118.2,245.4,114.6,245.7z"/>
						</g>
						<g>
							<path fill="#E3E3E3" d="M116.2,262.2c0,1.2,0,2.4,0.1,3.7c3.4-0.3,7.3-0.9,11.6-1.9c3.8-0.9,7.4-1.2,10.6-1.2
								c0-1.2,0-2.4,0.1-3.7c-3.5,0-7.4,0.3-11.5,1.3C123,261.3,119.4,261.9,116.2,262.2z"/>
						</g>
						<g>
							<path fill="#E3E3E3" d="M115.8,282.6c3.5-0.3,7.5-0.9,12-2c4.2-1,8.2-1.3,11.7-1.1c-0.1-1.3-0.1-2.5-0.2-3.7
								c-3.7-0.1-7.9,0.2-12.3,1.2c-4.1,0.9-7.8,1.6-11,1.8C115.9,280.2,115.9,281.4,115.8,282.6z"/>
						</g>
						<g>
							<path fill="#E3E3E3" d="M114.7,299.4c3.8-0.2,8.1-0.9,13.1-2c4.2-1,8.1-1.3,11.6-1.1c0.1-1.2,0.1-2.4,0.1-3.7
								c-3.8-0.1-8,0.2-12.6,1.2c-4.5,1-8.5,1.7-12,1.9C114.9,296.9,114.8,298.2,114.7,299.4z"/>
						</g>
						<g>
							<path fill="#E3E3E3" d="M113.3,316.1c4.2-0.1,8.9-0.8,14.5-2.1c3.8-0.9,7.3-1.2,10.6-1.2c0.1-1.2,0.2-2.4,0.3-3.7
								c-3.6-0.1-7.5,0.3-11.7,1.3c-5.1,1.2-9.5,1.8-13.4,2C113.5,313.7,113.4,314.9,113.3,316.1z"/>
						</g>
					</g>
				</g>
				<g>
					<g>
						<path fill="#264CBE" d="M142.2,328c0.6,0,1.1-0.1,1.7-0.1c3.3-19.3,1.4-47.7,0.7-56.4c-0.7-9,0.7-20.6,3.9-31.8
							c2.5-8.7,1-28.9-0.3-45.1c-0.3-4.5-0.7-8.8-0.9-12.4c-0.6-11.4,3.5-32.5,5.8-43.1c-0.5-0.3-1-0.5-1.5-0.8
							c-2.3,10.5-6.6,32.1-5.9,44c0.2,3.5,0.5,7.9,0.9,12.4c1.2,16.1,2.7,36.1,0.3,44.5c-3.2,11.4-4.7,23.2-3.9,32.4
							C143.7,280.4,145.6,308.9,142.2,328z"/>
					</g>
					<g>
						<path fill="#264CBE" d="M108.5,249.4c1.9,11.9,1.3,19.6,0.6,28.5c-0.2,2.9-0.5,5.9-0.6,9.2c-0.5,10.3-2.3,31.2-3,40.2
							c0.5,0.1,1.1,0.1,1.6,0.2c0.8-9,2.5-29.9,3.1-40.3c0.2-3.3,0.4-6.2,0.6-9.1c0.7-9,1.3-16.8-0.6-28.9c-0.4-2.6-0.9-5.2-1.3-7.8
							c-2.2-13-4.5-26.3-3.4-32.8c0.3-1.6,0.6-3.3,1-5.2c1.5-7.7,3.3-17.4,2.7-25.7c-0.6-8.3-4-30.7-5.3-39.2
							c-0.5,0.3-1,0.5-1.5,0.8c1.4,8.8,4.6,30.4,5.2,38.5c0.6,8.2-1.2,17.7-2.7,25.3c-0.4,1.9-0.7,3.7-1,5.3
							c-1.1,6.7,1.1,19.6,3.4,33.3C107.6,244.2,108,246.8,108.5,249.4z"/>
					</g>
				</g>
			</g>
			<g>
				<path fill="#FFA681" d="M76.5,166.8c0,0-16.6,55.1-20.7,74.8s-4.4,60.5-4.4,60.5s-7.2,15-7.4,21.7c-0.2,7.1,3.6,12.8,3.1,17.4
					c-0.4,4.7,5.3,2.1,3.7-7.3c-1.6-9.4,2.9-18,4.9-17.7c2,0.3-1.6,10.3,0.1,13.9c1.7,3.6,4-3.4,6.3-7.7c2.3-4.4,2.2-14.1,1.1-21
					c-1.1-6.9,11.5-48.7,11.5-60.9l15.8-53.4C90.5,187.2,85.3,164.9,76.5,166.8z"/>
				<path fill="#006BDE" d="M92.5,185.8c-0.6,3.5-2.5,9.6-5.1,17.3v0c-0.2,0.6-0.4,1.3-0.7,2c0,0,0,0.1,0,0.1c-0.6,1.9-1.3,3.9-2,6
					c0,0,0,0,0,0c-2.8,8.5-5.9,18.3-8.5,28.3c-0.9,3.4-1.7,6.9-2.5,10.3c-1,4.4-1.8,8.8-2.3,13.1c-2.1,15.5-6.2,35.1-6.2,35.1
					c-5.9,2.4-15.2-0.8-15.2-0.8S49.8,269,51.1,258c1.6-13.6,3.7-23.2,6.3-34.3c7.1-30.5,19.6-60.4,23.1-68.3
					c0.3-0.6,0.5-1.1,0.6-1.5h3C89.9,157.6,94.1,176.3,92.5,185.8z"/>
				<path fill="#009CF8" d="M49.6,291.5L50,298c0,0,8.8,2.9,15.5,0.8l1.8-5.8C60.9,293.4,55,293.3,49.6,291.5z"/>
				<g>
					<path fill="#264CBE" d="M87.5,203.1L87.5,203.1c0,0.1,0,0.2,0,0.3c-0.2,0.5-0.4,1.1-0.6,1.7c0,0,0,0.1,0,0.1
						c-0.7,1.8-1.3,3.8-2,6c0,0,0,0,0,0c-3.5,11-7,24.8-8.6,33.6c0-1.8,0-3.6,0.1-5.3c-0.9,3.4-1.7,6.9-2.5,10.3
						c0.3-3.2,1.3-8.1,2.5-13.6c2.6-11.1,6.5-24.9,9.6-33.4c0.2-0.4,0.6-0.6,1-0.5C87.3,202.5,87.5,202.8,87.5,203.1z"/>
				</g>
			</g>
		</g>
		<g>
			<g>
				<g>
					<g>
						<path fill="#18315B" d="M383.9,349H423c-0.1-2.7-0.3-5.3-0.4-7.8c-0.7-13.4-1.3-22.5-1.3-22.5l-31.8,1.4l-2.6,0.1l-4.7,0.2
							c0,0,0.5,8.1,1.2,20.1C383.5,343.2,383.7,346,383.9,349z"/>
					</g>
				</g>
				<path fill="#000B29" d="M386.9,320.2l-4.7,0.2c0,0,0.5,8.1,1.2,20.1c12.2,1,25.6,1.4,39.3,0.7c-0.7-13.4-1.3-22.5-1.3-22.5
					l-31.8,1.4L386.9,320.2z"/>
				<g>
					<path fill="#000B29" d="M391.2,349c-0.7-12.4-1.3-23-1.6-28.8l-2.6,0.1c0.3,5.8,0.9,16.4,1.6,28.7H391.2z"/>
				</g>
			</g>
			<g>
				<g>
					<g>
						<path fill="#18315B" d="M372.4,349c0.2-3.4,0.4-6.5,0.6-9.5c0.7-11.4,1.1-19,1.1-19l-5.1-0.2l-2.6-0.1l-31.4-1.4
							c0,0-0.3,5.4-0.8,14.1c-0.3,4.6-0.5,10.1-0.8,16.2H372.4z"/>
					</g>
				</g>
				<path fill="#000B29" d="M334.1,332.8c8.5,2,22.3,4.8,38.9,6.7c0.7-11.4,1.1-19,1.1-19l-5.1-0.2l-2.6-0.1l-31.4-1.4
					C334.9,318.7,334.6,324.1,334.1,332.8z"/>
				<g>
					<path fill="#000B29" d="M367.4,349c0.7-12.3,1.3-22.9,1.6-28.7l-2.6-0.1c-0.3,5.9-0.9,16.5-1.6,28.8H367.4z"/>
				</g>
			</g>
			<g>
				<g>
					<g>
						<path fill="#006BDE" d="M427.1,324.8c-8,2.2-15.9,3.8-23.9,5c-2.8,0.4-5.5,0.7-8.3,1c-3.7,0.3-7.5,0.6-11.2,0.7
							c-6.2,0.2-12.4,0.1-18.5-0.4c-11.9-0.9-23.9-3-35.8-6.2c-0.1-11.1,0.1-51,0.9-89.4c0-1.7,0.1-3.5,0.1-5.2c0-0.4,0-0.7,0-1.1
							c0-0.4,0-0.8,0-1.2c0-1.2,0.1-2.4,0.1-3.6c0.1-2.5,0.1-4.9,0.2-7.3c0-1.4,0.1-2.9,0.1-4.3c0-0.3,0-0.6,0-0.9
							c0-0.9,0.1-1.9,0.1-2.8c0,0,0,0,0,0c0-0.3,0-0.6,0-0.9c0-0.9,0.1-1.7,0.1-2.6c0-0.7,0.1-1.4,0.1-2.1
							c0.9-25.9,2.3-46.4,4.2-49.3c3.3-4.9,14.5-11.4,23.5-16.7c3.2-1.9,7-3.8,9.2-5.3c3.2,2.6,5.5,4.9,10.3,4.7
							c5.3-0.2,6.6-3.4,8.6-6.1c1.2,0.8,4.4,3.4,6,4.3c1.4,0.8,2.9,1.7,4.5,2.6c2.4,1.4,5,2.9,7.6,4.4c3.8,2.2,7.5,4.5,10.7,6.7
							c3.1,2.2,5.6,4.3,6.8,6.1c1.8,2.6,2.9,19.7,3.6,42.1c0,0.8,0.1,1.6,0.1,2.4c0,0.1,0,0.2,0,0.3c0,0.8,0.1,1.7,0.1,2.5
							c0.1,2.5,0.1,5.1,0.2,7.7c0,0.6,0,1.1,0,1.7c0,0.4,0,0.8,0,1.3c0,1.1,0,2.2,0.1,3.3c0,0.2,0,0.4,0,0.7
							c0.1,2.9,0.1,5.8,0.2,8.7c0,0.9,0,1.7,0,2.6C427.4,268.6,427.2,312.9,427.1,324.8z"/>
					</g>
				</g>
				<path fill="#264CBE" d="M426.7,228.1l-12.6,12.8L402.3,229l-11.8,11.9L378.7,229l-11.8,11.9l-11.9-12l-11.9,12l-12.8-13
					c0-1.2,0.1-2.4,0.1-3.6c0.1-2.5,0.1-4.9,0.2-7.3l12.5-12.7l11.9,12l11.9-12l11.8,11.9l11.8-11.9l11.8,11.9l11.8-11.9l12.4,12.6
					c0.1,2.9,0.1,5.8,0.2,8.7C426.7,226.4,426.7,227.3,426.7,228.1z"/>
				<g>
					<path fill="#264CBE" d="M404.9,294C404.9,294,404.9,294,404.9,294c-16.9-0.1-31.3-7.8-40.5-14.2c-9.9-7-15.9-14-15.9-14.1
						c-0.3-0.3-0.2-0.9,0.1-1.1c0.3-0.3,0.9-0.2,1.1,0.1c0.1,0.1,5.9,7,15.6,13.8c8.9,6.3,23,13.8,39.5,13.9c0.4,0,0.8,0.4,0.8,0.8
						C405.7,293.7,405.4,294,404.9,294z"/>
				</g>
				<g>
					<path fill="#264CBE" d="M394.4,284c-14.4-2.8-27.1-13.8-27.7-14.3c-0.3-0.3-0.4-0.8-0.1-1.1c0.3-0.3,0.8-0.4,1.1-0.1
						c0.1,0.1,15.1,13.1,30.4,14.5c0.5,0,0.8,0.4,0.7,0.9c0,0.4-0.4,0.8-0.9,0.7C396.8,284.4,395.6,284.3,394.4,284z"/>
				</g>
				<g>
					<path fill="#264CBE" d="M365.5,159.2c-0.4,0-0.7-0.3-0.8-0.7c-0.1-0.4,0.2-0.9,0.6-0.9c20.6-3.9,26.8-17.1,26.9-17.3
						c0.2-0.4,0.7-0.6,1.1-0.4c0.4,0.2,0.6,0.7,0.4,1.1c-0.3,0.6-6.6,14.1-28.1,18.2C365.6,159.2,365.6,159.2,365.5,159.2z"/>
				</g>
				<g>
					<path fill="#264CBE" d="M340.4,194.8L340.4,194.8c0,0.1-0.1,0.2-0.1,0.3c-0.3,0.5-0.6,1-1,1.5c0,0,0,0.1,0,0.1
						c-1,1.7-2.1,3.5-3.2,5.4c0,0,0,0,0,0c-1.7,3-3.5,6.3-5.3,9.6c0-0.9,0.1-1.9,0.1-2.8c0,0,0,0,0,0c0-0.3,0-0.6,0-0.9
						c2.8-5.2,5.6-10.1,8-13.9c0.2-0.4,0.7-0.5,1.1-0.3C340.3,194.1,340.5,194.5,340.4,194.8z"/>
				</g>
			</g>
			<g>
				<path fill="#FFA681" d="M444.2,164.7c0,0,26.4-8.5,34.2-25.7c2.3-5-16.3-55.7-16.3-55.7l-9,0.4c0,0,2.6,17.6,4.1,27.6
					c1.3,8.2,3.3,18,4,21.2c0.2,0.7,0.2,1.1,0.2,1.1c-0.4,0.1-0.9,0.2-1.3,0.2c-12.3,2.5-28,10.5-28,10.5L444.2,164.7z"/>
				<g>
					<g>
						<path fill="#F97853" d="M468.1,138.4c0.4,0.3,0.9,0.2,1.2-0.2c0.3-0.4,0.2-0.9-0.2-1.2c-1.9-1.4-4.8-3-7.9-4.6
							c0.2,0.7,0.2,1.1,0.2,1.1c-0.4,0.1-0.9,0.2-1.3,0.2C463.2,135.4,466.2,137.1,468.1,138.4z"/>
					</g>
				</g>
				<path fill="#006BDE" d="M403.9,141.5c0,0-8,18.7,12.3,29.1c14,7.2,46-11.6,46-11.6l-11.4-24.2
					C450.9,134.8,421.6,146.9,403.9,141.5z"/>
				<path fill="#FFA681" d="M457.5,54.7c-0.8,0.6-0.6,4-0.3,7.2c-0.1,0-0.2,0-0.3,0.1c-0.9-4.3-2.8-11.6-4.4-10.2
					c-1.1,0.9,0.4,7.2,1.3,11c-0.2,0.1-0.4,0.1-0.6,0.2c-1.2-4.5-3.8-13.1-5.6-11.5c-1.2,1.1,1.1,8.7,2.3,12.6
					c-0.2,0.1-0.3,0.1-0.5,0.2c-1.2-3.8-3.7-10.9-5.4-9.2c-1.6,1.5,2.9,12.3,2.9,12.3l0,0l1.2,4.2c0,0-1.4,0.6-3.6-1.9
					c-2.2-2.5-4.8-2.9-3,0.7c2,4,5.1,6.9,6.4,9.8c1.3,2.8,5.5,3.8,5.5,3.8l8.4-0.4c0,0,1.6-14.2-1.5-21l0,0
					C459.8,58.6,458.9,53.8,457.5,54.7z"/>
			</g>
			<g>
				<path fill="#18315B" d="M353.3,87.5c0,14.3,8.8,24.2,23.2,24.2c14.3,0,24.3-10.6,24.3-24.9c0-3.9-0.6-7.6-1.9-10.9
					c-0.1-0.2-0.1-0.4-0.2-0.6c-0.2-0.4-0.3-0.7-0.5-1.1c-0.2-0.6-0.5-1.1-0.8-1.6c-3.7-6.7-10.4-11-19.4-11
					C360.7,61.6,353.3,73.2,353.3,87.5z"/>
				<g>
					<path fill="#F97853" d="M356.5,93.7c0,0-4-5.3-6.9-0.9c-3,4.4,1.2,17.3,8.5,14.2L356.5,93.7z"/>
					<g>
						<path fill="#EA5143" d="M356.4,102.9c-0.3,0-0.5-0.2-0.6-0.4c-1.1-4-5.3-5.6-5.3-5.6c-0.3-0.1-0.5-0.5-0.4-0.8
							c0.1-0.3,0.5-0.5,0.8-0.4c0.2,0.1,4.8,1.8,6.1,6.4c0.1,0.3-0.1,0.7-0.4,0.8C356.6,102.9,356.5,102.9,356.4,102.9z"/>
					</g>
					<g>
						<path fill="#EA5143" d="M352.3,100.9c-0.1,0-0.2,0-0.3-0.1c-0.3-0.2-0.4-0.6-0.2-0.8c0,0,0.8-1.2,2.3-1.9
							c0.3-0.1,0.7,0,0.8,0.3c0.1,0.3,0,0.7-0.3,0.8c-1.2,0.5-1.8,1.4-1.8,1.4C352.6,100.8,352.5,100.9,352.3,100.9z"/>
					</g>
				</g>
				<g>
					<path fill="#F97853" d="M397.6,93.7c0,0,4-5.3,6.9-0.9c3,4.4-1.2,17.3-8.5,14.2L397.6,93.7z"/>
					<g>
						<path fill="#EA5143" d="M397.6,102.9c0.3,0,0.5-0.2,0.6-0.4c1.1-4,5.3-5.6,5.3-5.6c0.3-0.1,0.5-0.5,0.4-0.8
							c-0.1-0.3-0.5-0.5-0.8-0.4c-0.2,0.1-4.8,1.8-6.1,6.4c-0.1,0.3,0.1,0.7,0.4,0.8C397.5,102.9,397.6,102.9,397.6,102.9z"/>
					</g>
					<g>
						<g>
							<g>
								<path fill="#EA5143" d="M401.8,100.9c0.1,0,0.2,0,0.3-0.1c0.3-0.2,0.4-0.6,0.2-0.8c0,0-0.8-1.2-2.3-1.9
									c-0.3-0.1-0.7,0-0.8,0.3c-0.1,0.3,0,0.7,0.3,0.8c1.2,0.5,1.8,1.4,1.8,1.4C401.4,100.8,401.6,100.9,401.8,100.9z"/>
							</g>
						</g>
					</g>
				</g>
				<path fill="#FFA681" d="M386.8,117.9v12.9c0,0-3.8,6.6-9.1,7c-5.2,0.5-9.8-5.6-9.8-5.6v-13.3L386.8,117.9z"/>
				<path fill="#F97853" d="M386.8,117.9v5.7c-3.5,3.9-9.7,4.8-18.9,3.5v-8.3L386.8,117.9z"/>
				<path fill="#FFA681" d="M400.4,84.8c-0.2,5-0.7,11.3-1.7,16.3c-0.2,1.2-0.5,2.4-0.8,3.5c-2.7,9.5-9.5,25.8-28.5,19
					c-8.4-3-12.3-12.3-14-21.8c-1.2-6.4-1.4-13-1.3-17.6c0.1-4.8,2.7-9.1,6.8-11.4c11.2-6.4,23.1-4,30.9-1
					C397.3,73.7,400.7,79,400.4,84.8z"/>
				<ellipse fill="#18315B" cx="367.3" cy="95.3" rx="1.6" ry="2.5"/>
				<ellipse fill="#18315B" cx="386" cy="95.3" rx="1.6" ry="2.5"/>
				<path fill="#18315B" d="M391.2,86.7c0,0-5-2-8.9-0.3l0.4,2.1c0,0,5.7-0.5,8.5,0.7C391.4,88.4,391.5,87.6,391.2,86.7z"/>
				<path fill="#18315B" d="M362,86.7c0,0,5-2,8.9-0.3l-0.4,2.1c0,0-5.7-0.5-8.5,0.7C361.7,88.4,361.7,87.6,362,86.7z"/>
				<g>
					<path fill="#F97853" d="M377.2,105.8c1,0,2.1-0.4,2.2-0.5c0.3-0.1,0.5-0.5,0.3-0.8c-0.1-0.3-0.5-0.5-0.8-0.3
						c-0.6,0.2-1.9,0.6-2.5,0.2c-0.1-0.1-0.3-0.2-0.3-0.6c-0.2-2.1,0.4-9.3,0.4-9.4c0-0.3-0.2-0.6-0.6-0.7c-0.3,0-0.6,0.2-0.7,0.6
						c0,0.3-0.6,7.3-0.4,9.6c0.1,0.8,0.5,1.3,0.9,1.5C376.3,105.7,376.8,105.8,377.2,105.8z"/>
				</g>
				<path fill="#FFFFFF" d="M369,108.9c1,3.5,3.9,7.1,7.9,7.1c4,0,6.9-3.6,7.9-7.1H369z"/>
				<g>
					<path fill="#F97853" d="M376.6,119.8c1.6,0,2.9-0.8,3-0.8c0.3-0.2,0.4-0.6,0.2-0.8c-0.2-0.3-0.6-0.4-0.8-0.2
						c0,0-1.1,0.7-2.4,0.7c-1.1,0-2.2-0.6-2.2-0.7c-0.3-0.2-0.7-0.1-0.8,0.2c-0.2,0.3-0.1,0.7,0.2,0.8
						C373.8,119,375.1,119.8,376.6,119.8z"/>
				</g>
				<path fill="#18315B" d="M399.8,93.8H397c0.3-2.8,0.7-7.7-1.5-8.4c-7.2-2.2,2.1-7.3-1.1-9.9c-3.3-2.6-11.4-1.5-17.1-1.6
					c-5.7-0.2-14.8-0.1-17.1,0.4c-2.2,0.5-1,4.2-0.2,7.1c0.8,2.9-2.7,6-3.3,9c-0.2,0.8-0.1,2.1,0,3.5h-2.3c-0.3-3.6-0.3-6.9-0.3-9.7
					c0.1-4.8,2.7-9.1,6.8-11.4c11.2-6.4,23.1-4,30.9-1c5.4,2.1,8.9,7.4,8.6,13.1C400.3,87.6,400.1,90.7,399.8,93.8z"/>
				<g>
					<g>
						<path fill="#FFFFFF" d="M367,102.5c-3.8,0-6.9-3.1-6.9-6.9c0-3.8,3.1-6.9,6.9-6.9c3.8,0,6.9,3.1,6.9,6.9
							C374,99.4,370.8,102.5,367,102.5z M367,89.8c-3.2,0-5.9,2.6-5.9,5.8c0,3.2,2.6,5.8,5.9,5.8c3.2,0,5.9-2.6,5.9-5.8
							C372.9,92.4,370.2,89.8,367,89.8z"/>
					</g>
					<g>
						<path fill="#FFFFFF" d="M386,102.5c-3.8,0-6.9-3.1-6.9-6.9c0-3.8,3.1-6.9,6.9-6.9c3.8,0,6.9,3.1,6.9,6.9
							C392.9,99.4,389.8,102.5,386,102.5z M386,89.8c-3.2,0-5.9,2.6-5.9,5.8c0,3.2,2.6,5.8,5.9,5.8s5.9-2.6,5.9-5.8
							C391.8,92.4,389.2,89.8,386,89.8z"/>
					</g>
					<g>
						<path fill="#FFFFFF" d="M361.2,93.4c-0.1,0-0.3-0.1-0.4-0.2l0,0c0,0-3.2-3.1-7.3-2.1c-0.3,0.1-0.6-0.1-0.6-0.4
							c-0.1-0.3,0.1-0.6,0.4-0.6c4.7-1.1,8.2,2.3,8.3,2.4c0.2,0.2,0.2,0.6,0,0.8C361.5,93.3,361.4,93.4,361.2,93.4z"/>
					</g>
					<g>
						<path fill="#FFFFFF" d="M391.9,93.4c-0.2,0-0.3-0.1-0.5-0.2c-0.2-0.2-0.1-0.6,0.2-0.7c0.2-0.1,5.1-3.3,9.3-2.6
							c0.3,0,0.5,0.3,0.4,0.6c0,0.3-0.3,0.5-0.6,0.4c-3.8-0.6-8.5,2.4-8.5,2.4C392.1,93.4,392,93.4,391.9,93.4z"/>
					</g>
					<g>
						<path fill="#FFFFFF" d="M379.4,94.1c0,0-1.3-1.8-3-1.8c-1.7,0-2.8,1.7-2.8,1.7l-0.9-0.6c0.1-0.1,1.5-2.2,3.8-2.2
							c2.2,0,3.8,2.1,3.9,2.2L379.4,94.1z"/>
					</g>
				</g>
			</g>
			<g>
				<path fill="#FFA681" d="M338.1,193.8c0,0-7.3,14.1-15.9,25.3c-2.5,3.3-5.2,6.3-7.8,8.7c-4.2,3.8-8.4,5.8-11.7,4.1
					c-12.5-6.3-40.3-56.2-40.3-56.2l6.8-8.1c0,0,12.4,14.3,21.4,22.8c8.3,7.9,14.8,13.8,14.8,13.8c1.2-1.8,2.4-3.7,3.7-5.7
					c1.4-2.2,2.8-4.4,4.2-6.8c10.4-17.1,22-37.6,22-37.6L338.1,193.8z"/>
				<path fill="#F97853" d="M322.2,219.1c-2.5,3.3-5.2,6.3-7.8,8.7l-5.3-29.4c1.4-2.2,2.8-4.4,4.2-6.8L322.2,219.1z"/>
				<path fill="#006BDE" d="M335.3,154.1l-25,39.2l8.4,34.5l20.7-33.6C339.3,194.2,341.9,171.2,335.3,154.1z"/>
			</g>
		</g>
		<g>
			<g>
				<path fill="#006BDE" d="M303.8,349c-1.8-9.9-3.5-21-5.1-31.8c-0.4-2.4-0.7-4.8-1-7.1c-1.3-9-2.4-17.4-3.3-24.4
					c-0.4-2.7-0.7-5.1-1-7.3c-0.9-7-1.4-11.4-1.4-11.4l-39.5,1.5l-39.6-1.5c0,0-1,8.6-2.7,21.1c-0.3,2.3-0.6,4.7-1,7.2
					c-0.9,6.6-1.9,13.8-3,21.2c0,0.1,0,0.2,0,0.3c-0.3,2.3-0.7,4.6-1,7c0,0,0,0.1,0,0.1v0c-0.8,5.6-1.7,11.2-2.6,16.6
					c-0.4,2.2-0.7,4.4-1.1,6.6c-0.1,0.7-0.2,1.3-0.4,2H303.8z"/>
				<g>
					<ellipse fill="#264CBE" cx="218.3" cy="278.7" rx="3.7" ry="3.7"/>
					<ellipse fill="#264CBE" cx="227.5" cy="293.1" rx="3.7" ry="3.7"/>
					<ellipse fill="#264CBE" cx="245.7" cy="285.7" rx="3.7" ry="3.7"/>
					<ellipse fill="#264CBE" cx="217" cy="308.4" rx="3.7" ry="3.7"/>
					<ellipse fill="#264CBE" cx="239.7" cy="306.8" rx="3.7" ry="3.7"/>
					<path fill="#264CBE" d="M212.7,291.5c0,1.9-1.5,3.5-3.4,3.7c0.3-2.5,0.7-4.9,1-7.2C211.7,288.5,212.7,289.9,212.7,291.5z"/>
					<ellipse fill="#264CBE" cx="276.7" cy="328.6" rx="3.7" ry="3.7"/>
					<ellipse fill="#264CBE" cx="274.9" cy="308.4" rx="3.7" ry="3.7"/>
					<path fill="#264CBE" d="M298.7,317.1c-0.4,0.2-0.9,0.3-1.5,0.3c-2.1,0-3.7-1.7-3.7-3.7c0-2,1.7-3.7,3.7-3.7c0.1,0,0.3,0,0.4,0
						C298,312.4,298.3,314.7,298.7,317.1z"/>
					<ellipse fill="#264CBE" cx="278.6" cy="343.4" rx="3.7" ry="3.7"/>
					<ellipse fill="#264CBE" cx="294.6" cy="337.5" rx="3.7" ry="3.7"/>
					<path fill="#264CBE" d="M265.2,349c-0.7-1-1.8-1.6-3.1-1.6s-2.4,0.6-3.1,1.6H265.2z"/>
					<ellipse fill="#264CBE" cx="214.6" cy="331.8" rx="3.7" ry="3.7"/>
					<path fill="#264CBE" d="M208.5,320.1c0,1.9-1.4,3.4-3.2,3.7c0,0,0-0.1,0-0.1c0.4-2.3,0.7-4.7,1-7
						C207.6,317.3,208.5,318.6,208.5,320.1z"/>
					<path fill="#264CBE" d="M204.1,343.4c0,1.7-1.1,3.1-2.6,3.6c0.4-2.1,0.8-4.3,1.1-6.6C203.5,341.1,204.1,342.2,204.1,343.4z"/>
					<ellipse fill="#264CBE" cx="223.8" cy="345" rx="3.7" ry="3.7"/>
					<ellipse fill="#264CBE" cx="243.4" cy="342.1" rx="3.7" ry="3.7"/>
					<ellipse fill="#264CBE" cx="229.4" cy="323.8" rx="3.7" ry="3.7"/>
					<ellipse fill="#264CBE" cx="249.4" cy="320.1" rx="3.7" ry="3.7"/>
					<ellipse fill="#264CBE" cx="258.4" cy="300.5" rx="3.7" ry="3.7"/>
					<path fill="#264CBE" d="M294.3,285.6c-0.3,0.1-0.5,0.1-0.8,0.1c-2.1,0-3.7-1.7-3.7-3.7c0-2,1.6-3.6,3.6-3.7
						C293.7,280.5,294,282.9,294.3,285.6z"/>
					<ellipse fill="#264CBE" cx="271.2" cy="285.7" rx="3.7" ry="3.7"/>
					<ellipse fill="#264CBE" cx="284.8" cy="298.9" rx="3.7" ry="3.7"/>
					<ellipse fill="#264CBE" cx="262.1" cy="331.8" rx="3.7" ry="3.7"/>
				</g>
				<path fill="#009CF8" d="M294.4,267.9c-20.8,13.6-59,12.5-83.1,0c2.3-14.3,5.3-28.5,4.7-47.5c-0.1-2.1-0.2-4.1-0.3-6.2
					c-0.1-1.8-0.2-3.6-0.3-5.3c-2.1-31.6-7.5-57.4-4.8-60.7c1.2-1.5,3.1-3,5.5-4.7c0.9-0.6,1.9-1.3,3-1.9c2.5-1.5,5.3-3,8-4.5
					c6.6-3.5,13.3-6.8,16.7-9c3.3,1.4,6,2.2,8.8,2.2c0.1,0,0.2,0,0.2,0c0.1,0,0.2,0,0.2,0c2.9,0,5.5-0.8,8.8-2.2c3.1,2.1,9,5,15,8.1
					c4.4,2.3,8.9,4.8,12.3,7.2c2.3,1.6,4.1,3.1,5.3,4.5c1.3,1.7,0.8,8.9-0.4,19.7c-1.1,10.6-2.8,24.5-3.8,39.9
					c-0.3,4.3-0.5,8.6-0.7,13.1C289,239.3,292.1,253.6,294.4,267.9z"/>
				<g>
					<path fill="#006BDE" d="M281.6,252.1C281.6,252.1,281.6,252.1,281.6,252.1c-16.8-0.1-31.1-7.7-40.1-14.1
						c-9.8-6.9-15.7-13.9-15.8-13.9c-0.3-0.3-0.2-0.8,0.1-1.1c0.3-0.3,0.9-0.2,1.1,0.1c0.1,0.1,5.9,6.9,15.5,13.7
						c8.9,6.2,22.8,13.7,39.2,13.7c0.4,0,0.8,0.4,0.8,0.8C282.4,251.7,282.1,252.1,281.6,252.1z"/>
				</g>
				<g>
					<path fill="#006BDE" d="M270.5,242.4c-14.3-2.8-26.9-13.7-27.5-14.2c-0.3-0.3-0.4-0.8-0.1-1.1c0.3-0.3,0.8-0.4,1.1-0.1
						c0.1,0.1,15,13,30.2,14.3c0.5,0,0.8,0.4,0.7,0.9c0,0.4-0.4,0.8-0.9,0.7C272.9,242.8,271.7,242.6,270.5,242.4z"/>
				</g>
				<g>
					<path fill="#006BDE" d="M249.4,168.7c-0.4,0-0.7-0.3-0.8-0.7c-0.1-0.4,0.2-0.9,0.6-0.9c20.4-3.9,26.6-17,26.7-17.1
						c0.2-0.4,0.7-0.6,1.1-0.4c0.4,0.2,0.6,0.7,0.4,1.1c-0.3,0.6-6.6,14-27.8,18C249.5,168.6,249.4,168.7,249.4,168.7z"/>
				</g>
				<path fill="#FFA681" d="M276.9,136.1c-4.1,9.2-14,18.8-27,16.6c-12.6-2.2-18.5-8.8-22.8-15.7c6.6-3.5,13.3-6.8,16.7-9
					c3.3,1.4,6,2.2,8.8,2.2c0.1,0,0.2,0,0.2,0c0.1,0,0.2,0,0.2,0c2.9,0,5.5-0.8,8.8-2.2C265,130,270.9,132.9,276.9,136.1z"/>
				<g>
					<path fill="#FFFFFF" d="M266,128.6c-0.4,0-0.6,0.3-0.6,0.6c0,0.5-0.2,12.7-11.2,13.7c-10.2,0.9-14.4-8.8-15.7-12.9
						c-0.1-0.2-0.3-0.4-0.5-0.4h-0.1c-0.4,0-0.7,0.4-0.5,0.8c1.4,4.2,5.8,14.2,16.2,13.9c0.3,0,0.5,0,0.8-0.1
						c12.2-1,12.4-14.8,12.4-14.9C266.7,128.9,266.4,128.6,266,128.6z"/>
				</g>
			</g>
			<g>
				<path fill="#18315B" d="M273.8,63.8c0,0,9.8,15.2,8.7,31c-1.1,15.8,1.4,34-12.7,33.2c-14.2-0.8-39.4,5.7-47.5-6.6
					C214.3,109,273.8,63.8,273.8,63.8z"/>
				<path fill="#000B29" d="M277.4,91.6c0,0,2.5,22.9-8.3,29.2c-10.9,6.3-18.8-0.7-18.8-0.7S273.3,88.2,277.4,91.6z"/>
				<g>
					<g>
						<path fill="#F97853" d="M232.2,91.5c0,0-3.9-5.2-6.8-0.9c-2.9,4.3,1.2,17,8.3,13.9L232.2,91.5z"/>
						<g>
							<path fill="#EA5143" d="M232.2,100.6c-0.3,0-0.5-0.2-0.6-0.4c-1.1-3.9-5.2-5.5-5.2-5.5c-0.3-0.1-0.5-0.5-0.3-0.8
								c0.1-0.3,0.5-0.5,0.8-0.3c0.2,0.1,4.7,1.8,5.9,6.3c0.1,0.3-0.1,0.7-0.4,0.7C232.3,100.6,232.2,100.6,232.2,100.6z"/>
						</g>
						<g>
							<path fill="#EA5143" d="M228,98.6c-0.1,0-0.2,0-0.3-0.1c-0.3-0.2-0.4-0.6-0.2-0.8c0,0,0.8-1.1,2.3-1.8c0.3-0.1,0.7,0,0.8,0.3
								c0.1,0.3,0,0.7-0.3,0.8c-1.2,0.5-1.7,1.4-1.7,1.4C228.4,98.5,228.2,98.6,228,98.6z"/>
						</g>
					</g>
					<g>
						<path fill="#F97853" d="M272.5,91.5c0,0,3.9-5.2,6.8-0.9c2.9,4.3-1.2,17-8.3,13.9L272.5,91.5z"/>
						<g>
							<path fill="#EA5143" d="M272.6,100.6c0.3,0,0.5-0.2,0.6-0.4c1.1-3.9,5.2-5.5,5.2-5.5c0.3-0.1,0.5-0.5,0.3-0.8
								c-0.1-0.3-0.5-0.5-0.8-0.3c-0.2,0.1-4.7,1.8-5.9,6.3c-0.1,0.3,0.1,0.7,0.4,0.7C272.4,100.6,272.5,100.6,272.6,100.6z"/>
						</g>
						<g>
							<path fill="#EA5143" d="M276.7,98.6c0.1,0,0.2,0,0.3-0.1c0.3-0.2,0.4-0.6,0.2-0.8c0,0-0.8-1.1-2.3-1.8
								c-0.3-0.1-0.7,0-0.8,0.3c-0.1,0.3,0,0.7,0.3,0.8c1.2,0.5,1.7,1.4,1.7,1.4C276.3,98.5,276.5,98.6,276.7,98.6z"/>
						</g>
					</g>
					<path fill="#FFA681" d="M262,115.3V128c0,0-3.8,6.4-8.9,6.9c-5.1,0.4-9.6-5.5-9.6-5.5v-13.1L262,115.3z"/>
					<path fill="#F97853" d="M262,115.3v5.6c-3.4,3.8-9.5,5.1-18.5,3.8l0-8.5L262,115.3z"/>
					<path fill="#FFA681" d="M275.3,82.9c-0.2,4.9-0.7,11.1-1.6,16c-0.2,1.2-0.5,2.4-0.8,3.4c-2.7,9.3-9.3,25.3-28,18.6
						c-8.2-2.9-12.1-12.1-13.8-21.4c-1.2-6.3-1.3-12.7-1.2-17.3c0.1-4.7,2.6-8.9,6.7-11.2c11-6.2,22.6-3.9,30.3-1
						C272.2,72,275.6,77.2,275.3,82.9z"/>
					<ellipse fill="#18315B" cx="242.6" cy="92.3" rx="1.6" ry="2.4"/>
					<ellipse fill="#18315B" cx="261.8" cy="92.3" rx="1.6" ry="2.4"/>
					<path fill="#18315B" d="M239.5,85c1.3-0.4,3.9-1,6.7-1c0.7,0,1.3,0.6,1.2,1.4l0,0c-0.1,0.6-0.6,1-1.2,0.9
						c-1.9-0.1-6.8,0.2-9.1,1.1c0-0.4,0.2-0.8,0.5-1.2C238,85.6,238.7,85.2,239.5,85z"/>
					<path fill="#18315B" d="M264.6,85.1c-1.3-0.4-3.9-1-6.7-1c-0.7,0-1.3,0.6-1.2,1.4l0,0c0.1,0.6,0.6,1,1.2,0.9
						c1.9-0.1,6.8,0.2,9.1,1.1c0-0.4-0.2-0.8-0.5-1.2C266.1,85.7,265.4,85.3,264.6,85.1z"/>
					<g>
						<path fill="#F97853" d="M252.6,103.4c-0.5,0-0.9-0.1-1.3-0.3c-0.4-0.2-0.8-0.6-0.9-1.5c-0.2-2.2,0.3-9.1,0.4-9.4
							c0-0.3,0.3-0.6,0.6-0.5c0.3,0,0.6,0.3,0.6,0.6c0,0.1-0.6,7.1-0.4,9.2c0,0.4,0.2,0.5,0.3,0.6c0.6,0.3,1.9,0,2.4-0.2
							c0.3-0.1,0.7,0,0.8,0.3c0.1,0.3,0,0.7-0.3,0.8C254.6,103,253.6,103.4,252.6,103.4z"/>
					</g>
					<path fill="#FFFFFF" d="M244.9,107.2c0.5,2.3,2,6.5,7.1,6.5c5.1,0,6.5-3.8,7-6.5H244.9z"/>
					<g>
						<path fill="#F97853" d="M251.9,117.2c-1.5,0-2.8-0.8-2.8-0.8c-0.3-0.2-0.4-0.5-0.2-0.8c0.2-0.3,0.5-0.4,0.8-0.2l0,0
							c0,0,1.1,0.6,2.2,0.6c1.2,0,2.3-0.6,2.3-0.6c0.3-0.2,0.7-0.1,0.8,0.2c0.2,0.3,0.1,0.7-0.2,0.8
							C254.8,116.4,253.5,117.2,251.9,117.2z"/>
					</g>
				</g>
				<path fill="#18315B" d="M277.8,81.9c-0.2,0.5-0.7,0.9-1.4,1.1c0.1,1.3-0.1,2.9-0.2,4.4c-0.7,8.7-2.9,10.2-3.4,8.1
					c-0.3-1.4-0.3-9.6-0.1-12.3c-1.7-0.1-3.2-0.4-3.2-0.4l-2-8.4l-0.7,8.3c-3,1.1-10.1-0.6-10.1-0.6l-2.4-8.3l-1.5,8
					c-4.5,2.2-10.2,0.7-10.2,0.7l-1.3-8.6l-3,8.6c0,0-9.7,3.5-9.8,0c-0.1-2,1.4-7.7,2.7-12.1c1.4-4.8,4.5-8.9,8.8-11.1
					c12-6.4,24.7-3,29.1-0.4C278.1,64.4,277.8,81.9,277.8,81.9z"/>
				<path fill="#18315B" d="M233.7,64.4c0,0-8,9.5-10.6,26.4c-2.6,16.9-6.3,29.4,3.9,35c11,6,10.1-6.3,9.9-9.7
					c-0.2-3.4-9.6-12.6-3.3-38.5C235.7,69.2,233.7,64.4,233.7,64.4z"/>
				<path fill="#000B29" d="M231.8,99.3C231.8,99.3,231.8,99.3,231.8,99.3c0,0.1,0,0.8,0.1,1.9c0,0.7,0.1,1.4,0.1,2.3
					c0.4,5.7,1.5,15.5,4.7,18.9c1.3,1.3,3.8,2,6.7,2.3v-4.5c-3.1-1.5-5.5-3.9-7.3-6.8c-1.1-2.5-3.1-6.4-4.1-12.5L231.8,99.3z"/>
				<circle fill="#FFFFFF" cx="274.1" cy="104.8" r="1.4"/>
			</g>
			<g>
				<path fill="#009CF8" d="M304.2,210.8c-4,11.4-21.9,10.6-42.2,4.3c0,0-0.1,0-0.1,0c-0.1,0-0.1,0-0.2-0.1l-2.8-0.9
					c-0.4-0.1-0.8-0.3-1.2-0.4c-2.2-0.7-4.4-1.5-6.6-2.4c-7.3-2.8-14.6-6-21.5-9.5l0-0.1l2.1-5.4l0.7-1.8c0,0,37.8,4.1,56.7,0.1
					c0.3-0.1,0.6-0.1,0.9-0.2c-0.1-0.4-0.1-0.8-0.2-1.3c-10.1-34.2,0.9-40.7,4.6-45.5C294.5,147.7,311.7,189.3,304.2,210.8z"/>
				<g>
					<path fill="#006BDE" d="M298,200.2c-0.1,0.1-0.2,0.1-0.4,0.1c-0.3,0-0.6-0.2-0.7-0.4c-1.4-2.9-6.3-4.7-7.8-5.2
						c0.3-0.1,0.6-0.1,0.9-0.2c-0.1-0.4-0.1-0.8-0.2-1.3c1.9,0.6,6.9,2.5,8.5,5.9C298.6,199.5,298.4,200,298,200.2z"/>
				</g>
				<g>
					<path fill="#006BDE" d="M245.2,198.8c-7.7,0-14-0.4-14.5-0.5c-0.4,0-0.8-0.4-0.7-0.9c0-0.4,0.4-0.8,0.9-0.7
						c0.3,0,28.6,2,39.8-2.5c0.4-0.2,0.9,0,1,0.4c0.2,0.4,0,0.9-0.4,1C265,198.2,254.1,198.8,245.2,198.8z"/>
				</g>
				<g>
					<path fill="#006BDE" d="M258.9,214.2C258.9,214.2,258.9,214.2,258.9,214.2c6.5-1.8,12.3-3.5,15.7-4.6
						c4.7-1.5,8.6-6.3,10.4-10.3c0.2-0.4,0.7-0.6,1.1-0.4c0.4,0.2,0.6,0.7,0.4,1.1c-1.9,4.4-6.2,9.5-11.4,11.2
						c-2.5,0.8-6.2,1.9-10.6,3.1C262.7,214.8,260.7,214.7,258.9,214.2L258.9,214.2z"/>
				</g>
				<g>
					<path fill="#009CF8" d="M276.3,208.6c-58.3,19.6-76.3,6.8-76.3,6.8c-3.9-35.4,10.5-67.3,10.5-67.3c4.3,7,9.1,19.3,9.1,19.3
						l1.3,27.2l-0.1,0.8l0,0.4l-0.2,1.9l0,0c0.1,0,0.2,0.1,0.4,0.1c17.6,3.7,49.9-0.4,49.9-0.4L276.3,208.6z"/>
					<g>
						<path fill="#006BDE" d="M220.9,197.7c-3.1,2.6-6.1,5.7-8.8,9.2c-0.3,0.4-0.8,0.4-1.1,0.2c-0.4-0.3-0.4-0.8-0.2-1.1
							c0,0,0,0,0,0c3-3.9,6.4-7.3,10-10.2l-0.2,1.9l0,0C220.7,197.6,220.8,197.6,220.9,197.7z"/>
					</g>
					<path fill="#FFA681" d="M270.9,197.2c0,0,6.5-14.6,16.3-13.3l3,10.6c-5.4,2.3-6.2,11.5-13.8,14.2L270.9,197.2z"/>
				</g>
				<path fill="#FFA681" d="M232.4,194.5c0,0-4.1-9.6-14.8-12.3c-10.7-2.8-17.6,2.3-18.3,4.2c-0.7,1.9,4,0.1,4,0.1s-3.1,0.9-4.9,3.8
					c-1.8,2.9,4.3-0.2,4.3-0.2s-4.4,1.9-4.9,3.7c-0.6,1.8,5.2-1.2,6.3-1.2c0,0-5.2,2-5.1,3.9c0,1.8,5.9-1.2,10.3-0.9
					c4.4,0.2,11.2,2.1,11.2,2.1c3.6,0.7,7.1,1.2,10.2,1.3L232.4,194.5z"/>
			</g>
		</g>
		<g>
			<g>
				<g>
					<g>
						<g>
							<path fill="#006BDE" d="M336.1,46c-4,0-7.2-3.2-7.2-7.2s3.2-7.2,7.2-7.2c4,0,7.2,3.2,7.2,7.2S340.1,46,336.1,46z M336.1,33.8
								c-2.7,0-4.9,2.2-4.9,4.9c0,2.7,2.2,4.9,4.9,4.9c2.7,0,4.9-2.2,4.9-4.9C341,36.1,338.8,33.8,336.1,33.8z"/>
						</g>
						<g>
							<path fill="#009CF8" d="M399,33.8c-4,0-7.2-3.2-7.2-7.2s3.2-7.2,7.2-7.2c4,0,7.2,3.2,7.2,7.2S402.9,33.8,399,33.8z M399,21.6
								c-2.7,0-4.9,2.2-4.9,4.9c0,2.7,2.2,4.9,4.9,4.9c2.7,0,4.9-2.2,4.9-4.9C403.9,23.8,401.7,21.6,399,21.6z"/>
						</g>
						<g>
							<g>
								<g>
									<path fill="#006BDE" d="M407.9,57.1c-0.6,0-1.1-0.5-1.1-1.1v-5c0-0.6,0.5-1.1,1.1-1.1c0.6,0,1.1,0.5,1.1,1.1v5
										C409,56.6,408.5,57.1,407.9,57.1z"/>
								</g>
								<g>
									<path fill="#006BDE" d="M407.9,65.8c-0.6,0-1.1-0.5-1.1-1.1v-5c0-0.6,0.5-1.1,1.1-1.1c0.6,0,1.1,0.5,1.1,1.1v5
										C409,65.3,408.5,65.8,407.9,65.8z"/>
								</g>
							</g>
							<g>
								<g>
									<path fill="#006BDE" d="M414.9,59h-4.5c-0.6,0-1.1-0.5-1.1-1.1s0.5-1.1,1.1-1.1h4.5c0.6,0,1.1,0.5,1.1,1.1
										S415.5,59,414.9,59z"/>
								</g>
								<g>
									<path fill="#006BDE" d="M405.3,59h-4.5c-0.6,0-1.1-0.5-1.1-1.1s0.5-1.1,1.1-1.1h4.5c0.6,0,1.1,0.5,1.1,1.1S406,59,405.3,59
										z"/>
								</g>
							</g>
						</g>
						<g>
							<g>
								<g>
									<g>
										<path fill="#1C31B5" d="M369.8,27c-0.6,0-1.1-0.5-1.1-1.1v-5c0-0.6,0.5-1.1,1.1-1.1s1.1,0.5,1.1,1.1v5
											C370.9,26.5,370.4,27,369.8,27z"/>
									</g>
									<g>
										<path fill="#1C31B5" d="M369.8,35.7c-0.6,0-1.1-0.5-1.1-1.1v-5c0-0.6,0.5-1.1,1.1-1.1s1.1,0.5,1.1,1.1v5
											C370.9,35.2,370.4,35.7,369.8,35.7z"/>
									</g>
								</g>
								<g>
									<g>
										<path fill="#1C31B5" d="M376.8,28.9h-4.5c-0.6,0-1.1-0.5-1.1-1.1c0-0.6,0.5-1.1,1.1-1.1h4.5c0.6,0,1.1,0.5,1.1,1.1
											C377.9,28.3,377.4,28.9,376.8,28.9z"/>
									</g>
									<g>
										<path fill="#1C31B5" d="M367.3,28.9h-4.5c-0.6,0-1.1-0.5-1.1-1.1c0-0.6,0.5-1.1,1.1-1.1h4.5c0.6,0,1.1,0.5,1.1,1.1
											C368.4,28.3,367.9,28.9,367.3,28.9z"/>
									</g>
								</g>
							</g>
						</g>
					</g>
				</g>
				<g>
					<g>
						<g>
							<path fill="#006BDE" d="M78.5,20.5c0-4,3.2-7.2,7.2-7.2c4,0,7.2,3.2,7.2,7.2c0,4-3.2,7.2-7.2,7.2
								C81.7,27.7,78.5,24.5,78.5,20.5z M80.8,20.5c0,2.7,2.2,4.9,4.9,4.9c2.7,0,4.9-2.2,4.9-4.9c0-2.7-2.2-4.9-4.9-4.9
								C83,15.6,80.8,17.8,80.8,20.5z"/>
						</g>
						<g>
							<path fill="#009CF8" d="M49.6,47.9c0-4,3.2-7.2,7.2-7.2c4,0,7.2,3.2,7.2,7.2s-3.2,7.2-7.2,7.2C52.8,55.1,49.6,51.9,49.6,47.9
								z M51.8,47.9c0,2.7,2.2,4.9,4.9,4.9c2.7,0,4.9-2.2,4.9-4.9c0-2.7-2.2-4.9-4.9-4.9C54,43,51.8,45.2,51.8,47.9z"/>
						</g>
						<g>
							<g>
								<g>
									<path fill="#006BDE" d="M34.6,58c0.6,0,1.1-0.5,1.1-1.1v-5c0-0.6-0.5-1.1-1.1-1.1c-0.6,0-1.1,0.5-1.1,1.1v5
										C33.5,57.5,34,58,34.6,58z"/>
								</g>
								<g>
									<path fill="#006BDE" d="M34.6,66.7c0.6,0,1.1-0.5,1.1-1.1v-5c0-0.6-0.5-1.1-1.1-1.1c-0.6,0-1.1,0.5-1.1,1.1v5
										C33.5,66.2,34,66.7,34.6,66.7z"/>
								</g>
							</g>
							<g>
								<g>
									<path fill="#006BDE" d="M27.6,59.9h4.5c0.6,0,1.1-0.5,1.1-1.1c0-0.6-0.5-1.1-1.1-1.1h-4.5c-0.6,0-1.1,0.5-1.1,1.1
										C26.5,59.4,27,59.9,27.6,59.9z"/>
								</g>
								<g>
									<path fill="#006BDE" d="M37.1,59.9h4.5c0.6,0,1.1-0.5,1.1-1.1c0-0.6-0.5-1.1-1.1-1.1h-4.5c-0.6,0-1.1,0.5-1.1,1.1
										C36,59.4,36.5,59.9,37.1,59.9z"/>
								</g>
							</g>
						</g>
						<g>
							<g>
								<g>
									<g>
										<path fill="#1C31B5" d="M60.6,19.8c0.6,0,1.1-0.5,1.1-1.1v-5c0-0.6-0.5-1.1-1.1-1.1c-0.6,0-1.1,0.5-1.1,1.1v5
											C59.5,19.3,60,19.8,60.6,19.8z"/>
									</g>
									<g>
										<path fill="#1C31B5" d="M60.6,28.5c0.6,0,1.1-0.5,1.1-1.1v-5c0-0.6-0.5-1.1-1.1-1.1c-0.6,0-1.1,0.5-1.1,1.1v5
											C59.5,28,60,28.5,60.6,28.5z"/>
									</g>
								</g>
								<g>
									<g>
										<path fill="#1C31B5" d="M53.6,21.7h4.5c0.6,0,1.1-0.5,1.1-1.1c0-0.6-0.5-1.1-1.1-1.1h-4.5c-0.6,0-1.1,0.5-1.1,1.1
											C52.5,21.2,53,21.7,53.6,21.7z"/>
									</g>
									<g>
										<path fill="#1C31B5" d="M63.2,21.7h4.5c0.6,0,1.1-0.5,1.1-1.1c0-0.6-0.5-1.1-1.1-1.1h-4.5c-0.6,0-1.1,0.5-1.1,1.1
											C62,21.2,62.5,21.7,63.2,21.7z"/>
									</g>
								</g>
							</g>
						</g>
					</g>
				</g>
			</g>
			<g>
				<g>
					<g>
						<path fill="#BBE2F2" d="M276.1,21c-0.1,0-0.3,0-0.4-0.1c-1.4-0.6-2.2-0.8-2.2-0.8c-0.4-0.1-0.6-0.6-0.5-1
							c0.1-0.4,0.6-0.6,1-0.5c0,0,0.9,0.3,2.3,0.9c0.4,0.2,0.6,0.6,0.4,1C276.7,20.8,276.4,21,276.1,21z"/>
					</g>
					<g>
						<path fill="#BBE2F2" d="M317,64c0.5,1.5,1.1,3,1.5,4.5c0.1,0.4,0.5,0.6,0.9,0.6c0.1,0,0.1,0,0.2,0c0.4-0.1,0.7-0.6,0.5-1
							c-0.5-1.5-1-3.1-1.6-4.5c-0.2-0.4-0.6-0.6-1-0.5C317.1,63.1,316.9,63.6,317,64z"/>
						<path fill="#BBE2F2" d="M319.8,73c0.4,1.5,0.7,3.1,1,4.6c0.1,0.4,0.5,0.7,0.9,0.7c0,0,0,0,0.1,0c0.4-0.1,0.7-0.5,0.6-0.9
							c-0.3-1.6-0.6-3.2-1-4.7c-0.1-0.4-0.5-0.7-1-0.6C320,72.1,319.7,72.6,319.8,73z"/>
						<path fill="#BBE2F2" d="M323.2,97.2c0.4,0,0.7-0.4,0.7-0.8c0-1.6,0-3.2,0-4.8c0-0.4-0.4-0.8-0.8-0.8c-0.4,0-0.8,0.4-0.8,0.8
							c0,1.5,0.1,3.1,0,4.7C322.3,96.8,322.7,97.2,323.2,97.2C323.1,97.2,323.2,97.2,323.2,97.2z"/>
						<path fill="#BBE2F2" d="M322.2,81.4c-0.4,0.1-0.7,0.5-0.7,0.9c0.1,0.7,0.2,1.5,0.3,2.2c0.1,0.8,0.2,1.7,0.2,2.5
							c0,0.4,0.4,0.8,0.9,0.7c0,0,0,0,0,0c0.4,0,0.7-0.4,0.7-0.9c-0.1-0.9-0.1-1.7-0.2-2.6c-0.1-0.7-0.2-1.5-0.3-2.2
							C323.1,81.6,322.7,81.3,322.2,81.4C322.2,81.4,322.2,81.4,322.2,81.4z"/>
						<path fill="#BBE2F2" d="M315.3,59.7c0.1,0.3,0.5,0.5,0.8,0.5c0.1,0,0.2,0,0.2-0.1c0.4-0.2,0.6-0.7,0.4-1.1
							c-0.7-1.5-1.4-2.9-2.1-4.3c-0.2-0.4-0.7-0.5-1.1-0.3c-0.4,0.2-0.5,0.7-0.3,1.1C313.9,56.8,314.6,58.2,315.3,59.7z"/>
						<path fill="#BBE2F2" d="M280,23c1.4,0.7,2.8,1.5,4.1,2.3c0.2,0.1,0.3,0.1,0.5,0.1c0.2,0,0.5-0.2,0.6-0.4
							c0.2-0.4,0.1-0.9-0.3-1.1c-1.4-0.8-2.8-1.6-4.2-2.3c-0.4-0.2-0.9,0-1.1,0.3C279.5,22.3,279.6,22.8,280,23z"/>
						<path fill="#BBE2F2" d="M292,30.5c0.2,0.1,0.4,0.2,0.6,0.2c0.2,0,0.4-0.1,0.6-0.3c0.3-0.4,0.2-0.9-0.2-1.1
							c-1.3-1-2.6-1.9-3.9-2.8c-0.4-0.2-0.9-0.2-1.1,0.2c-0.2,0.4-0.2,0.9,0.2,1.1C289.4,28.6,290.7,29.6,292,30.5z"/>
						<path fill="#BBE2F2" d="M305.5,43.6c0.2,0.2,0.4,0.3,0.7,0.3c0.1,0,0.3-0.1,0.4-0.2c0.3-0.3,0.4-0.8,0.1-1.1
							c-1-1.2-2-2.5-3.1-3.7c-0.3-0.3-0.8-0.4-1.1-0.1c-0.3,0.3-0.4,0.8-0.1,1.1C303.4,41.2,304.5,42.4,305.5,43.6z"/>
						<path fill="#BBE2F2" d="M299.1,36.7c0.2,0.2,0.4,0.2,0.6,0.2c0.2,0,0.4-0.1,0.5-0.2c0.3-0.3,0.3-0.8,0-1.1
							c-1.1-1.1-2.3-2.2-3.6-3.2c-0.3-0.3-0.8-0.3-1.1,0.1c-0.3,0.3-0.3,0.8,0.1,1.1C296.8,34.5,298,35.6,299.1,36.7z"/>
						<path fill="#BBE2F2" d="M310.9,51.3c0.2,0.3,0.5,0.4,0.8,0.4c0.1,0,0.2,0,0.3-0.1c0.4-0.2,0.5-0.7,0.3-1.1
							c-0.8-1.4-1.7-2.7-2.6-4c-0.3-0.4-0.8-0.4-1.1-0.2c-0.4,0.3-0.5,0.8-0.2,1.1C309.2,48.7,310.1,50,310.9,51.3z"/>
					</g>
				</g>
				<g>
					<g>
						<polygon fill="#009CF8" points="276.1,15.6 279.6,2.6 236.6,3 						"/>
						<polygon fill="#006BDE" points="236.6,3 274,18.7 274.1,18.7 275.7,21.4 276.1,15.6 						"/>
						<polygon fill="#006BDE" points="275.7,21.4 272.3,20.9 274.1,18.7 						"/>
						<polygon fill="#009CF8" points="269.4,16.8 274.1,18.7 264.4,29.7 236.6,3 						"/>
					</g>
				</g>
			</g>
		</g>
		<g>
			<path fill="#1C31B5" d="M474,357.1v0.8c0,4.5-3.7,8.2-8.2,8.2h-425c-4.5,0-8.2-3.7-8.2-8.2v-0.8c0-4.5,3.7-8.2,8.2-8.2h425
				C470.4,349,474,352.6,474,357.1z"/>
			<path fill="#006BDE" d="M474,357.1v0.4H32.6v-0.4c0-4.5,3.7-8.2,8.2-8.2h425C470.4,349,474,352.6,474,357.1z"/>
		</g>
		<path fill="#00243A" d="M318.4,323.2H184.9c-3.2,0-5.8-2.6-5.8-5.8v-69.7c0-3.2,2.6-5.8,5.8-5.8h133.5c3.2,0,5.8,2.6,5.8,5.8v69.7
			C324.2,320.7,321.6,323.2,318.4,323.2z"/>
		<rect x="240.4" y="323.1" fill="#000B29" width="22.5" height="25.6"/>
		<path fill="#18315B" d="M280.2,348.7h-57.9v-1.9c0-3.9,3.2-7.1,7.1-7.1h43.7c3.9,0,7.1,3.2,7.1,7.1V348.7z"/>
		<g>
			<path fill="#FFFFFF" d="M251.3,295.8h-0.5c-6.9,0-12.6-5.6-12.6-12.6V283c0-6.9,5.6-12.6,12.6-12.6h0.5c6.9,0,12.6,5.6,12.6,12.6
				v0.3C263.9,290.2,258.2,295.8,251.3,295.8z"/>
			<g>
				<path fill="#00243A" d="M253,278.9v10.3c0,0.8-0.1,1.3-0.7,1.8c-0.6,0.4-2.3,0.6-2.3,0.6v-10.3c0-0.7,0.1-1.3,0.7-1.7
					C251.3,279.1,252,278.9,253,278.9z"/>
				<circle fill="#FF0000" cx="251" cy="276.4" r="1.8"/>
			</g>
		</g>
	</g>
</g>
<g id="DESIGNED_BY_FREEPIK">
</g>
</svg>
